M48
;DRILL file {KiCad 5.0.2-bee76a0~70~ubuntu18.04.1} date Wed 09 Jan 2019 10:49:07 AM CST
;FORMAT={-:-/ absolute / inch / decimal}
FMAT,2
INCH,TZ
T1C0.0157
T2C0.0394
%
G90
G05
T1
X2.84Y-6.03
X2.9Y-3.35
X2.9Y-4.19
X2.9Y-5.04
X2.9Y-5.89
X2.99Y-5.27
X3.01Y-3.62
X3.0143Y-4.4157
X3.0143Y-6.1157
X3.06Y-4.72
X3.06Y-5.59
X3.0604Y-3.4904
X3.086Y-5.194
X3.086Y-6.044
X3.09Y-4.33
X3.16Y-4.3
X3.16Y-5.15
X3.16Y-6.
X3.1772Y-3.41
X3.21Y-3.84
X3.214Y-4.494
X3.214Y-5.194
X3.214Y-6.046
X3.214Y-6.23
X3.24Y-4.11
X3.2696Y-5.9904
X3.27Y-6.25
X3.28Y-3.7
X3.4Y-3.3851
X3.43Y-3.7
X3.43Y-4.38
X3.43Y-6.03
X3.8847Y-5.9953
X3.96Y-4.16
X3.98Y-6.15
X3.99Y-5.88
X4.16Y-5.99
T2
X4.1Y-4.22
X3.51Y-3.15
X3.51Y-3.25
X2.6Y-5.65
X2.6Y-5.75
X2.6Y-5.85
X2.6Y-5.95
X2.6Y-6.05
X2.6Y-6.15
X2.6Y-6.25
X2.6Y-6.35
X2.6Y-3.95
X2.6Y-4.05
X2.6Y-4.15
X2.6Y-4.25
X2.6Y-4.35
X2.6Y-4.45
X2.6Y-4.55
X2.6Y-4.65
X4.1Y-3.52
X4.1Y-3.62
X4.1Y-3.72
X4.1Y-3.82
X4.1Y-3.92
X4.1Y-4.02
X2.6Y-3.1
X2.6Y-3.2
X2.6Y-3.3
X2.6Y-3.4
X2.6Y-3.5
X2.6Y-3.6
X2.6Y-3.7
X2.6Y-3.8
X2.6Y-4.8
X2.6Y-4.9
X2.6Y-5.
X2.6Y-5.1
X2.6Y-5.2
X2.6Y-5.3
X2.6Y-5.4
X2.6Y-5.5
X3.6089Y-5.6445
X3.6089Y-5.7445
X3.6089Y-5.8445
X3.6089Y-5.9445
X3.6089Y-6.0445
X3.6089Y-6.1445
X3.6089Y-6.2445
X3.6089Y-6.3445
T0
M30
