G04 #@! TF.GenerationSoftware,KiCad,Pcbnew,5.0.2-bee76a0~70~ubuntu18.04.1*
G04 #@! TF.CreationDate,2019-01-09T10:49:10-06:00*
G04 #@! TF.ProjectId,giant,6769616e-742e-46b6-9963-61645f706362,rev?*
G04 #@! TF.SameCoordinates,Original*
G04 #@! TF.FileFunction,Copper,L1,Top*
G04 #@! TF.FilePolarity,Positive*
%FSLAX46Y46*%
G04 Gerber Fmt 4.6, Leading zero omitted, Abs format (unit mm)*
G04 Created by KiCad (PCBNEW 5.0.2-bee76a0~70~ubuntu18.04.1) date Wed 09 Jan 2019 10:49:10 AM CST*
%MOMM*%
%LPD*%
G01*
G04 APERTURE LIST*
G04 #@! TA.AperFunction,Conductor*
%ADD10C,0.100000*%
G04 #@! TD*
G04 #@! TA.AperFunction,SMDPad,CuDef*
%ADD11C,1.150000*%
G04 #@! TD*
G04 #@! TA.AperFunction,SMDPad,CuDef*
%ADD12R,0.450000X1.475000*%
G04 #@! TD*
G04 #@! TA.AperFunction,SMDPad,CuDef*
%ADD13R,2.850000X1.000000*%
G04 #@! TD*
G04 #@! TA.AperFunction,SMDPad,CuDef*
%ADD14R,5.950000X5.550000*%
G04 #@! TD*
G04 #@! TA.AperFunction,SMDPad,CuDef*
%ADD15C,0.950000*%
G04 #@! TD*
G04 #@! TA.AperFunction,ComponentPad*
%ADD16R,1.700000X1.700000*%
G04 #@! TD*
G04 #@! TA.AperFunction,ComponentPad*
%ADD17O,1.700000X1.700000*%
G04 #@! TD*
G04 #@! TA.AperFunction,ViaPad*
%ADD18C,0.800000*%
G04 #@! TD*
G04 #@! TA.AperFunction,Conductor*
%ADD19C,0.400000*%
G04 #@! TD*
G04 #@! TA.AperFunction,Conductor*
%ADD20C,0.250000*%
G04 #@! TD*
G04 APERTURE END LIST*
D10*
G04 #@! TO.N,Net-(LED3-Pad13)*
G04 #@! TO.C,R23*
G36*
X71224505Y-136461204D02*
X71248773Y-136464804D01*
X71272572Y-136470765D01*
X71295671Y-136479030D01*
X71317850Y-136489520D01*
X71338893Y-136502132D01*
X71358599Y-136516747D01*
X71376777Y-136533223D01*
X71393253Y-136551401D01*
X71407868Y-136571107D01*
X71420480Y-136592150D01*
X71430970Y-136614329D01*
X71439235Y-136637428D01*
X71445196Y-136661227D01*
X71448796Y-136685495D01*
X71450000Y-136709999D01*
X71450000Y-137610001D01*
X71448796Y-137634505D01*
X71445196Y-137658773D01*
X71439235Y-137682572D01*
X71430970Y-137705671D01*
X71420480Y-137727850D01*
X71407868Y-137748893D01*
X71393253Y-137768599D01*
X71376777Y-137786777D01*
X71358599Y-137803253D01*
X71338893Y-137817868D01*
X71317850Y-137830480D01*
X71295671Y-137840970D01*
X71272572Y-137849235D01*
X71248773Y-137855196D01*
X71224505Y-137858796D01*
X71200001Y-137860000D01*
X70549999Y-137860000D01*
X70525495Y-137858796D01*
X70501227Y-137855196D01*
X70477428Y-137849235D01*
X70454329Y-137840970D01*
X70432150Y-137830480D01*
X70411107Y-137817868D01*
X70391401Y-137803253D01*
X70373223Y-137786777D01*
X70356747Y-137768599D01*
X70342132Y-137748893D01*
X70329520Y-137727850D01*
X70319030Y-137705671D01*
X70310765Y-137682572D01*
X70304804Y-137658773D01*
X70301204Y-137634505D01*
X70300000Y-137610001D01*
X70300000Y-136709999D01*
X70301204Y-136685495D01*
X70304804Y-136661227D01*
X70310765Y-136637428D01*
X70319030Y-136614329D01*
X70329520Y-136592150D01*
X70342132Y-136571107D01*
X70356747Y-136551401D01*
X70373223Y-136533223D01*
X70391401Y-136516747D01*
X70411107Y-136502132D01*
X70432150Y-136489520D01*
X70454329Y-136479030D01*
X70477428Y-136470765D01*
X70501227Y-136464804D01*
X70525495Y-136461204D01*
X70549999Y-136460000D01*
X71200001Y-136460000D01*
X71224505Y-136461204D01*
X71224505Y-136461204D01*
G37*
D11*
G04 #@! TD*
G04 #@! TO.P,R23,2*
G04 #@! TO.N,Net-(LED3-Pad13)*
X70875000Y-137160000D03*
D10*
G04 #@! TO.N,Net-(R23-Pad1)*
G04 #@! TO.C,R23*
G36*
X69174505Y-136461204D02*
X69198773Y-136464804D01*
X69222572Y-136470765D01*
X69245671Y-136479030D01*
X69267850Y-136489520D01*
X69288893Y-136502132D01*
X69308599Y-136516747D01*
X69326777Y-136533223D01*
X69343253Y-136551401D01*
X69357868Y-136571107D01*
X69370480Y-136592150D01*
X69380970Y-136614329D01*
X69389235Y-136637428D01*
X69395196Y-136661227D01*
X69398796Y-136685495D01*
X69400000Y-136709999D01*
X69400000Y-137610001D01*
X69398796Y-137634505D01*
X69395196Y-137658773D01*
X69389235Y-137682572D01*
X69380970Y-137705671D01*
X69370480Y-137727850D01*
X69357868Y-137748893D01*
X69343253Y-137768599D01*
X69326777Y-137786777D01*
X69308599Y-137803253D01*
X69288893Y-137817868D01*
X69267850Y-137830480D01*
X69245671Y-137840970D01*
X69222572Y-137849235D01*
X69198773Y-137855196D01*
X69174505Y-137858796D01*
X69150001Y-137860000D01*
X68499999Y-137860000D01*
X68475495Y-137858796D01*
X68451227Y-137855196D01*
X68427428Y-137849235D01*
X68404329Y-137840970D01*
X68382150Y-137830480D01*
X68361107Y-137817868D01*
X68341401Y-137803253D01*
X68323223Y-137786777D01*
X68306747Y-137768599D01*
X68292132Y-137748893D01*
X68279520Y-137727850D01*
X68269030Y-137705671D01*
X68260765Y-137682572D01*
X68254804Y-137658773D01*
X68251204Y-137634505D01*
X68250000Y-137610001D01*
X68250000Y-136709999D01*
X68251204Y-136685495D01*
X68254804Y-136661227D01*
X68260765Y-136637428D01*
X68269030Y-136614329D01*
X68279520Y-136592150D01*
X68292132Y-136571107D01*
X68306747Y-136551401D01*
X68323223Y-136533223D01*
X68341401Y-136516747D01*
X68361107Y-136502132D01*
X68382150Y-136489520D01*
X68404329Y-136479030D01*
X68427428Y-136470765D01*
X68451227Y-136464804D01*
X68475495Y-136461204D01*
X68499999Y-136460000D01*
X69150001Y-136460000D01*
X69174505Y-136461204D01*
X69174505Y-136461204D01*
G37*
D11*
G04 #@! TD*
G04 #@! TO.P,R23,1*
G04 #@! TO.N,Net-(R23-Pad1)*
X68825000Y-137160000D03*
D10*
G04 #@! TO.N,Net-(LED5-Pad3)*
G04 #@! TO.C,R33*
G36*
X96851066Y-142671833D02*
X96875334Y-142675433D01*
X96899133Y-142681394D01*
X96922232Y-142689659D01*
X96944411Y-142700149D01*
X96965454Y-142712761D01*
X96985160Y-142727376D01*
X97003338Y-142743852D01*
X97019814Y-142762030D01*
X97034429Y-142781736D01*
X97047041Y-142802779D01*
X97057531Y-142824958D01*
X97065796Y-142848057D01*
X97071757Y-142871856D01*
X97075357Y-142896124D01*
X97076561Y-142920628D01*
X97076561Y-143820630D01*
X97075357Y-143845134D01*
X97071757Y-143869402D01*
X97065796Y-143893201D01*
X97057531Y-143916300D01*
X97047041Y-143938479D01*
X97034429Y-143959522D01*
X97019814Y-143979228D01*
X97003338Y-143997406D01*
X96985160Y-144013882D01*
X96965454Y-144028497D01*
X96944411Y-144041109D01*
X96922232Y-144051599D01*
X96899133Y-144059864D01*
X96875334Y-144065825D01*
X96851066Y-144069425D01*
X96826562Y-144070629D01*
X96176560Y-144070629D01*
X96152056Y-144069425D01*
X96127788Y-144065825D01*
X96103989Y-144059864D01*
X96080890Y-144051599D01*
X96058711Y-144041109D01*
X96037668Y-144028497D01*
X96017962Y-144013882D01*
X95999784Y-143997406D01*
X95983308Y-143979228D01*
X95968693Y-143959522D01*
X95956081Y-143938479D01*
X95945591Y-143916300D01*
X95937326Y-143893201D01*
X95931365Y-143869402D01*
X95927765Y-143845134D01*
X95926561Y-143820630D01*
X95926561Y-142920628D01*
X95927765Y-142896124D01*
X95931365Y-142871856D01*
X95937326Y-142848057D01*
X95945591Y-142824958D01*
X95956081Y-142802779D01*
X95968693Y-142781736D01*
X95983308Y-142762030D01*
X95999784Y-142743852D01*
X96017962Y-142727376D01*
X96037668Y-142712761D01*
X96058711Y-142700149D01*
X96080890Y-142689659D01*
X96103989Y-142681394D01*
X96127788Y-142675433D01*
X96152056Y-142671833D01*
X96176560Y-142670629D01*
X96826562Y-142670629D01*
X96851066Y-142671833D01*
X96851066Y-142671833D01*
G37*
D11*
G04 #@! TD*
G04 #@! TO.P,R33,2*
G04 #@! TO.N,Net-(LED5-Pad3)*
X96501561Y-143370629D03*
D10*
G04 #@! TO.N,Net-(R33-Pad1)*
G04 #@! TO.C,R33*
G36*
X94801066Y-142671833D02*
X94825334Y-142675433D01*
X94849133Y-142681394D01*
X94872232Y-142689659D01*
X94894411Y-142700149D01*
X94915454Y-142712761D01*
X94935160Y-142727376D01*
X94953338Y-142743852D01*
X94969814Y-142762030D01*
X94984429Y-142781736D01*
X94997041Y-142802779D01*
X95007531Y-142824958D01*
X95015796Y-142848057D01*
X95021757Y-142871856D01*
X95025357Y-142896124D01*
X95026561Y-142920628D01*
X95026561Y-143820630D01*
X95025357Y-143845134D01*
X95021757Y-143869402D01*
X95015796Y-143893201D01*
X95007531Y-143916300D01*
X94997041Y-143938479D01*
X94984429Y-143959522D01*
X94969814Y-143979228D01*
X94953338Y-143997406D01*
X94935160Y-144013882D01*
X94915454Y-144028497D01*
X94894411Y-144041109D01*
X94872232Y-144051599D01*
X94849133Y-144059864D01*
X94825334Y-144065825D01*
X94801066Y-144069425D01*
X94776562Y-144070629D01*
X94126560Y-144070629D01*
X94102056Y-144069425D01*
X94077788Y-144065825D01*
X94053989Y-144059864D01*
X94030890Y-144051599D01*
X94008711Y-144041109D01*
X93987668Y-144028497D01*
X93967962Y-144013882D01*
X93949784Y-143997406D01*
X93933308Y-143979228D01*
X93918693Y-143959522D01*
X93906081Y-143938479D01*
X93895591Y-143916300D01*
X93887326Y-143893201D01*
X93881365Y-143869402D01*
X93877765Y-143845134D01*
X93876561Y-143820630D01*
X93876561Y-142920628D01*
X93877765Y-142896124D01*
X93881365Y-142871856D01*
X93887326Y-142848057D01*
X93895591Y-142824958D01*
X93906081Y-142802779D01*
X93918693Y-142781736D01*
X93933308Y-142762030D01*
X93949784Y-142743852D01*
X93967962Y-142727376D01*
X93987668Y-142712761D01*
X94008711Y-142700149D01*
X94030890Y-142689659D01*
X94053989Y-142681394D01*
X94077788Y-142675433D01*
X94102056Y-142671833D01*
X94126560Y-142670629D01*
X94776562Y-142670629D01*
X94801066Y-142671833D01*
X94801066Y-142671833D01*
G37*
D11*
G04 #@! TD*
G04 #@! TO.P,R33,1*
G04 #@! TO.N,Net-(R33-Pad1)*
X94451561Y-143370629D03*
D10*
G04 #@! TO.N,Net-(LED4-Pad13)*
G04 #@! TO.C,R31*
G36*
X71224505Y-158051204D02*
X71248773Y-158054804D01*
X71272572Y-158060765D01*
X71295671Y-158069030D01*
X71317850Y-158079520D01*
X71338893Y-158092132D01*
X71358599Y-158106747D01*
X71376777Y-158123223D01*
X71393253Y-158141401D01*
X71407868Y-158161107D01*
X71420480Y-158182150D01*
X71430970Y-158204329D01*
X71439235Y-158227428D01*
X71445196Y-158251227D01*
X71448796Y-158275495D01*
X71450000Y-158299999D01*
X71450000Y-159200001D01*
X71448796Y-159224505D01*
X71445196Y-159248773D01*
X71439235Y-159272572D01*
X71430970Y-159295671D01*
X71420480Y-159317850D01*
X71407868Y-159338893D01*
X71393253Y-159358599D01*
X71376777Y-159376777D01*
X71358599Y-159393253D01*
X71338893Y-159407868D01*
X71317850Y-159420480D01*
X71295671Y-159430970D01*
X71272572Y-159439235D01*
X71248773Y-159445196D01*
X71224505Y-159448796D01*
X71200001Y-159450000D01*
X70549999Y-159450000D01*
X70525495Y-159448796D01*
X70501227Y-159445196D01*
X70477428Y-159439235D01*
X70454329Y-159430970D01*
X70432150Y-159420480D01*
X70411107Y-159407868D01*
X70391401Y-159393253D01*
X70373223Y-159376777D01*
X70356747Y-159358599D01*
X70342132Y-159338893D01*
X70329520Y-159317850D01*
X70319030Y-159295671D01*
X70310765Y-159272572D01*
X70304804Y-159248773D01*
X70301204Y-159224505D01*
X70300000Y-159200001D01*
X70300000Y-158299999D01*
X70301204Y-158275495D01*
X70304804Y-158251227D01*
X70310765Y-158227428D01*
X70319030Y-158204329D01*
X70329520Y-158182150D01*
X70342132Y-158161107D01*
X70356747Y-158141401D01*
X70373223Y-158123223D01*
X70391401Y-158106747D01*
X70411107Y-158092132D01*
X70432150Y-158079520D01*
X70454329Y-158069030D01*
X70477428Y-158060765D01*
X70501227Y-158054804D01*
X70525495Y-158051204D01*
X70549999Y-158050000D01*
X71200001Y-158050000D01*
X71224505Y-158051204D01*
X71224505Y-158051204D01*
G37*
D11*
G04 #@! TD*
G04 #@! TO.P,R31,2*
G04 #@! TO.N,Net-(LED4-Pad13)*
X70875000Y-158750000D03*
D10*
G04 #@! TO.N,Net-(R31-Pad1)*
G04 #@! TO.C,R31*
G36*
X69174505Y-158051204D02*
X69198773Y-158054804D01*
X69222572Y-158060765D01*
X69245671Y-158069030D01*
X69267850Y-158079520D01*
X69288893Y-158092132D01*
X69308599Y-158106747D01*
X69326777Y-158123223D01*
X69343253Y-158141401D01*
X69357868Y-158161107D01*
X69370480Y-158182150D01*
X69380970Y-158204329D01*
X69389235Y-158227428D01*
X69395196Y-158251227D01*
X69398796Y-158275495D01*
X69400000Y-158299999D01*
X69400000Y-159200001D01*
X69398796Y-159224505D01*
X69395196Y-159248773D01*
X69389235Y-159272572D01*
X69380970Y-159295671D01*
X69370480Y-159317850D01*
X69357868Y-159338893D01*
X69343253Y-159358599D01*
X69326777Y-159376777D01*
X69308599Y-159393253D01*
X69288893Y-159407868D01*
X69267850Y-159420480D01*
X69245671Y-159430970D01*
X69222572Y-159439235D01*
X69198773Y-159445196D01*
X69174505Y-159448796D01*
X69150001Y-159450000D01*
X68499999Y-159450000D01*
X68475495Y-159448796D01*
X68451227Y-159445196D01*
X68427428Y-159439235D01*
X68404329Y-159430970D01*
X68382150Y-159420480D01*
X68361107Y-159407868D01*
X68341401Y-159393253D01*
X68323223Y-159376777D01*
X68306747Y-159358599D01*
X68292132Y-159338893D01*
X68279520Y-159317850D01*
X68269030Y-159295671D01*
X68260765Y-159272572D01*
X68254804Y-159248773D01*
X68251204Y-159224505D01*
X68250000Y-159200001D01*
X68250000Y-158299999D01*
X68251204Y-158275495D01*
X68254804Y-158251227D01*
X68260765Y-158227428D01*
X68269030Y-158204329D01*
X68279520Y-158182150D01*
X68292132Y-158161107D01*
X68306747Y-158141401D01*
X68323223Y-158123223D01*
X68341401Y-158106747D01*
X68361107Y-158092132D01*
X68382150Y-158079520D01*
X68404329Y-158069030D01*
X68427428Y-158060765D01*
X68451227Y-158054804D01*
X68475495Y-158051204D01*
X68499999Y-158050000D01*
X69150001Y-158050000D01*
X69174505Y-158051204D01*
X69174505Y-158051204D01*
G37*
D11*
G04 #@! TD*
G04 #@! TO.P,R31,1*
G04 #@! TO.N,Net-(R31-Pad1)*
X68825000Y-158750000D03*
D10*
G04 #@! TO.N,Net-(LED4-Pad12)*
G04 #@! TO.C,R30*
G36*
X71224505Y-155511204D02*
X71248773Y-155514804D01*
X71272572Y-155520765D01*
X71295671Y-155529030D01*
X71317850Y-155539520D01*
X71338893Y-155552132D01*
X71358599Y-155566747D01*
X71376777Y-155583223D01*
X71393253Y-155601401D01*
X71407868Y-155621107D01*
X71420480Y-155642150D01*
X71430970Y-155664329D01*
X71439235Y-155687428D01*
X71445196Y-155711227D01*
X71448796Y-155735495D01*
X71450000Y-155759999D01*
X71450000Y-156660001D01*
X71448796Y-156684505D01*
X71445196Y-156708773D01*
X71439235Y-156732572D01*
X71430970Y-156755671D01*
X71420480Y-156777850D01*
X71407868Y-156798893D01*
X71393253Y-156818599D01*
X71376777Y-156836777D01*
X71358599Y-156853253D01*
X71338893Y-156867868D01*
X71317850Y-156880480D01*
X71295671Y-156890970D01*
X71272572Y-156899235D01*
X71248773Y-156905196D01*
X71224505Y-156908796D01*
X71200001Y-156910000D01*
X70549999Y-156910000D01*
X70525495Y-156908796D01*
X70501227Y-156905196D01*
X70477428Y-156899235D01*
X70454329Y-156890970D01*
X70432150Y-156880480D01*
X70411107Y-156867868D01*
X70391401Y-156853253D01*
X70373223Y-156836777D01*
X70356747Y-156818599D01*
X70342132Y-156798893D01*
X70329520Y-156777850D01*
X70319030Y-156755671D01*
X70310765Y-156732572D01*
X70304804Y-156708773D01*
X70301204Y-156684505D01*
X70300000Y-156660001D01*
X70300000Y-155759999D01*
X70301204Y-155735495D01*
X70304804Y-155711227D01*
X70310765Y-155687428D01*
X70319030Y-155664329D01*
X70329520Y-155642150D01*
X70342132Y-155621107D01*
X70356747Y-155601401D01*
X70373223Y-155583223D01*
X70391401Y-155566747D01*
X70411107Y-155552132D01*
X70432150Y-155539520D01*
X70454329Y-155529030D01*
X70477428Y-155520765D01*
X70501227Y-155514804D01*
X70525495Y-155511204D01*
X70549999Y-155510000D01*
X71200001Y-155510000D01*
X71224505Y-155511204D01*
X71224505Y-155511204D01*
G37*
D11*
G04 #@! TD*
G04 #@! TO.P,R30,2*
G04 #@! TO.N,Net-(LED4-Pad12)*
X70875000Y-156210000D03*
D10*
G04 #@! TO.N,Net-(R30-Pad1)*
G04 #@! TO.C,R30*
G36*
X69174505Y-155511204D02*
X69198773Y-155514804D01*
X69222572Y-155520765D01*
X69245671Y-155529030D01*
X69267850Y-155539520D01*
X69288893Y-155552132D01*
X69308599Y-155566747D01*
X69326777Y-155583223D01*
X69343253Y-155601401D01*
X69357868Y-155621107D01*
X69370480Y-155642150D01*
X69380970Y-155664329D01*
X69389235Y-155687428D01*
X69395196Y-155711227D01*
X69398796Y-155735495D01*
X69400000Y-155759999D01*
X69400000Y-156660001D01*
X69398796Y-156684505D01*
X69395196Y-156708773D01*
X69389235Y-156732572D01*
X69380970Y-156755671D01*
X69370480Y-156777850D01*
X69357868Y-156798893D01*
X69343253Y-156818599D01*
X69326777Y-156836777D01*
X69308599Y-156853253D01*
X69288893Y-156867868D01*
X69267850Y-156880480D01*
X69245671Y-156890970D01*
X69222572Y-156899235D01*
X69198773Y-156905196D01*
X69174505Y-156908796D01*
X69150001Y-156910000D01*
X68499999Y-156910000D01*
X68475495Y-156908796D01*
X68451227Y-156905196D01*
X68427428Y-156899235D01*
X68404329Y-156890970D01*
X68382150Y-156880480D01*
X68361107Y-156867868D01*
X68341401Y-156853253D01*
X68323223Y-156836777D01*
X68306747Y-156818599D01*
X68292132Y-156798893D01*
X68279520Y-156777850D01*
X68269030Y-156755671D01*
X68260765Y-156732572D01*
X68254804Y-156708773D01*
X68251204Y-156684505D01*
X68250000Y-156660001D01*
X68250000Y-155759999D01*
X68251204Y-155735495D01*
X68254804Y-155711227D01*
X68260765Y-155687428D01*
X68269030Y-155664329D01*
X68279520Y-155642150D01*
X68292132Y-155621107D01*
X68306747Y-155601401D01*
X68323223Y-155583223D01*
X68341401Y-155566747D01*
X68361107Y-155552132D01*
X68382150Y-155539520D01*
X68404329Y-155529030D01*
X68427428Y-155520765D01*
X68451227Y-155514804D01*
X68475495Y-155511204D01*
X68499999Y-155510000D01*
X69150001Y-155510000D01*
X69174505Y-155511204D01*
X69174505Y-155511204D01*
G37*
D11*
G04 #@! TD*
G04 #@! TO.P,R30,1*
G04 #@! TO.N,Net-(R30-Pad1)*
X68825000Y-156210000D03*
D10*
G04 #@! TO.N,Net-(LED4-Pad11)*
G04 #@! TO.C,R29*
G36*
X71224505Y-152971204D02*
X71248773Y-152974804D01*
X71272572Y-152980765D01*
X71295671Y-152989030D01*
X71317850Y-152999520D01*
X71338893Y-153012132D01*
X71358599Y-153026747D01*
X71376777Y-153043223D01*
X71393253Y-153061401D01*
X71407868Y-153081107D01*
X71420480Y-153102150D01*
X71430970Y-153124329D01*
X71439235Y-153147428D01*
X71445196Y-153171227D01*
X71448796Y-153195495D01*
X71450000Y-153219999D01*
X71450000Y-154120001D01*
X71448796Y-154144505D01*
X71445196Y-154168773D01*
X71439235Y-154192572D01*
X71430970Y-154215671D01*
X71420480Y-154237850D01*
X71407868Y-154258893D01*
X71393253Y-154278599D01*
X71376777Y-154296777D01*
X71358599Y-154313253D01*
X71338893Y-154327868D01*
X71317850Y-154340480D01*
X71295671Y-154350970D01*
X71272572Y-154359235D01*
X71248773Y-154365196D01*
X71224505Y-154368796D01*
X71200001Y-154370000D01*
X70549999Y-154370000D01*
X70525495Y-154368796D01*
X70501227Y-154365196D01*
X70477428Y-154359235D01*
X70454329Y-154350970D01*
X70432150Y-154340480D01*
X70411107Y-154327868D01*
X70391401Y-154313253D01*
X70373223Y-154296777D01*
X70356747Y-154278599D01*
X70342132Y-154258893D01*
X70329520Y-154237850D01*
X70319030Y-154215671D01*
X70310765Y-154192572D01*
X70304804Y-154168773D01*
X70301204Y-154144505D01*
X70300000Y-154120001D01*
X70300000Y-153219999D01*
X70301204Y-153195495D01*
X70304804Y-153171227D01*
X70310765Y-153147428D01*
X70319030Y-153124329D01*
X70329520Y-153102150D01*
X70342132Y-153081107D01*
X70356747Y-153061401D01*
X70373223Y-153043223D01*
X70391401Y-153026747D01*
X70411107Y-153012132D01*
X70432150Y-152999520D01*
X70454329Y-152989030D01*
X70477428Y-152980765D01*
X70501227Y-152974804D01*
X70525495Y-152971204D01*
X70549999Y-152970000D01*
X71200001Y-152970000D01*
X71224505Y-152971204D01*
X71224505Y-152971204D01*
G37*
D11*
G04 #@! TD*
G04 #@! TO.P,R29,2*
G04 #@! TO.N,Net-(LED4-Pad11)*
X70875000Y-153670000D03*
D10*
G04 #@! TO.N,Net-(R29-Pad1)*
G04 #@! TO.C,R29*
G36*
X69174505Y-152971204D02*
X69198773Y-152974804D01*
X69222572Y-152980765D01*
X69245671Y-152989030D01*
X69267850Y-152999520D01*
X69288893Y-153012132D01*
X69308599Y-153026747D01*
X69326777Y-153043223D01*
X69343253Y-153061401D01*
X69357868Y-153081107D01*
X69370480Y-153102150D01*
X69380970Y-153124329D01*
X69389235Y-153147428D01*
X69395196Y-153171227D01*
X69398796Y-153195495D01*
X69400000Y-153219999D01*
X69400000Y-154120001D01*
X69398796Y-154144505D01*
X69395196Y-154168773D01*
X69389235Y-154192572D01*
X69380970Y-154215671D01*
X69370480Y-154237850D01*
X69357868Y-154258893D01*
X69343253Y-154278599D01*
X69326777Y-154296777D01*
X69308599Y-154313253D01*
X69288893Y-154327868D01*
X69267850Y-154340480D01*
X69245671Y-154350970D01*
X69222572Y-154359235D01*
X69198773Y-154365196D01*
X69174505Y-154368796D01*
X69150001Y-154370000D01*
X68499999Y-154370000D01*
X68475495Y-154368796D01*
X68451227Y-154365196D01*
X68427428Y-154359235D01*
X68404329Y-154350970D01*
X68382150Y-154340480D01*
X68361107Y-154327868D01*
X68341401Y-154313253D01*
X68323223Y-154296777D01*
X68306747Y-154278599D01*
X68292132Y-154258893D01*
X68279520Y-154237850D01*
X68269030Y-154215671D01*
X68260765Y-154192572D01*
X68254804Y-154168773D01*
X68251204Y-154144505D01*
X68250000Y-154120001D01*
X68250000Y-153219999D01*
X68251204Y-153195495D01*
X68254804Y-153171227D01*
X68260765Y-153147428D01*
X68269030Y-153124329D01*
X68279520Y-153102150D01*
X68292132Y-153081107D01*
X68306747Y-153061401D01*
X68323223Y-153043223D01*
X68341401Y-153026747D01*
X68361107Y-153012132D01*
X68382150Y-152999520D01*
X68404329Y-152989030D01*
X68427428Y-152980765D01*
X68451227Y-152974804D01*
X68475495Y-152971204D01*
X68499999Y-152970000D01*
X69150001Y-152970000D01*
X69174505Y-152971204D01*
X69174505Y-152971204D01*
G37*
D11*
G04 #@! TD*
G04 #@! TO.P,R29,1*
G04 #@! TO.N,Net-(R29-Pad1)*
X68825000Y-153670000D03*
D10*
G04 #@! TO.N,Net-(LED4-Pad6)*
G04 #@! TO.C,R28*
G36*
X71224505Y-150431204D02*
X71248773Y-150434804D01*
X71272572Y-150440765D01*
X71295671Y-150449030D01*
X71317850Y-150459520D01*
X71338893Y-150472132D01*
X71358599Y-150486747D01*
X71376777Y-150503223D01*
X71393253Y-150521401D01*
X71407868Y-150541107D01*
X71420480Y-150562150D01*
X71430970Y-150584329D01*
X71439235Y-150607428D01*
X71445196Y-150631227D01*
X71448796Y-150655495D01*
X71450000Y-150679999D01*
X71450000Y-151580001D01*
X71448796Y-151604505D01*
X71445196Y-151628773D01*
X71439235Y-151652572D01*
X71430970Y-151675671D01*
X71420480Y-151697850D01*
X71407868Y-151718893D01*
X71393253Y-151738599D01*
X71376777Y-151756777D01*
X71358599Y-151773253D01*
X71338893Y-151787868D01*
X71317850Y-151800480D01*
X71295671Y-151810970D01*
X71272572Y-151819235D01*
X71248773Y-151825196D01*
X71224505Y-151828796D01*
X71200001Y-151830000D01*
X70549999Y-151830000D01*
X70525495Y-151828796D01*
X70501227Y-151825196D01*
X70477428Y-151819235D01*
X70454329Y-151810970D01*
X70432150Y-151800480D01*
X70411107Y-151787868D01*
X70391401Y-151773253D01*
X70373223Y-151756777D01*
X70356747Y-151738599D01*
X70342132Y-151718893D01*
X70329520Y-151697850D01*
X70319030Y-151675671D01*
X70310765Y-151652572D01*
X70304804Y-151628773D01*
X70301204Y-151604505D01*
X70300000Y-151580001D01*
X70300000Y-150679999D01*
X70301204Y-150655495D01*
X70304804Y-150631227D01*
X70310765Y-150607428D01*
X70319030Y-150584329D01*
X70329520Y-150562150D01*
X70342132Y-150541107D01*
X70356747Y-150521401D01*
X70373223Y-150503223D01*
X70391401Y-150486747D01*
X70411107Y-150472132D01*
X70432150Y-150459520D01*
X70454329Y-150449030D01*
X70477428Y-150440765D01*
X70501227Y-150434804D01*
X70525495Y-150431204D01*
X70549999Y-150430000D01*
X71200001Y-150430000D01*
X71224505Y-150431204D01*
X71224505Y-150431204D01*
G37*
D11*
G04 #@! TD*
G04 #@! TO.P,R28,2*
G04 #@! TO.N,Net-(LED4-Pad6)*
X70875000Y-151130000D03*
D10*
G04 #@! TO.N,Net-(R28-Pad1)*
G04 #@! TO.C,R28*
G36*
X69174505Y-150431204D02*
X69198773Y-150434804D01*
X69222572Y-150440765D01*
X69245671Y-150449030D01*
X69267850Y-150459520D01*
X69288893Y-150472132D01*
X69308599Y-150486747D01*
X69326777Y-150503223D01*
X69343253Y-150521401D01*
X69357868Y-150541107D01*
X69370480Y-150562150D01*
X69380970Y-150584329D01*
X69389235Y-150607428D01*
X69395196Y-150631227D01*
X69398796Y-150655495D01*
X69400000Y-150679999D01*
X69400000Y-151580001D01*
X69398796Y-151604505D01*
X69395196Y-151628773D01*
X69389235Y-151652572D01*
X69380970Y-151675671D01*
X69370480Y-151697850D01*
X69357868Y-151718893D01*
X69343253Y-151738599D01*
X69326777Y-151756777D01*
X69308599Y-151773253D01*
X69288893Y-151787868D01*
X69267850Y-151800480D01*
X69245671Y-151810970D01*
X69222572Y-151819235D01*
X69198773Y-151825196D01*
X69174505Y-151828796D01*
X69150001Y-151830000D01*
X68499999Y-151830000D01*
X68475495Y-151828796D01*
X68451227Y-151825196D01*
X68427428Y-151819235D01*
X68404329Y-151810970D01*
X68382150Y-151800480D01*
X68361107Y-151787868D01*
X68341401Y-151773253D01*
X68323223Y-151756777D01*
X68306747Y-151738599D01*
X68292132Y-151718893D01*
X68279520Y-151697850D01*
X68269030Y-151675671D01*
X68260765Y-151652572D01*
X68254804Y-151628773D01*
X68251204Y-151604505D01*
X68250000Y-151580001D01*
X68250000Y-150679999D01*
X68251204Y-150655495D01*
X68254804Y-150631227D01*
X68260765Y-150607428D01*
X68269030Y-150584329D01*
X68279520Y-150562150D01*
X68292132Y-150541107D01*
X68306747Y-150521401D01*
X68323223Y-150503223D01*
X68341401Y-150486747D01*
X68361107Y-150472132D01*
X68382150Y-150459520D01*
X68404329Y-150449030D01*
X68427428Y-150440765D01*
X68451227Y-150434804D01*
X68475495Y-150431204D01*
X68499999Y-150430000D01*
X69150001Y-150430000D01*
X69174505Y-150431204D01*
X69174505Y-150431204D01*
G37*
D11*
G04 #@! TD*
G04 #@! TO.P,R28,1*
G04 #@! TO.N,Net-(R28-Pad1)*
X68825000Y-151130000D03*
D10*
G04 #@! TO.N,Net-(LED4-Pad5)*
G04 #@! TO.C,R27*
G36*
X71224505Y-147891204D02*
X71248773Y-147894804D01*
X71272572Y-147900765D01*
X71295671Y-147909030D01*
X71317850Y-147919520D01*
X71338893Y-147932132D01*
X71358599Y-147946747D01*
X71376777Y-147963223D01*
X71393253Y-147981401D01*
X71407868Y-148001107D01*
X71420480Y-148022150D01*
X71430970Y-148044329D01*
X71439235Y-148067428D01*
X71445196Y-148091227D01*
X71448796Y-148115495D01*
X71450000Y-148139999D01*
X71450000Y-149040001D01*
X71448796Y-149064505D01*
X71445196Y-149088773D01*
X71439235Y-149112572D01*
X71430970Y-149135671D01*
X71420480Y-149157850D01*
X71407868Y-149178893D01*
X71393253Y-149198599D01*
X71376777Y-149216777D01*
X71358599Y-149233253D01*
X71338893Y-149247868D01*
X71317850Y-149260480D01*
X71295671Y-149270970D01*
X71272572Y-149279235D01*
X71248773Y-149285196D01*
X71224505Y-149288796D01*
X71200001Y-149290000D01*
X70549999Y-149290000D01*
X70525495Y-149288796D01*
X70501227Y-149285196D01*
X70477428Y-149279235D01*
X70454329Y-149270970D01*
X70432150Y-149260480D01*
X70411107Y-149247868D01*
X70391401Y-149233253D01*
X70373223Y-149216777D01*
X70356747Y-149198599D01*
X70342132Y-149178893D01*
X70329520Y-149157850D01*
X70319030Y-149135671D01*
X70310765Y-149112572D01*
X70304804Y-149088773D01*
X70301204Y-149064505D01*
X70300000Y-149040001D01*
X70300000Y-148139999D01*
X70301204Y-148115495D01*
X70304804Y-148091227D01*
X70310765Y-148067428D01*
X70319030Y-148044329D01*
X70329520Y-148022150D01*
X70342132Y-148001107D01*
X70356747Y-147981401D01*
X70373223Y-147963223D01*
X70391401Y-147946747D01*
X70411107Y-147932132D01*
X70432150Y-147919520D01*
X70454329Y-147909030D01*
X70477428Y-147900765D01*
X70501227Y-147894804D01*
X70525495Y-147891204D01*
X70549999Y-147890000D01*
X71200001Y-147890000D01*
X71224505Y-147891204D01*
X71224505Y-147891204D01*
G37*
D11*
G04 #@! TD*
G04 #@! TO.P,R27,2*
G04 #@! TO.N,Net-(LED4-Pad5)*
X70875000Y-148590000D03*
D10*
G04 #@! TO.N,Net-(R27-Pad1)*
G04 #@! TO.C,R27*
G36*
X69174505Y-147891204D02*
X69198773Y-147894804D01*
X69222572Y-147900765D01*
X69245671Y-147909030D01*
X69267850Y-147919520D01*
X69288893Y-147932132D01*
X69308599Y-147946747D01*
X69326777Y-147963223D01*
X69343253Y-147981401D01*
X69357868Y-148001107D01*
X69370480Y-148022150D01*
X69380970Y-148044329D01*
X69389235Y-148067428D01*
X69395196Y-148091227D01*
X69398796Y-148115495D01*
X69400000Y-148139999D01*
X69400000Y-149040001D01*
X69398796Y-149064505D01*
X69395196Y-149088773D01*
X69389235Y-149112572D01*
X69380970Y-149135671D01*
X69370480Y-149157850D01*
X69357868Y-149178893D01*
X69343253Y-149198599D01*
X69326777Y-149216777D01*
X69308599Y-149233253D01*
X69288893Y-149247868D01*
X69267850Y-149260480D01*
X69245671Y-149270970D01*
X69222572Y-149279235D01*
X69198773Y-149285196D01*
X69174505Y-149288796D01*
X69150001Y-149290000D01*
X68499999Y-149290000D01*
X68475495Y-149288796D01*
X68451227Y-149285196D01*
X68427428Y-149279235D01*
X68404329Y-149270970D01*
X68382150Y-149260480D01*
X68361107Y-149247868D01*
X68341401Y-149233253D01*
X68323223Y-149216777D01*
X68306747Y-149198599D01*
X68292132Y-149178893D01*
X68279520Y-149157850D01*
X68269030Y-149135671D01*
X68260765Y-149112572D01*
X68254804Y-149088773D01*
X68251204Y-149064505D01*
X68250000Y-149040001D01*
X68250000Y-148139999D01*
X68251204Y-148115495D01*
X68254804Y-148091227D01*
X68260765Y-148067428D01*
X68269030Y-148044329D01*
X68279520Y-148022150D01*
X68292132Y-148001107D01*
X68306747Y-147981401D01*
X68323223Y-147963223D01*
X68341401Y-147946747D01*
X68361107Y-147932132D01*
X68382150Y-147919520D01*
X68404329Y-147909030D01*
X68427428Y-147900765D01*
X68451227Y-147894804D01*
X68475495Y-147891204D01*
X68499999Y-147890000D01*
X69150001Y-147890000D01*
X69174505Y-147891204D01*
X69174505Y-147891204D01*
G37*
D11*
G04 #@! TD*
G04 #@! TO.P,R27,1*
G04 #@! TO.N,Net-(R27-Pad1)*
X68825000Y-148590000D03*
D10*
G04 #@! TO.N,Net-(LED4-Pad4)*
G04 #@! TO.C,R26*
G36*
X71224505Y-145351204D02*
X71248773Y-145354804D01*
X71272572Y-145360765D01*
X71295671Y-145369030D01*
X71317850Y-145379520D01*
X71338893Y-145392132D01*
X71358599Y-145406747D01*
X71376777Y-145423223D01*
X71393253Y-145441401D01*
X71407868Y-145461107D01*
X71420480Y-145482150D01*
X71430970Y-145504329D01*
X71439235Y-145527428D01*
X71445196Y-145551227D01*
X71448796Y-145575495D01*
X71450000Y-145599999D01*
X71450000Y-146500001D01*
X71448796Y-146524505D01*
X71445196Y-146548773D01*
X71439235Y-146572572D01*
X71430970Y-146595671D01*
X71420480Y-146617850D01*
X71407868Y-146638893D01*
X71393253Y-146658599D01*
X71376777Y-146676777D01*
X71358599Y-146693253D01*
X71338893Y-146707868D01*
X71317850Y-146720480D01*
X71295671Y-146730970D01*
X71272572Y-146739235D01*
X71248773Y-146745196D01*
X71224505Y-146748796D01*
X71200001Y-146750000D01*
X70549999Y-146750000D01*
X70525495Y-146748796D01*
X70501227Y-146745196D01*
X70477428Y-146739235D01*
X70454329Y-146730970D01*
X70432150Y-146720480D01*
X70411107Y-146707868D01*
X70391401Y-146693253D01*
X70373223Y-146676777D01*
X70356747Y-146658599D01*
X70342132Y-146638893D01*
X70329520Y-146617850D01*
X70319030Y-146595671D01*
X70310765Y-146572572D01*
X70304804Y-146548773D01*
X70301204Y-146524505D01*
X70300000Y-146500001D01*
X70300000Y-145599999D01*
X70301204Y-145575495D01*
X70304804Y-145551227D01*
X70310765Y-145527428D01*
X70319030Y-145504329D01*
X70329520Y-145482150D01*
X70342132Y-145461107D01*
X70356747Y-145441401D01*
X70373223Y-145423223D01*
X70391401Y-145406747D01*
X70411107Y-145392132D01*
X70432150Y-145379520D01*
X70454329Y-145369030D01*
X70477428Y-145360765D01*
X70501227Y-145354804D01*
X70525495Y-145351204D01*
X70549999Y-145350000D01*
X71200001Y-145350000D01*
X71224505Y-145351204D01*
X71224505Y-145351204D01*
G37*
D11*
G04 #@! TD*
G04 #@! TO.P,R26,2*
G04 #@! TO.N,Net-(LED4-Pad4)*
X70875000Y-146050000D03*
D10*
G04 #@! TO.N,Net-(R26-Pad1)*
G04 #@! TO.C,R26*
G36*
X69174505Y-145351204D02*
X69198773Y-145354804D01*
X69222572Y-145360765D01*
X69245671Y-145369030D01*
X69267850Y-145379520D01*
X69288893Y-145392132D01*
X69308599Y-145406747D01*
X69326777Y-145423223D01*
X69343253Y-145441401D01*
X69357868Y-145461107D01*
X69370480Y-145482150D01*
X69380970Y-145504329D01*
X69389235Y-145527428D01*
X69395196Y-145551227D01*
X69398796Y-145575495D01*
X69400000Y-145599999D01*
X69400000Y-146500001D01*
X69398796Y-146524505D01*
X69395196Y-146548773D01*
X69389235Y-146572572D01*
X69380970Y-146595671D01*
X69370480Y-146617850D01*
X69357868Y-146638893D01*
X69343253Y-146658599D01*
X69326777Y-146676777D01*
X69308599Y-146693253D01*
X69288893Y-146707868D01*
X69267850Y-146720480D01*
X69245671Y-146730970D01*
X69222572Y-146739235D01*
X69198773Y-146745196D01*
X69174505Y-146748796D01*
X69150001Y-146750000D01*
X68499999Y-146750000D01*
X68475495Y-146748796D01*
X68451227Y-146745196D01*
X68427428Y-146739235D01*
X68404329Y-146730970D01*
X68382150Y-146720480D01*
X68361107Y-146707868D01*
X68341401Y-146693253D01*
X68323223Y-146676777D01*
X68306747Y-146658599D01*
X68292132Y-146638893D01*
X68279520Y-146617850D01*
X68269030Y-146595671D01*
X68260765Y-146572572D01*
X68254804Y-146548773D01*
X68251204Y-146524505D01*
X68250000Y-146500001D01*
X68250000Y-145599999D01*
X68251204Y-145575495D01*
X68254804Y-145551227D01*
X68260765Y-145527428D01*
X68269030Y-145504329D01*
X68279520Y-145482150D01*
X68292132Y-145461107D01*
X68306747Y-145441401D01*
X68323223Y-145423223D01*
X68341401Y-145406747D01*
X68361107Y-145392132D01*
X68382150Y-145379520D01*
X68404329Y-145369030D01*
X68427428Y-145360765D01*
X68451227Y-145354804D01*
X68475495Y-145351204D01*
X68499999Y-145350000D01*
X69150001Y-145350000D01*
X69174505Y-145351204D01*
X69174505Y-145351204D01*
G37*
D11*
G04 #@! TD*
G04 #@! TO.P,R26,1*
G04 #@! TO.N,Net-(R26-Pad1)*
X68825000Y-146050000D03*
D10*
G04 #@! TO.N,Net-(LED2-Pad11)*
G04 #@! TO.C,R13*
G36*
X71224505Y-109791204D02*
X71248773Y-109794804D01*
X71272572Y-109800765D01*
X71295671Y-109809030D01*
X71317850Y-109819520D01*
X71338893Y-109832132D01*
X71358599Y-109846747D01*
X71376777Y-109863223D01*
X71393253Y-109881401D01*
X71407868Y-109901107D01*
X71420480Y-109922150D01*
X71430970Y-109944329D01*
X71439235Y-109967428D01*
X71445196Y-109991227D01*
X71448796Y-110015495D01*
X71450000Y-110039999D01*
X71450000Y-110940001D01*
X71448796Y-110964505D01*
X71445196Y-110988773D01*
X71439235Y-111012572D01*
X71430970Y-111035671D01*
X71420480Y-111057850D01*
X71407868Y-111078893D01*
X71393253Y-111098599D01*
X71376777Y-111116777D01*
X71358599Y-111133253D01*
X71338893Y-111147868D01*
X71317850Y-111160480D01*
X71295671Y-111170970D01*
X71272572Y-111179235D01*
X71248773Y-111185196D01*
X71224505Y-111188796D01*
X71200001Y-111190000D01*
X70549999Y-111190000D01*
X70525495Y-111188796D01*
X70501227Y-111185196D01*
X70477428Y-111179235D01*
X70454329Y-111170970D01*
X70432150Y-111160480D01*
X70411107Y-111147868D01*
X70391401Y-111133253D01*
X70373223Y-111116777D01*
X70356747Y-111098599D01*
X70342132Y-111078893D01*
X70329520Y-111057850D01*
X70319030Y-111035671D01*
X70310765Y-111012572D01*
X70304804Y-110988773D01*
X70301204Y-110964505D01*
X70300000Y-110940001D01*
X70300000Y-110039999D01*
X70301204Y-110015495D01*
X70304804Y-109991227D01*
X70310765Y-109967428D01*
X70319030Y-109944329D01*
X70329520Y-109922150D01*
X70342132Y-109901107D01*
X70356747Y-109881401D01*
X70373223Y-109863223D01*
X70391401Y-109846747D01*
X70411107Y-109832132D01*
X70432150Y-109819520D01*
X70454329Y-109809030D01*
X70477428Y-109800765D01*
X70501227Y-109794804D01*
X70525495Y-109791204D01*
X70549999Y-109790000D01*
X71200001Y-109790000D01*
X71224505Y-109791204D01*
X71224505Y-109791204D01*
G37*
D11*
G04 #@! TD*
G04 #@! TO.P,R13,2*
G04 #@! TO.N,Net-(LED2-Pad11)*
X70875000Y-110490000D03*
D10*
G04 #@! TO.N,Net-(R13-Pad1)*
G04 #@! TO.C,R13*
G36*
X69174505Y-109791204D02*
X69198773Y-109794804D01*
X69222572Y-109800765D01*
X69245671Y-109809030D01*
X69267850Y-109819520D01*
X69288893Y-109832132D01*
X69308599Y-109846747D01*
X69326777Y-109863223D01*
X69343253Y-109881401D01*
X69357868Y-109901107D01*
X69370480Y-109922150D01*
X69380970Y-109944329D01*
X69389235Y-109967428D01*
X69395196Y-109991227D01*
X69398796Y-110015495D01*
X69400000Y-110039999D01*
X69400000Y-110940001D01*
X69398796Y-110964505D01*
X69395196Y-110988773D01*
X69389235Y-111012572D01*
X69380970Y-111035671D01*
X69370480Y-111057850D01*
X69357868Y-111078893D01*
X69343253Y-111098599D01*
X69326777Y-111116777D01*
X69308599Y-111133253D01*
X69288893Y-111147868D01*
X69267850Y-111160480D01*
X69245671Y-111170970D01*
X69222572Y-111179235D01*
X69198773Y-111185196D01*
X69174505Y-111188796D01*
X69150001Y-111190000D01*
X68499999Y-111190000D01*
X68475495Y-111188796D01*
X68451227Y-111185196D01*
X68427428Y-111179235D01*
X68404329Y-111170970D01*
X68382150Y-111160480D01*
X68361107Y-111147868D01*
X68341401Y-111133253D01*
X68323223Y-111116777D01*
X68306747Y-111098599D01*
X68292132Y-111078893D01*
X68279520Y-111057850D01*
X68269030Y-111035671D01*
X68260765Y-111012572D01*
X68254804Y-110988773D01*
X68251204Y-110964505D01*
X68250000Y-110940001D01*
X68250000Y-110039999D01*
X68251204Y-110015495D01*
X68254804Y-109991227D01*
X68260765Y-109967428D01*
X68269030Y-109944329D01*
X68279520Y-109922150D01*
X68292132Y-109901107D01*
X68306747Y-109881401D01*
X68323223Y-109863223D01*
X68341401Y-109846747D01*
X68361107Y-109832132D01*
X68382150Y-109819520D01*
X68404329Y-109809030D01*
X68427428Y-109800765D01*
X68451227Y-109794804D01*
X68475495Y-109791204D01*
X68499999Y-109790000D01*
X69150001Y-109790000D01*
X69174505Y-109791204D01*
X69174505Y-109791204D01*
G37*
D11*
G04 #@! TD*
G04 #@! TO.P,R13,1*
G04 #@! TO.N,Net-(R13-Pad1)*
X68825000Y-110490000D03*
D10*
G04 #@! TO.N,Net-(LED3-Pad14)*
G04 #@! TO.C,R24*
G36*
X71224505Y-139001204D02*
X71248773Y-139004804D01*
X71272572Y-139010765D01*
X71295671Y-139019030D01*
X71317850Y-139029520D01*
X71338893Y-139042132D01*
X71358599Y-139056747D01*
X71376777Y-139073223D01*
X71393253Y-139091401D01*
X71407868Y-139111107D01*
X71420480Y-139132150D01*
X71430970Y-139154329D01*
X71439235Y-139177428D01*
X71445196Y-139201227D01*
X71448796Y-139225495D01*
X71450000Y-139249999D01*
X71450000Y-140150001D01*
X71448796Y-140174505D01*
X71445196Y-140198773D01*
X71439235Y-140222572D01*
X71430970Y-140245671D01*
X71420480Y-140267850D01*
X71407868Y-140288893D01*
X71393253Y-140308599D01*
X71376777Y-140326777D01*
X71358599Y-140343253D01*
X71338893Y-140357868D01*
X71317850Y-140370480D01*
X71295671Y-140380970D01*
X71272572Y-140389235D01*
X71248773Y-140395196D01*
X71224505Y-140398796D01*
X71200001Y-140400000D01*
X70549999Y-140400000D01*
X70525495Y-140398796D01*
X70501227Y-140395196D01*
X70477428Y-140389235D01*
X70454329Y-140380970D01*
X70432150Y-140370480D01*
X70411107Y-140357868D01*
X70391401Y-140343253D01*
X70373223Y-140326777D01*
X70356747Y-140308599D01*
X70342132Y-140288893D01*
X70329520Y-140267850D01*
X70319030Y-140245671D01*
X70310765Y-140222572D01*
X70304804Y-140198773D01*
X70301204Y-140174505D01*
X70300000Y-140150001D01*
X70300000Y-139249999D01*
X70301204Y-139225495D01*
X70304804Y-139201227D01*
X70310765Y-139177428D01*
X70319030Y-139154329D01*
X70329520Y-139132150D01*
X70342132Y-139111107D01*
X70356747Y-139091401D01*
X70373223Y-139073223D01*
X70391401Y-139056747D01*
X70411107Y-139042132D01*
X70432150Y-139029520D01*
X70454329Y-139019030D01*
X70477428Y-139010765D01*
X70501227Y-139004804D01*
X70525495Y-139001204D01*
X70549999Y-139000000D01*
X71200001Y-139000000D01*
X71224505Y-139001204D01*
X71224505Y-139001204D01*
G37*
D11*
G04 #@! TD*
G04 #@! TO.P,R24,2*
G04 #@! TO.N,Net-(LED3-Pad14)*
X70875000Y-139700000D03*
D10*
G04 #@! TO.N,Net-(R24-Pad1)*
G04 #@! TO.C,R24*
G36*
X69174505Y-139001204D02*
X69198773Y-139004804D01*
X69222572Y-139010765D01*
X69245671Y-139019030D01*
X69267850Y-139029520D01*
X69288893Y-139042132D01*
X69308599Y-139056747D01*
X69326777Y-139073223D01*
X69343253Y-139091401D01*
X69357868Y-139111107D01*
X69370480Y-139132150D01*
X69380970Y-139154329D01*
X69389235Y-139177428D01*
X69395196Y-139201227D01*
X69398796Y-139225495D01*
X69400000Y-139249999D01*
X69400000Y-140150001D01*
X69398796Y-140174505D01*
X69395196Y-140198773D01*
X69389235Y-140222572D01*
X69380970Y-140245671D01*
X69370480Y-140267850D01*
X69357868Y-140288893D01*
X69343253Y-140308599D01*
X69326777Y-140326777D01*
X69308599Y-140343253D01*
X69288893Y-140357868D01*
X69267850Y-140370480D01*
X69245671Y-140380970D01*
X69222572Y-140389235D01*
X69198773Y-140395196D01*
X69174505Y-140398796D01*
X69150001Y-140400000D01*
X68499999Y-140400000D01*
X68475495Y-140398796D01*
X68451227Y-140395196D01*
X68427428Y-140389235D01*
X68404329Y-140380970D01*
X68382150Y-140370480D01*
X68361107Y-140357868D01*
X68341401Y-140343253D01*
X68323223Y-140326777D01*
X68306747Y-140308599D01*
X68292132Y-140288893D01*
X68279520Y-140267850D01*
X68269030Y-140245671D01*
X68260765Y-140222572D01*
X68254804Y-140198773D01*
X68251204Y-140174505D01*
X68250000Y-140150001D01*
X68250000Y-139249999D01*
X68251204Y-139225495D01*
X68254804Y-139201227D01*
X68260765Y-139177428D01*
X68269030Y-139154329D01*
X68279520Y-139132150D01*
X68292132Y-139111107D01*
X68306747Y-139091401D01*
X68323223Y-139073223D01*
X68341401Y-139056747D01*
X68361107Y-139042132D01*
X68382150Y-139029520D01*
X68404329Y-139019030D01*
X68427428Y-139010765D01*
X68451227Y-139004804D01*
X68475495Y-139001204D01*
X68499999Y-139000000D01*
X69150001Y-139000000D01*
X69174505Y-139001204D01*
X69174505Y-139001204D01*
G37*
D11*
G04 #@! TD*
G04 #@! TO.P,R24,1*
G04 #@! TO.N,Net-(R24-Pad1)*
X68825000Y-139700000D03*
D10*
G04 #@! TO.N,Net-(LED3-Pad12)*
G04 #@! TO.C,R22*
G36*
X71224505Y-133921204D02*
X71248773Y-133924804D01*
X71272572Y-133930765D01*
X71295671Y-133939030D01*
X71317850Y-133949520D01*
X71338893Y-133962132D01*
X71358599Y-133976747D01*
X71376777Y-133993223D01*
X71393253Y-134011401D01*
X71407868Y-134031107D01*
X71420480Y-134052150D01*
X71430970Y-134074329D01*
X71439235Y-134097428D01*
X71445196Y-134121227D01*
X71448796Y-134145495D01*
X71450000Y-134169999D01*
X71450000Y-135070001D01*
X71448796Y-135094505D01*
X71445196Y-135118773D01*
X71439235Y-135142572D01*
X71430970Y-135165671D01*
X71420480Y-135187850D01*
X71407868Y-135208893D01*
X71393253Y-135228599D01*
X71376777Y-135246777D01*
X71358599Y-135263253D01*
X71338893Y-135277868D01*
X71317850Y-135290480D01*
X71295671Y-135300970D01*
X71272572Y-135309235D01*
X71248773Y-135315196D01*
X71224505Y-135318796D01*
X71200001Y-135320000D01*
X70549999Y-135320000D01*
X70525495Y-135318796D01*
X70501227Y-135315196D01*
X70477428Y-135309235D01*
X70454329Y-135300970D01*
X70432150Y-135290480D01*
X70411107Y-135277868D01*
X70391401Y-135263253D01*
X70373223Y-135246777D01*
X70356747Y-135228599D01*
X70342132Y-135208893D01*
X70329520Y-135187850D01*
X70319030Y-135165671D01*
X70310765Y-135142572D01*
X70304804Y-135118773D01*
X70301204Y-135094505D01*
X70300000Y-135070001D01*
X70300000Y-134169999D01*
X70301204Y-134145495D01*
X70304804Y-134121227D01*
X70310765Y-134097428D01*
X70319030Y-134074329D01*
X70329520Y-134052150D01*
X70342132Y-134031107D01*
X70356747Y-134011401D01*
X70373223Y-133993223D01*
X70391401Y-133976747D01*
X70411107Y-133962132D01*
X70432150Y-133949520D01*
X70454329Y-133939030D01*
X70477428Y-133930765D01*
X70501227Y-133924804D01*
X70525495Y-133921204D01*
X70549999Y-133920000D01*
X71200001Y-133920000D01*
X71224505Y-133921204D01*
X71224505Y-133921204D01*
G37*
D11*
G04 #@! TD*
G04 #@! TO.P,R22,2*
G04 #@! TO.N,Net-(LED3-Pad12)*
X70875000Y-134620000D03*
D10*
G04 #@! TO.N,Net-(R22-Pad1)*
G04 #@! TO.C,R22*
G36*
X69174505Y-133921204D02*
X69198773Y-133924804D01*
X69222572Y-133930765D01*
X69245671Y-133939030D01*
X69267850Y-133949520D01*
X69288893Y-133962132D01*
X69308599Y-133976747D01*
X69326777Y-133993223D01*
X69343253Y-134011401D01*
X69357868Y-134031107D01*
X69370480Y-134052150D01*
X69380970Y-134074329D01*
X69389235Y-134097428D01*
X69395196Y-134121227D01*
X69398796Y-134145495D01*
X69400000Y-134169999D01*
X69400000Y-135070001D01*
X69398796Y-135094505D01*
X69395196Y-135118773D01*
X69389235Y-135142572D01*
X69380970Y-135165671D01*
X69370480Y-135187850D01*
X69357868Y-135208893D01*
X69343253Y-135228599D01*
X69326777Y-135246777D01*
X69308599Y-135263253D01*
X69288893Y-135277868D01*
X69267850Y-135290480D01*
X69245671Y-135300970D01*
X69222572Y-135309235D01*
X69198773Y-135315196D01*
X69174505Y-135318796D01*
X69150001Y-135320000D01*
X68499999Y-135320000D01*
X68475495Y-135318796D01*
X68451227Y-135315196D01*
X68427428Y-135309235D01*
X68404329Y-135300970D01*
X68382150Y-135290480D01*
X68361107Y-135277868D01*
X68341401Y-135263253D01*
X68323223Y-135246777D01*
X68306747Y-135228599D01*
X68292132Y-135208893D01*
X68279520Y-135187850D01*
X68269030Y-135165671D01*
X68260765Y-135142572D01*
X68254804Y-135118773D01*
X68251204Y-135094505D01*
X68250000Y-135070001D01*
X68250000Y-134169999D01*
X68251204Y-134145495D01*
X68254804Y-134121227D01*
X68260765Y-134097428D01*
X68269030Y-134074329D01*
X68279520Y-134052150D01*
X68292132Y-134031107D01*
X68306747Y-134011401D01*
X68323223Y-133993223D01*
X68341401Y-133976747D01*
X68361107Y-133962132D01*
X68382150Y-133949520D01*
X68404329Y-133939030D01*
X68427428Y-133930765D01*
X68451227Y-133924804D01*
X68475495Y-133921204D01*
X68499999Y-133920000D01*
X69150001Y-133920000D01*
X69174505Y-133921204D01*
X69174505Y-133921204D01*
G37*
D11*
G04 #@! TD*
G04 #@! TO.P,R22,1*
G04 #@! TO.N,Net-(R22-Pad1)*
X68825000Y-134620000D03*
D10*
G04 #@! TO.N,Net-(LED3-Pad11)*
G04 #@! TO.C,R21*
G36*
X71224505Y-131381204D02*
X71248773Y-131384804D01*
X71272572Y-131390765D01*
X71295671Y-131399030D01*
X71317850Y-131409520D01*
X71338893Y-131422132D01*
X71358599Y-131436747D01*
X71376777Y-131453223D01*
X71393253Y-131471401D01*
X71407868Y-131491107D01*
X71420480Y-131512150D01*
X71430970Y-131534329D01*
X71439235Y-131557428D01*
X71445196Y-131581227D01*
X71448796Y-131605495D01*
X71450000Y-131629999D01*
X71450000Y-132530001D01*
X71448796Y-132554505D01*
X71445196Y-132578773D01*
X71439235Y-132602572D01*
X71430970Y-132625671D01*
X71420480Y-132647850D01*
X71407868Y-132668893D01*
X71393253Y-132688599D01*
X71376777Y-132706777D01*
X71358599Y-132723253D01*
X71338893Y-132737868D01*
X71317850Y-132750480D01*
X71295671Y-132760970D01*
X71272572Y-132769235D01*
X71248773Y-132775196D01*
X71224505Y-132778796D01*
X71200001Y-132780000D01*
X70549999Y-132780000D01*
X70525495Y-132778796D01*
X70501227Y-132775196D01*
X70477428Y-132769235D01*
X70454329Y-132760970D01*
X70432150Y-132750480D01*
X70411107Y-132737868D01*
X70391401Y-132723253D01*
X70373223Y-132706777D01*
X70356747Y-132688599D01*
X70342132Y-132668893D01*
X70329520Y-132647850D01*
X70319030Y-132625671D01*
X70310765Y-132602572D01*
X70304804Y-132578773D01*
X70301204Y-132554505D01*
X70300000Y-132530001D01*
X70300000Y-131629999D01*
X70301204Y-131605495D01*
X70304804Y-131581227D01*
X70310765Y-131557428D01*
X70319030Y-131534329D01*
X70329520Y-131512150D01*
X70342132Y-131491107D01*
X70356747Y-131471401D01*
X70373223Y-131453223D01*
X70391401Y-131436747D01*
X70411107Y-131422132D01*
X70432150Y-131409520D01*
X70454329Y-131399030D01*
X70477428Y-131390765D01*
X70501227Y-131384804D01*
X70525495Y-131381204D01*
X70549999Y-131380000D01*
X71200001Y-131380000D01*
X71224505Y-131381204D01*
X71224505Y-131381204D01*
G37*
D11*
G04 #@! TD*
G04 #@! TO.P,R21,2*
G04 #@! TO.N,Net-(LED3-Pad11)*
X70875000Y-132080000D03*
D10*
G04 #@! TO.N,Net-(R21-Pad1)*
G04 #@! TO.C,R21*
G36*
X69174505Y-131381204D02*
X69198773Y-131384804D01*
X69222572Y-131390765D01*
X69245671Y-131399030D01*
X69267850Y-131409520D01*
X69288893Y-131422132D01*
X69308599Y-131436747D01*
X69326777Y-131453223D01*
X69343253Y-131471401D01*
X69357868Y-131491107D01*
X69370480Y-131512150D01*
X69380970Y-131534329D01*
X69389235Y-131557428D01*
X69395196Y-131581227D01*
X69398796Y-131605495D01*
X69400000Y-131629999D01*
X69400000Y-132530001D01*
X69398796Y-132554505D01*
X69395196Y-132578773D01*
X69389235Y-132602572D01*
X69380970Y-132625671D01*
X69370480Y-132647850D01*
X69357868Y-132668893D01*
X69343253Y-132688599D01*
X69326777Y-132706777D01*
X69308599Y-132723253D01*
X69288893Y-132737868D01*
X69267850Y-132750480D01*
X69245671Y-132760970D01*
X69222572Y-132769235D01*
X69198773Y-132775196D01*
X69174505Y-132778796D01*
X69150001Y-132780000D01*
X68499999Y-132780000D01*
X68475495Y-132778796D01*
X68451227Y-132775196D01*
X68427428Y-132769235D01*
X68404329Y-132760970D01*
X68382150Y-132750480D01*
X68361107Y-132737868D01*
X68341401Y-132723253D01*
X68323223Y-132706777D01*
X68306747Y-132688599D01*
X68292132Y-132668893D01*
X68279520Y-132647850D01*
X68269030Y-132625671D01*
X68260765Y-132602572D01*
X68254804Y-132578773D01*
X68251204Y-132554505D01*
X68250000Y-132530001D01*
X68250000Y-131629999D01*
X68251204Y-131605495D01*
X68254804Y-131581227D01*
X68260765Y-131557428D01*
X68269030Y-131534329D01*
X68279520Y-131512150D01*
X68292132Y-131491107D01*
X68306747Y-131471401D01*
X68323223Y-131453223D01*
X68341401Y-131436747D01*
X68361107Y-131422132D01*
X68382150Y-131409520D01*
X68404329Y-131399030D01*
X68427428Y-131390765D01*
X68451227Y-131384804D01*
X68475495Y-131381204D01*
X68499999Y-131380000D01*
X69150001Y-131380000D01*
X69174505Y-131381204D01*
X69174505Y-131381204D01*
G37*
D11*
G04 #@! TD*
G04 #@! TO.P,R21,1*
G04 #@! TO.N,Net-(R21-Pad1)*
X68825000Y-132080000D03*
D10*
G04 #@! TO.N,Net-(LED3-Pad6)*
G04 #@! TO.C,R20*
G36*
X71224505Y-128841204D02*
X71248773Y-128844804D01*
X71272572Y-128850765D01*
X71295671Y-128859030D01*
X71317850Y-128869520D01*
X71338893Y-128882132D01*
X71358599Y-128896747D01*
X71376777Y-128913223D01*
X71393253Y-128931401D01*
X71407868Y-128951107D01*
X71420480Y-128972150D01*
X71430970Y-128994329D01*
X71439235Y-129017428D01*
X71445196Y-129041227D01*
X71448796Y-129065495D01*
X71450000Y-129089999D01*
X71450000Y-129990001D01*
X71448796Y-130014505D01*
X71445196Y-130038773D01*
X71439235Y-130062572D01*
X71430970Y-130085671D01*
X71420480Y-130107850D01*
X71407868Y-130128893D01*
X71393253Y-130148599D01*
X71376777Y-130166777D01*
X71358599Y-130183253D01*
X71338893Y-130197868D01*
X71317850Y-130210480D01*
X71295671Y-130220970D01*
X71272572Y-130229235D01*
X71248773Y-130235196D01*
X71224505Y-130238796D01*
X71200001Y-130240000D01*
X70549999Y-130240000D01*
X70525495Y-130238796D01*
X70501227Y-130235196D01*
X70477428Y-130229235D01*
X70454329Y-130220970D01*
X70432150Y-130210480D01*
X70411107Y-130197868D01*
X70391401Y-130183253D01*
X70373223Y-130166777D01*
X70356747Y-130148599D01*
X70342132Y-130128893D01*
X70329520Y-130107850D01*
X70319030Y-130085671D01*
X70310765Y-130062572D01*
X70304804Y-130038773D01*
X70301204Y-130014505D01*
X70300000Y-129990001D01*
X70300000Y-129089999D01*
X70301204Y-129065495D01*
X70304804Y-129041227D01*
X70310765Y-129017428D01*
X70319030Y-128994329D01*
X70329520Y-128972150D01*
X70342132Y-128951107D01*
X70356747Y-128931401D01*
X70373223Y-128913223D01*
X70391401Y-128896747D01*
X70411107Y-128882132D01*
X70432150Y-128869520D01*
X70454329Y-128859030D01*
X70477428Y-128850765D01*
X70501227Y-128844804D01*
X70525495Y-128841204D01*
X70549999Y-128840000D01*
X71200001Y-128840000D01*
X71224505Y-128841204D01*
X71224505Y-128841204D01*
G37*
D11*
G04 #@! TD*
G04 #@! TO.P,R20,2*
G04 #@! TO.N,Net-(LED3-Pad6)*
X70875000Y-129540000D03*
D10*
G04 #@! TO.N,Net-(R20-Pad1)*
G04 #@! TO.C,R20*
G36*
X69174505Y-128841204D02*
X69198773Y-128844804D01*
X69222572Y-128850765D01*
X69245671Y-128859030D01*
X69267850Y-128869520D01*
X69288893Y-128882132D01*
X69308599Y-128896747D01*
X69326777Y-128913223D01*
X69343253Y-128931401D01*
X69357868Y-128951107D01*
X69370480Y-128972150D01*
X69380970Y-128994329D01*
X69389235Y-129017428D01*
X69395196Y-129041227D01*
X69398796Y-129065495D01*
X69400000Y-129089999D01*
X69400000Y-129990001D01*
X69398796Y-130014505D01*
X69395196Y-130038773D01*
X69389235Y-130062572D01*
X69380970Y-130085671D01*
X69370480Y-130107850D01*
X69357868Y-130128893D01*
X69343253Y-130148599D01*
X69326777Y-130166777D01*
X69308599Y-130183253D01*
X69288893Y-130197868D01*
X69267850Y-130210480D01*
X69245671Y-130220970D01*
X69222572Y-130229235D01*
X69198773Y-130235196D01*
X69174505Y-130238796D01*
X69150001Y-130240000D01*
X68499999Y-130240000D01*
X68475495Y-130238796D01*
X68451227Y-130235196D01*
X68427428Y-130229235D01*
X68404329Y-130220970D01*
X68382150Y-130210480D01*
X68361107Y-130197868D01*
X68341401Y-130183253D01*
X68323223Y-130166777D01*
X68306747Y-130148599D01*
X68292132Y-130128893D01*
X68279520Y-130107850D01*
X68269030Y-130085671D01*
X68260765Y-130062572D01*
X68254804Y-130038773D01*
X68251204Y-130014505D01*
X68250000Y-129990001D01*
X68250000Y-129089999D01*
X68251204Y-129065495D01*
X68254804Y-129041227D01*
X68260765Y-129017428D01*
X68269030Y-128994329D01*
X68279520Y-128972150D01*
X68292132Y-128951107D01*
X68306747Y-128931401D01*
X68323223Y-128913223D01*
X68341401Y-128896747D01*
X68361107Y-128882132D01*
X68382150Y-128869520D01*
X68404329Y-128859030D01*
X68427428Y-128850765D01*
X68451227Y-128844804D01*
X68475495Y-128841204D01*
X68499999Y-128840000D01*
X69150001Y-128840000D01*
X69174505Y-128841204D01*
X69174505Y-128841204D01*
G37*
D11*
G04 #@! TD*
G04 #@! TO.P,R20,1*
G04 #@! TO.N,Net-(R20-Pad1)*
X68825000Y-129540000D03*
D10*
G04 #@! TO.N,Net-(LED3-Pad5)*
G04 #@! TO.C,R19*
G36*
X71224505Y-126301204D02*
X71248773Y-126304804D01*
X71272572Y-126310765D01*
X71295671Y-126319030D01*
X71317850Y-126329520D01*
X71338893Y-126342132D01*
X71358599Y-126356747D01*
X71376777Y-126373223D01*
X71393253Y-126391401D01*
X71407868Y-126411107D01*
X71420480Y-126432150D01*
X71430970Y-126454329D01*
X71439235Y-126477428D01*
X71445196Y-126501227D01*
X71448796Y-126525495D01*
X71450000Y-126549999D01*
X71450000Y-127450001D01*
X71448796Y-127474505D01*
X71445196Y-127498773D01*
X71439235Y-127522572D01*
X71430970Y-127545671D01*
X71420480Y-127567850D01*
X71407868Y-127588893D01*
X71393253Y-127608599D01*
X71376777Y-127626777D01*
X71358599Y-127643253D01*
X71338893Y-127657868D01*
X71317850Y-127670480D01*
X71295671Y-127680970D01*
X71272572Y-127689235D01*
X71248773Y-127695196D01*
X71224505Y-127698796D01*
X71200001Y-127700000D01*
X70549999Y-127700000D01*
X70525495Y-127698796D01*
X70501227Y-127695196D01*
X70477428Y-127689235D01*
X70454329Y-127680970D01*
X70432150Y-127670480D01*
X70411107Y-127657868D01*
X70391401Y-127643253D01*
X70373223Y-127626777D01*
X70356747Y-127608599D01*
X70342132Y-127588893D01*
X70329520Y-127567850D01*
X70319030Y-127545671D01*
X70310765Y-127522572D01*
X70304804Y-127498773D01*
X70301204Y-127474505D01*
X70300000Y-127450001D01*
X70300000Y-126549999D01*
X70301204Y-126525495D01*
X70304804Y-126501227D01*
X70310765Y-126477428D01*
X70319030Y-126454329D01*
X70329520Y-126432150D01*
X70342132Y-126411107D01*
X70356747Y-126391401D01*
X70373223Y-126373223D01*
X70391401Y-126356747D01*
X70411107Y-126342132D01*
X70432150Y-126329520D01*
X70454329Y-126319030D01*
X70477428Y-126310765D01*
X70501227Y-126304804D01*
X70525495Y-126301204D01*
X70549999Y-126300000D01*
X71200001Y-126300000D01*
X71224505Y-126301204D01*
X71224505Y-126301204D01*
G37*
D11*
G04 #@! TD*
G04 #@! TO.P,R19,2*
G04 #@! TO.N,Net-(LED3-Pad5)*
X70875000Y-127000000D03*
D10*
G04 #@! TO.N,Net-(R19-Pad1)*
G04 #@! TO.C,R19*
G36*
X69174505Y-126301204D02*
X69198773Y-126304804D01*
X69222572Y-126310765D01*
X69245671Y-126319030D01*
X69267850Y-126329520D01*
X69288893Y-126342132D01*
X69308599Y-126356747D01*
X69326777Y-126373223D01*
X69343253Y-126391401D01*
X69357868Y-126411107D01*
X69370480Y-126432150D01*
X69380970Y-126454329D01*
X69389235Y-126477428D01*
X69395196Y-126501227D01*
X69398796Y-126525495D01*
X69400000Y-126549999D01*
X69400000Y-127450001D01*
X69398796Y-127474505D01*
X69395196Y-127498773D01*
X69389235Y-127522572D01*
X69380970Y-127545671D01*
X69370480Y-127567850D01*
X69357868Y-127588893D01*
X69343253Y-127608599D01*
X69326777Y-127626777D01*
X69308599Y-127643253D01*
X69288893Y-127657868D01*
X69267850Y-127670480D01*
X69245671Y-127680970D01*
X69222572Y-127689235D01*
X69198773Y-127695196D01*
X69174505Y-127698796D01*
X69150001Y-127700000D01*
X68499999Y-127700000D01*
X68475495Y-127698796D01*
X68451227Y-127695196D01*
X68427428Y-127689235D01*
X68404329Y-127680970D01*
X68382150Y-127670480D01*
X68361107Y-127657868D01*
X68341401Y-127643253D01*
X68323223Y-127626777D01*
X68306747Y-127608599D01*
X68292132Y-127588893D01*
X68279520Y-127567850D01*
X68269030Y-127545671D01*
X68260765Y-127522572D01*
X68254804Y-127498773D01*
X68251204Y-127474505D01*
X68250000Y-127450001D01*
X68250000Y-126549999D01*
X68251204Y-126525495D01*
X68254804Y-126501227D01*
X68260765Y-126477428D01*
X68269030Y-126454329D01*
X68279520Y-126432150D01*
X68292132Y-126411107D01*
X68306747Y-126391401D01*
X68323223Y-126373223D01*
X68341401Y-126356747D01*
X68361107Y-126342132D01*
X68382150Y-126329520D01*
X68404329Y-126319030D01*
X68427428Y-126310765D01*
X68451227Y-126304804D01*
X68475495Y-126301204D01*
X68499999Y-126300000D01*
X69150001Y-126300000D01*
X69174505Y-126301204D01*
X69174505Y-126301204D01*
G37*
D11*
G04 #@! TD*
G04 #@! TO.P,R19,1*
G04 #@! TO.N,Net-(R19-Pad1)*
X68825000Y-127000000D03*
D10*
G04 #@! TO.N,Net-(LED3-Pad4)*
G04 #@! TO.C,R18*
G36*
X71224505Y-123761204D02*
X71248773Y-123764804D01*
X71272572Y-123770765D01*
X71295671Y-123779030D01*
X71317850Y-123789520D01*
X71338893Y-123802132D01*
X71358599Y-123816747D01*
X71376777Y-123833223D01*
X71393253Y-123851401D01*
X71407868Y-123871107D01*
X71420480Y-123892150D01*
X71430970Y-123914329D01*
X71439235Y-123937428D01*
X71445196Y-123961227D01*
X71448796Y-123985495D01*
X71450000Y-124009999D01*
X71450000Y-124910001D01*
X71448796Y-124934505D01*
X71445196Y-124958773D01*
X71439235Y-124982572D01*
X71430970Y-125005671D01*
X71420480Y-125027850D01*
X71407868Y-125048893D01*
X71393253Y-125068599D01*
X71376777Y-125086777D01*
X71358599Y-125103253D01*
X71338893Y-125117868D01*
X71317850Y-125130480D01*
X71295671Y-125140970D01*
X71272572Y-125149235D01*
X71248773Y-125155196D01*
X71224505Y-125158796D01*
X71200001Y-125160000D01*
X70549999Y-125160000D01*
X70525495Y-125158796D01*
X70501227Y-125155196D01*
X70477428Y-125149235D01*
X70454329Y-125140970D01*
X70432150Y-125130480D01*
X70411107Y-125117868D01*
X70391401Y-125103253D01*
X70373223Y-125086777D01*
X70356747Y-125068599D01*
X70342132Y-125048893D01*
X70329520Y-125027850D01*
X70319030Y-125005671D01*
X70310765Y-124982572D01*
X70304804Y-124958773D01*
X70301204Y-124934505D01*
X70300000Y-124910001D01*
X70300000Y-124009999D01*
X70301204Y-123985495D01*
X70304804Y-123961227D01*
X70310765Y-123937428D01*
X70319030Y-123914329D01*
X70329520Y-123892150D01*
X70342132Y-123871107D01*
X70356747Y-123851401D01*
X70373223Y-123833223D01*
X70391401Y-123816747D01*
X70411107Y-123802132D01*
X70432150Y-123789520D01*
X70454329Y-123779030D01*
X70477428Y-123770765D01*
X70501227Y-123764804D01*
X70525495Y-123761204D01*
X70549999Y-123760000D01*
X71200001Y-123760000D01*
X71224505Y-123761204D01*
X71224505Y-123761204D01*
G37*
D11*
G04 #@! TD*
G04 #@! TO.P,R18,2*
G04 #@! TO.N,Net-(LED3-Pad4)*
X70875000Y-124460000D03*
D10*
G04 #@! TO.N,Net-(R18-Pad1)*
G04 #@! TO.C,R18*
G36*
X69174505Y-123761204D02*
X69198773Y-123764804D01*
X69222572Y-123770765D01*
X69245671Y-123779030D01*
X69267850Y-123789520D01*
X69288893Y-123802132D01*
X69308599Y-123816747D01*
X69326777Y-123833223D01*
X69343253Y-123851401D01*
X69357868Y-123871107D01*
X69370480Y-123892150D01*
X69380970Y-123914329D01*
X69389235Y-123937428D01*
X69395196Y-123961227D01*
X69398796Y-123985495D01*
X69400000Y-124009999D01*
X69400000Y-124910001D01*
X69398796Y-124934505D01*
X69395196Y-124958773D01*
X69389235Y-124982572D01*
X69380970Y-125005671D01*
X69370480Y-125027850D01*
X69357868Y-125048893D01*
X69343253Y-125068599D01*
X69326777Y-125086777D01*
X69308599Y-125103253D01*
X69288893Y-125117868D01*
X69267850Y-125130480D01*
X69245671Y-125140970D01*
X69222572Y-125149235D01*
X69198773Y-125155196D01*
X69174505Y-125158796D01*
X69150001Y-125160000D01*
X68499999Y-125160000D01*
X68475495Y-125158796D01*
X68451227Y-125155196D01*
X68427428Y-125149235D01*
X68404329Y-125140970D01*
X68382150Y-125130480D01*
X68361107Y-125117868D01*
X68341401Y-125103253D01*
X68323223Y-125086777D01*
X68306747Y-125068599D01*
X68292132Y-125048893D01*
X68279520Y-125027850D01*
X68269030Y-125005671D01*
X68260765Y-124982572D01*
X68254804Y-124958773D01*
X68251204Y-124934505D01*
X68250000Y-124910001D01*
X68250000Y-124009999D01*
X68251204Y-123985495D01*
X68254804Y-123961227D01*
X68260765Y-123937428D01*
X68269030Y-123914329D01*
X68279520Y-123892150D01*
X68292132Y-123871107D01*
X68306747Y-123851401D01*
X68323223Y-123833223D01*
X68341401Y-123816747D01*
X68361107Y-123802132D01*
X68382150Y-123789520D01*
X68404329Y-123779030D01*
X68427428Y-123770765D01*
X68451227Y-123764804D01*
X68475495Y-123761204D01*
X68499999Y-123760000D01*
X69150001Y-123760000D01*
X69174505Y-123761204D01*
X69174505Y-123761204D01*
G37*
D11*
G04 #@! TD*
G04 #@! TO.P,R18,1*
G04 #@! TO.N,Net-(R18-Pad1)*
X68825000Y-124460000D03*
D10*
G04 #@! TO.N,Net-(LED3-Pad3)*
G04 #@! TO.C,R17*
G36*
X71224505Y-121221204D02*
X71248773Y-121224804D01*
X71272572Y-121230765D01*
X71295671Y-121239030D01*
X71317850Y-121249520D01*
X71338893Y-121262132D01*
X71358599Y-121276747D01*
X71376777Y-121293223D01*
X71393253Y-121311401D01*
X71407868Y-121331107D01*
X71420480Y-121352150D01*
X71430970Y-121374329D01*
X71439235Y-121397428D01*
X71445196Y-121421227D01*
X71448796Y-121445495D01*
X71450000Y-121469999D01*
X71450000Y-122370001D01*
X71448796Y-122394505D01*
X71445196Y-122418773D01*
X71439235Y-122442572D01*
X71430970Y-122465671D01*
X71420480Y-122487850D01*
X71407868Y-122508893D01*
X71393253Y-122528599D01*
X71376777Y-122546777D01*
X71358599Y-122563253D01*
X71338893Y-122577868D01*
X71317850Y-122590480D01*
X71295671Y-122600970D01*
X71272572Y-122609235D01*
X71248773Y-122615196D01*
X71224505Y-122618796D01*
X71200001Y-122620000D01*
X70549999Y-122620000D01*
X70525495Y-122618796D01*
X70501227Y-122615196D01*
X70477428Y-122609235D01*
X70454329Y-122600970D01*
X70432150Y-122590480D01*
X70411107Y-122577868D01*
X70391401Y-122563253D01*
X70373223Y-122546777D01*
X70356747Y-122528599D01*
X70342132Y-122508893D01*
X70329520Y-122487850D01*
X70319030Y-122465671D01*
X70310765Y-122442572D01*
X70304804Y-122418773D01*
X70301204Y-122394505D01*
X70300000Y-122370001D01*
X70300000Y-121469999D01*
X70301204Y-121445495D01*
X70304804Y-121421227D01*
X70310765Y-121397428D01*
X70319030Y-121374329D01*
X70329520Y-121352150D01*
X70342132Y-121331107D01*
X70356747Y-121311401D01*
X70373223Y-121293223D01*
X70391401Y-121276747D01*
X70411107Y-121262132D01*
X70432150Y-121249520D01*
X70454329Y-121239030D01*
X70477428Y-121230765D01*
X70501227Y-121224804D01*
X70525495Y-121221204D01*
X70549999Y-121220000D01*
X71200001Y-121220000D01*
X71224505Y-121221204D01*
X71224505Y-121221204D01*
G37*
D11*
G04 #@! TD*
G04 #@! TO.P,R17,2*
G04 #@! TO.N,Net-(LED3-Pad3)*
X70875000Y-121920000D03*
D10*
G04 #@! TO.N,Net-(R17-Pad1)*
G04 #@! TO.C,R17*
G36*
X69174505Y-121221204D02*
X69198773Y-121224804D01*
X69222572Y-121230765D01*
X69245671Y-121239030D01*
X69267850Y-121249520D01*
X69288893Y-121262132D01*
X69308599Y-121276747D01*
X69326777Y-121293223D01*
X69343253Y-121311401D01*
X69357868Y-121331107D01*
X69370480Y-121352150D01*
X69380970Y-121374329D01*
X69389235Y-121397428D01*
X69395196Y-121421227D01*
X69398796Y-121445495D01*
X69400000Y-121469999D01*
X69400000Y-122370001D01*
X69398796Y-122394505D01*
X69395196Y-122418773D01*
X69389235Y-122442572D01*
X69380970Y-122465671D01*
X69370480Y-122487850D01*
X69357868Y-122508893D01*
X69343253Y-122528599D01*
X69326777Y-122546777D01*
X69308599Y-122563253D01*
X69288893Y-122577868D01*
X69267850Y-122590480D01*
X69245671Y-122600970D01*
X69222572Y-122609235D01*
X69198773Y-122615196D01*
X69174505Y-122618796D01*
X69150001Y-122620000D01*
X68499999Y-122620000D01*
X68475495Y-122618796D01*
X68451227Y-122615196D01*
X68427428Y-122609235D01*
X68404329Y-122600970D01*
X68382150Y-122590480D01*
X68361107Y-122577868D01*
X68341401Y-122563253D01*
X68323223Y-122546777D01*
X68306747Y-122528599D01*
X68292132Y-122508893D01*
X68279520Y-122487850D01*
X68269030Y-122465671D01*
X68260765Y-122442572D01*
X68254804Y-122418773D01*
X68251204Y-122394505D01*
X68250000Y-122370001D01*
X68250000Y-121469999D01*
X68251204Y-121445495D01*
X68254804Y-121421227D01*
X68260765Y-121397428D01*
X68269030Y-121374329D01*
X68279520Y-121352150D01*
X68292132Y-121331107D01*
X68306747Y-121311401D01*
X68323223Y-121293223D01*
X68341401Y-121276747D01*
X68361107Y-121262132D01*
X68382150Y-121249520D01*
X68404329Y-121239030D01*
X68427428Y-121230765D01*
X68451227Y-121224804D01*
X68475495Y-121221204D01*
X68499999Y-121220000D01*
X69150001Y-121220000D01*
X69174505Y-121221204D01*
X69174505Y-121221204D01*
G37*
D11*
G04 #@! TD*
G04 #@! TO.P,R17,1*
G04 #@! TO.N,Net-(R17-Pad1)*
X68825000Y-121920000D03*
D10*
G04 #@! TO.N,Net-(LED2-Pad14)*
G04 #@! TO.C,R16*
G36*
X71224505Y-117411204D02*
X71248773Y-117414804D01*
X71272572Y-117420765D01*
X71295671Y-117429030D01*
X71317850Y-117439520D01*
X71338893Y-117452132D01*
X71358599Y-117466747D01*
X71376777Y-117483223D01*
X71393253Y-117501401D01*
X71407868Y-117521107D01*
X71420480Y-117542150D01*
X71430970Y-117564329D01*
X71439235Y-117587428D01*
X71445196Y-117611227D01*
X71448796Y-117635495D01*
X71450000Y-117659999D01*
X71450000Y-118560001D01*
X71448796Y-118584505D01*
X71445196Y-118608773D01*
X71439235Y-118632572D01*
X71430970Y-118655671D01*
X71420480Y-118677850D01*
X71407868Y-118698893D01*
X71393253Y-118718599D01*
X71376777Y-118736777D01*
X71358599Y-118753253D01*
X71338893Y-118767868D01*
X71317850Y-118780480D01*
X71295671Y-118790970D01*
X71272572Y-118799235D01*
X71248773Y-118805196D01*
X71224505Y-118808796D01*
X71200001Y-118810000D01*
X70549999Y-118810000D01*
X70525495Y-118808796D01*
X70501227Y-118805196D01*
X70477428Y-118799235D01*
X70454329Y-118790970D01*
X70432150Y-118780480D01*
X70411107Y-118767868D01*
X70391401Y-118753253D01*
X70373223Y-118736777D01*
X70356747Y-118718599D01*
X70342132Y-118698893D01*
X70329520Y-118677850D01*
X70319030Y-118655671D01*
X70310765Y-118632572D01*
X70304804Y-118608773D01*
X70301204Y-118584505D01*
X70300000Y-118560001D01*
X70300000Y-117659999D01*
X70301204Y-117635495D01*
X70304804Y-117611227D01*
X70310765Y-117587428D01*
X70319030Y-117564329D01*
X70329520Y-117542150D01*
X70342132Y-117521107D01*
X70356747Y-117501401D01*
X70373223Y-117483223D01*
X70391401Y-117466747D01*
X70411107Y-117452132D01*
X70432150Y-117439520D01*
X70454329Y-117429030D01*
X70477428Y-117420765D01*
X70501227Y-117414804D01*
X70525495Y-117411204D01*
X70549999Y-117410000D01*
X71200001Y-117410000D01*
X71224505Y-117411204D01*
X71224505Y-117411204D01*
G37*
D11*
G04 #@! TD*
G04 #@! TO.P,R16,2*
G04 #@! TO.N,Net-(LED2-Pad14)*
X70875000Y-118110000D03*
D10*
G04 #@! TO.N,Net-(R16-Pad1)*
G04 #@! TO.C,R16*
G36*
X69174505Y-117411204D02*
X69198773Y-117414804D01*
X69222572Y-117420765D01*
X69245671Y-117429030D01*
X69267850Y-117439520D01*
X69288893Y-117452132D01*
X69308599Y-117466747D01*
X69326777Y-117483223D01*
X69343253Y-117501401D01*
X69357868Y-117521107D01*
X69370480Y-117542150D01*
X69380970Y-117564329D01*
X69389235Y-117587428D01*
X69395196Y-117611227D01*
X69398796Y-117635495D01*
X69400000Y-117659999D01*
X69400000Y-118560001D01*
X69398796Y-118584505D01*
X69395196Y-118608773D01*
X69389235Y-118632572D01*
X69380970Y-118655671D01*
X69370480Y-118677850D01*
X69357868Y-118698893D01*
X69343253Y-118718599D01*
X69326777Y-118736777D01*
X69308599Y-118753253D01*
X69288893Y-118767868D01*
X69267850Y-118780480D01*
X69245671Y-118790970D01*
X69222572Y-118799235D01*
X69198773Y-118805196D01*
X69174505Y-118808796D01*
X69150001Y-118810000D01*
X68499999Y-118810000D01*
X68475495Y-118808796D01*
X68451227Y-118805196D01*
X68427428Y-118799235D01*
X68404329Y-118790970D01*
X68382150Y-118780480D01*
X68361107Y-118767868D01*
X68341401Y-118753253D01*
X68323223Y-118736777D01*
X68306747Y-118718599D01*
X68292132Y-118698893D01*
X68279520Y-118677850D01*
X68269030Y-118655671D01*
X68260765Y-118632572D01*
X68254804Y-118608773D01*
X68251204Y-118584505D01*
X68250000Y-118560001D01*
X68250000Y-117659999D01*
X68251204Y-117635495D01*
X68254804Y-117611227D01*
X68260765Y-117587428D01*
X68269030Y-117564329D01*
X68279520Y-117542150D01*
X68292132Y-117521107D01*
X68306747Y-117501401D01*
X68323223Y-117483223D01*
X68341401Y-117466747D01*
X68361107Y-117452132D01*
X68382150Y-117439520D01*
X68404329Y-117429030D01*
X68427428Y-117420765D01*
X68451227Y-117414804D01*
X68475495Y-117411204D01*
X68499999Y-117410000D01*
X69150001Y-117410000D01*
X69174505Y-117411204D01*
X69174505Y-117411204D01*
G37*
D11*
G04 #@! TD*
G04 #@! TO.P,R16,1*
G04 #@! TO.N,Net-(R16-Pad1)*
X68825000Y-118110000D03*
D10*
G04 #@! TO.N,Net-(LED2-Pad13)*
G04 #@! TO.C,R15*
G36*
X71224505Y-114871204D02*
X71248773Y-114874804D01*
X71272572Y-114880765D01*
X71295671Y-114889030D01*
X71317850Y-114899520D01*
X71338893Y-114912132D01*
X71358599Y-114926747D01*
X71376777Y-114943223D01*
X71393253Y-114961401D01*
X71407868Y-114981107D01*
X71420480Y-115002150D01*
X71430970Y-115024329D01*
X71439235Y-115047428D01*
X71445196Y-115071227D01*
X71448796Y-115095495D01*
X71450000Y-115119999D01*
X71450000Y-116020001D01*
X71448796Y-116044505D01*
X71445196Y-116068773D01*
X71439235Y-116092572D01*
X71430970Y-116115671D01*
X71420480Y-116137850D01*
X71407868Y-116158893D01*
X71393253Y-116178599D01*
X71376777Y-116196777D01*
X71358599Y-116213253D01*
X71338893Y-116227868D01*
X71317850Y-116240480D01*
X71295671Y-116250970D01*
X71272572Y-116259235D01*
X71248773Y-116265196D01*
X71224505Y-116268796D01*
X71200001Y-116270000D01*
X70549999Y-116270000D01*
X70525495Y-116268796D01*
X70501227Y-116265196D01*
X70477428Y-116259235D01*
X70454329Y-116250970D01*
X70432150Y-116240480D01*
X70411107Y-116227868D01*
X70391401Y-116213253D01*
X70373223Y-116196777D01*
X70356747Y-116178599D01*
X70342132Y-116158893D01*
X70329520Y-116137850D01*
X70319030Y-116115671D01*
X70310765Y-116092572D01*
X70304804Y-116068773D01*
X70301204Y-116044505D01*
X70300000Y-116020001D01*
X70300000Y-115119999D01*
X70301204Y-115095495D01*
X70304804Y-115071227D01*
X70310765Y-115047428D01*
X70319030Y-115024329D01*
X70329520Y-115002150D01*
X70342132Y-114981107D01*
X70356747Y-114961401D01*
X70373223Y-114943223D01*
X70391401Y-114926747D01*
X70411107Y-114912132D01*
X70432150Y-114899520D01*
X70454329Y-114889030D01*
X70477428Y-114880765D01*
X70501227Y-114874804D01*
X70525495Y-114871204D01*
X70549999Y-114870000D01*
X71200001Y-114870000D01*
X71224505Y-114871204D01*
X71224505Y-114871204D01*
G37*
D11*
G04 #@! TD*
G04 #@! TO.P,R15,2*
G04 #@! TO.N,Net-(LED2-Pad13)*
X70875000Y-115570000D03*
D10*
G04 #@! TO.N,Net-(R15-Pad1)*
G04 #@! TO.C,R15*
G36*
X69174505Y-114871204D02*
X69198773Y-114874804D01*
X69222572Y-114880765D01*
X69245671Y-114889030D01*
X69267850Y-114899520D01*
X69288893Y-114912132D01*
X69308599Y-114926747D01*
X69326777Y-114943223D01*
X69343253Y-114961401D01*
X69357868Y-114981107D01*
X69370480Y-115002150D01*
X69380970Y-115024329D01*
X69389235Y-115047428D01*
X69395196Y-115071227D01*
X69398796Y-115095495D01*
X69400000Y-115119999D01*
X69400000Y-116020001D01*
X69398796Y-116044505D01*
X69395196Y-116068773D01*
X69389235Y-116092572D01*
X69380970Y-116115671D01*
X69370480Y-116137850D01*
X69357868Y-116158893D01*
X69343253Y-116178599D01*
X69326777Y-116196777D01*
X69308599Y-116213253D01*
X69288893Y-116227868D01*
X69267850Y-116240480D01*
X69245671Y-116250970D01*
X69222572Y-116259235D01*
X69198773Y-116265196D01*
X69174505Y-116268796D01*
X69150001Y-116270000D01*
X68499999Y-116270000D01*
X68475495Y-116268796D01*
X68451227Y-116265196D01*
X68427428Y-116259235D01*
X68404329Y-116250970D01*
X68382150Y-116240480D01*
X68361107Y-116227868D01*
X68341401Y-116213253D01*
X68323223Y-116196777D01*
X68306747Y-116178599D01*
X68292132Y-116158893D01*
X68279520Y-116137850D01*
X68269030Y-116115671D01*
X68260765Y-116092572D01*
X68254804Y-116068773D01*
X68251204Y-116044505D01*
X68250000Y-116020001D01*
X68250000Y-115119999D01*
X68251204Y-115095495D01*
X68254804Y-115071227D01*
X68260765Y-115047428D01*
X68269030Y-115024329D01*
X68279520Y-115002150D01*
X68292132Y-114981107D01*
X68306747Y-114961401D01*
X68323223Y-114943223D01*
X68341401Y-114926747D01*
X68361107Y-114912132D01*
X68382150Y-114899520D01*
X68404329Y-114889030D01*
X68427428Y-114880765D01*
X68451227Y-114874804D01*
X68475495Y-114871204D01*
X68499999Y-114870000D01*
X69150001Y-114870000D01*
X69174505Y-114871204D01*
X69174505Y-114871204D01*
G37*
D11*
G04 #@! TD*
G04 #@! TO.P,R15,1*
G04 #@! TO.N,Net-(R15-Pad1)*
X68825000Y-115570000D03*
D10*
G04 #@! TO.N,Net-(LED4-Pad3)*
G04 #@! TO.C,R25*
G36*
X71224505Y-142811204D02*
X71248773Y-142814804D01*
X71272572Y-142820765D01*
X71295671Y-142829030D01*
X71317850Y-142839520D01*
X71338893Y-142852132D01*
X71358599Y-142866747D01*
X71376777Y-142883223D01*
X71393253Y-142901401D01*
X71407868Y-142921107D01*
X71420480Y-142942150D01*
X71430970Y-142964329D01*
X71439235Y-142987428D01*
X71445196Y-143011227D01*
X71448796Y-143035495D01*
X71450000Y-143059999D01*
X71450000Y-143960001D01*
X71448796Y-143984505D01*
X71445196Y-144008773D01*
X71439235Y-144032572D01*
X71430970Y-144055671D01*
X71420480Y-144077850D01*
X71407868Y-144098893D01*
X71393253Y-144118599D01*
X71376777Y-144136777D01*
X71358599Y-144153253D01*
X71338893Y-144167868D01*
X71317850Y-144180480D01*
X71295671Y-144190970D01*
X71272572Y-144199235D01*
X71248773Y-144205196D01*
X71224505Y-144208796D01*
X71200001Y-144210000D01*
X70549999Y-144210000D01*
X70525495Y-144208796D01*
X70501227Y-144205196D01*
X70477428Y-144199235D01*
X70454329Y-144190970D01*
X70432150Y-144180480D01*
X70411107Y-144167868D01*
X70391401Y-144153253D01*
X70373223Y-144136777D01*
X70356747Y-144118599D01*
X70342132Y-144098893D01*
X70329520Y-144077850D01*
X70319030Y-144055671D01*
X70310765Y-144032572D01*
X70304804Y-144008773D01*
X70301204Y-143984505D01*
X70300000Y-143960001D01*
X70300000Y-143059999D01*
X70301204Y-143035495D01*
X70304804Y-143011227D01*
X70310765Y-142987428D01*
X70319030Y-142964329D01*
X70329520Y-142942150D01*
X70342132Y-142921107D01*
X70356747Y-142901401D01*
X70373223Y-142883223D01*
X70391401Y-142866747D01*
X70411107Y-142852132D01*
X70432150Y-142839520D01*
X70454329Y-142829030D01*
X70477428Y-142820765D01*
X70501227Y-142814804D01*
X70525495Y-142811204D01*
X70549999Y-142810000D01*
X71200001Y-142810000D01*
X71224505Y-142811204D01*
X71224505Y-142811204D01*
G37*
D11*
G04 #@! TD*
G04 #@! TO.P,R25,2*
G04 #@! TO.N,Net-(LED4-Pad3)*
X70875000Y-143510000D03*
D10*
G04 #@! TO.N,Net-(R25-Pad1)*
G04 #@! TO.C,R25*
G36*
X69174505Y-142811204D02*
X69198773Y-142814804D01*
X69222572Y-142820765D01*
X69245671Y-142829030D01*
X69267850Y-142839520D01*
X69288893Y-142852132D01*
X69308599Y-142866747D01*
X69326777Y-142883223D01*
X69343253Y-142901401D01*
X69357868Y-142921107D01*
X69370480Y-142942150D01*
X69380970Y-142964329D01*
X69389235Y-142987428D01*
X69395196Y-143011227D01*
X69398796Y-143035495D01*
X69400000Y-143059999D01*
X69400000Y-143960001D01*
X69398796Y-143984505D01*
X69395196Y-144008773D01*
X69389235Y-144032572D01*
X69380970Y-144055671D01*
X69370480Y-144077850D01*
X69357868Y-144098893D01*
X69343253Y-144118599D01*
X69326777Y-144136777D01*
X69308599Y-144153253D01*
X69288893Y-144167868D01*
X69267850Y-144180480D01*
X69245671Y-144190970D01*
X69222572Y-144199235D01*
X69198773Y-144205196D01*
X69174505Y-144208796D01*
X69150001Y-144210000D01*
X68499999Y-144210000D01*
X68475495Y-144208796D01*
X68451227Y-144205196D01*
X68427428Y-144199235D01*
X68404329Y-144190970D01*
X68382150Y-144180480D01*
X68361107Y-144167868D01*
X68341401Y-144153253D01*
X68323223Y-144136777D01*
X68306747Y-144118599D01*
X68292132Y-144098893D01*
X68279520Y-144077850D01*
X68269030Y-144055671D01*
X68260765Y-144032572D01*
X68254804Y-144008773D01*
X68251204Y-143984505D01*
X68250000Y-143960001D01*
X68250000Y-143059999D01*
X68251204Y-143035495D01*
X68254804Y-143011227D01*
X68260765Y-142987428D01*
X68269030Y-142964329D01*
X68279520Y-142942150D01*
X68292132Y-142921107D01*
X68306747Y-142901401D01*
X68323223Y-142883223D01*
X68341401Y-142866747D01*
X68361107Y-142852132D01*
X68382150Y-142839520D01*
X68404329Y-142829030D01*
X68427428Y-142820765D01*
X68451227Y-142814804D01*
X68475495Y-142811204D01*
X68499999Y-142810000D01*
X69150001Y-142810000D01*
X69174505Y-142811204D01*
X69174505Y-142811204D01*
G37*
D11*
G04 #@! TD*
G04 #@! TO.P,R25,1*
G04 #@! TO.N,Net-(R25-Pad1)*
X68825000Y-143510000D03*
D10*
G04 #@! TO.N,Net-(LED4-Pad14)*
G04 #@! TO.C,R32*
G36*
X71224505Y-160591204D02*
X71248773Y-160594804D01*
X71272572Y-160600765D01*
X71295671Y-160609030D01*
X71317850Y-160619520D01*
X71338893Y-160632132D01*
X71358599Y-160646747D01*
X71376777Y-160663223D01*
X71393253Y-160681401D01*
X71407868Y-160701107D01*
X71420480Y-160722150D01*
X71430970Y-160744329D01*
X71439235Y-160767428D01*
X71445196Y-160791227D01*
X71448796Y-160815495D01*
X71450000Y-160839999D01*
X71450000Y-161740001D01*
X71448796Y-161764505D01*
X71445196Y-161788773D01*
X71439235Y-161812572D01*
X71430970Y-161835671D01*
X71420480Y-161857850D01*
X71407868Y-161878893D01*
X71393253Y-161898599D01*
X71376777Y-161916777D01*
X71358599Y-161933253D01*
X71338893Y-161947868D01*
X71317850Y-161960480D01*
X71295671Y-161970970D01*
X71272572Y-161979235D01*
X71248773Y-161985196D01*
X71224505Y-161988796D01*
X71200001Y-161990000D01*
X70549999Y-161990000D01*
X70525495Y-161988796D01*
X70501227Y-161985196D01*
X70477428Y-161979235D01*
X70454329Y-161970970D01*
X70432150Y-161960480D01*
X70411107Y-161947868D01*
X70391401Y-161933253D01*
X70373223Y-161916777D01*
X70356747Y-161898599D01*
X70342132Y-161878893D01*
X70329520Y-161857850D01*
X70319030Y-161835671D01*
X70310765Y-161812572D01*
X70304804Y-161788773D01*
X70301204Y-161764505D01*
X70300000Y-161740001D01*
X70300000Y-160839999D01*
X70301204Y-160815495D01*
X70304804Y-160791227D01*
X70310765Y-160767428D01*
X70319030Y-160744329D01*
X70329520Y-160722150D01*
X70342132Y-160701107D01*
X70356747Y-160681401D01*
X70373223Y-160663223D01*
X70391401Y-160646747D01*
X70411107Y-160632132D01*
X70432150Y-160619520D01*
X70454329Y-160609030D01*
X70477428Y-160600765D01*
X70501227Y-160594804D01*
X70525495Y-160591204D01*
X70549999Y-160590000D01*
X71200001Y-160590000D01*
X71224505Y-160591204D01*
X71224505Y-160591204D01*
G37*
D11*
G04 #@! TD*
G04 #@! TO.P,R32,2*
G04 #@! TO.N,Net-(LED4-Pad14)*
X70875000Y-161290000D03*
D10*
G04 #@! TO.N,Net-(R32-Pad1)*
G04 #@! TO.C,R32*
G36*
X69174505Y-160591204D02*
X69198773Y-160594804D01*
X69222572Y-160600765D01*
X69245671Y-160609030D01*
X69267850Y-160619520D01*
X69288893Y-160632132D01*
X69308599Y-160646747D01*
X69326777Y-160663223D01*
X69343253Y-160681401D01*
X69357868Y-160701107D01*
X69370480Y-160722150D01*
X69380970Y-160744329D01*
X69389235Y-160767428D01*
X69395196Y-160791227D01*
X69398796Y-160815495D01*
X69400000Y-160839999D01*
X69400000Y-161740001D01*
X69398796Y-161764505D01*
X69395196Y-161788773D01*
X69389235Y-161812572D01*
X69380970Y-161835671D01*
X69370480Y-161857850D01*
X69357868Y-161878893D01*
X69343253Y-161898599D01*
X69326777Y-161916777D01*
X69308599Y-161933253D01*
X69288893Y-161947868D01*
X69267850Y-161960480D01*
X69245671Y-161970970D01*
X69222572Y-161979235D01*
X69198773Y-161985196D01*
X69174505Y-161988796D01*
X69150001Y-161990000D01*
X68499999Y-161990000D01*
X68475495Y-161988796D01*
X68451227Y-161985196D01*
X68427428Y-161979235D01*
X68404329Y-161970970D01*
X68382150Y-161960480D01*
X68361107Y-161947868D01*
X68341401Y-161933253D01*
X68323223Y-161916777D01*
X68306747Y-161898599D01*
X68292132Y-161878893D01*
X68279520Y-161857850D01*
X68269030Y-161835671D01*
X68260765Y-161812572D01*
X68254804Y-161788773D01*
X68251204Y-161764505D01*
X68250000Y-161740001D01*
X68250000Y-160839999D01*
X68251204Y-160815495D01*
X68254804Y-160791227D01*
X68260765Y-160767428D01*
X68269030Y-160744329D01*
X68279520Y-160722150D01*
X68292132Y-160701107D01*
X68306747Y-160681401D01*
X68323223Y-160663223D01*
X68341401Y-160646747D01*
X68361107Y-160632132D01*
X68382150Y-160619520D01*
X68404329Y-160609030D01*
X68427428Y-160600765D01*
X68451227Y-160594804D01*
X68475495Y-160591204D01*
X68499999Y-160590000D01*
X69150001Y-160590000D01*
X69174505Y-160591204D01*
X69174505Y-160591204D01*
G37*
D11*
G04 #@! TD*
G04 #@! TO.P,R32,1*
G04 #@! TO.N,Net-(R32-Pad1)*
X68825000Y-161290000D03*
D10*
G04 #@! TO.N,Net-(LED2-Pad5)*
G04 #@! TO.C,R11*
G36*
X71224505Y-104711204D02*
X71248773Y-104714804D01*
X71272572Y-104720765D01*
X71295671Y-104729030D01*
X71317850Y-104739520D01*
X71338893Y-104752132D01*
X71358599Y-104766747D01*
X71376777Y-104783223D01*
X71393253Y-104801401D01*
X71407868Y-104821107D01*
X71420480Y-104842150D01*
X71430970Y-104864329D01*
X71439235Y-104887428D01*
X71445196Y-104911227D01*
X71448796Y-104935495D01*
X71450000Y-104959999D01*
X71450000Y-105860001D01*
X71448796Y-105884505D01*
X71445196Y-105908773D01*
X71439235Y-105932572D01*
X71430970Y-105955671D01*
X71420480Y-105977850D01*
X71407868Y-105998893D01*
X71393253Y-106018599D01*
X71376777Y-106036777D01*
X71358599Y-106053253D01*
X71338893Y-106067868D01*
X71317850Y-106080480D01*
X71295671Y-106090970D01*
X71272572Y-106099235D01*
X71248773Y-106105196D01*
X71224505Y-106108796D01*
X71200001Y-106110000D01*
X70549999Y-106110000D01*
X70525495Y-106108796D01*
X70501227Y-106105196D01*
X70477428Y-106099235D01*
X70454329Y-106090970D01*
X70432150Y-106080480D01*
X70411107Y-106067868D01*
X70391401Y-106053253D01*
X70373223Y-106036777D01*
X70356747Y-106018599D01*
X70342132Y-105998893D01*
X70329520Y-105977850D01*
X70319030Y-105955671D01*
X70310765Y-105932572D01*
X70304804Y-105908773D01*
X70301204Y-105884505D01*
X70300000Y-105860001D01*
X70300000Y-104959999D01*
X70301204Y-104935495D01*
X70304804Y-104911227D01*
X70310765Y-104887428D01*
X70319030Y-104864329D01*
X70329520Y-104842150D01*
X70342132Y-104821107D01*
X70356747Y-104801401D01*
X70373223Y-104783223D01*
X70391401Y-104766747D01*
X70411107Y-104752132D01*
X70432150Y-104739520D01*
X70454329Y-104729030D01*
X70477428Y-104720765D01*
X70501227Y-104714804D01*
X70525495Y-104711204D01*
X70549999Y-104710000D01*
X71200001Y-104710000D01*
X71224505Y-104711204D01*
X71224505Y-104711204D01*
G37*
D11*
G04 #@! TD*
G04 #@! TO.P,R11,2*
G04 #@! TO.N,Net-(LED2-Pad5)*
X70875000Y-105410000D03*
D10*
G04 #@! TO.N,Net-(R11-Pad1)*
G04 #@! TO.C,R11*
G36*
X69174505Y-104711204D02*
X69198773Y-104714804D01*
X69222572Y-104720765D01*
X69245671Y-104729030D01*
X69267850Y-104739520D01*
X69288893Y-104752132D01*
X69308599Y-104766747D01*
X69326777Y-104783223D01*
X69343253Y-104801401D01*
X69357868Y-104821107D01*
X69370480Y-104842150D01*
X69380970Y-104864329D01*
X69389235Y-104887428D01*
X69395196Y-104911227D01*
X69398796Y-104935495D01*
X69400000Y-104959999D01*
X69400000Y-105860001D01*
X69398796Y-105884505D01*
X69395196Y-105908773D01*
X69389235Y-105932572D01*
X69380970Y-105955671D01*
X69370480Y-105977850D01*
X69357868Y-105998893D01*
X69343253Y-106018599D01*
X69326777Y-106036777D01*
X69308599Y-106053253D01*
X69288893Y-106067868D01*
X69267850Y-106080480D01*
X69245671Y-106090970D01*
X69222572Y-106099235D01*
X69198773Y-106105196D01*
X69174505Y-106108796D01*
X69150001Y-106110000D01*
X68499999Y-106110000D01*
X68475495Y-106108796D01*
X68451227Y-106105196D01*
X68427428Y-106099235D01*
X68404329Y-106090970D01*
X68382150Y-106080480D01*
X68361107Y-106067868D01*
X68341401Y-106053253D01*
X68323223Y-106036777D01*
X68306747Y-106018599D01*
X68292132Y-105998893D01*
X68279520Y-105977850D01*
X68269030Y-105955671D01*
X68260765Y-105932572D01*
X68254804Y-105908773D01*
X68251204Y-105884505D01*
X68250000Y-105860001D01*
X68250000Y-104959999D01*
X68251204Y-104935495D01*
X68254804Y-104911227D01*
X68260765Y-104887428D01*
X68269030Y-104864329D01*
X68279520Y-104842150D01*
X68292132Y-104821107D01*
X68306747Y-104801401D01*
X68323223Y-104783223D01*
X68341401Y-104766747D01*
X68361107Y-104752132D01*
X68382150Y-104739520D01*
X68404329Y-104729030D01*
X68427428Y-104720765D01*
X68451227Y-104714804D01*
X68475495Y-104711204D01*
X68499999Y-104710000D01*
X69150001Y-104710000D01*
X69174505Y-104711204D01*
X69174505Y-104711204D01*
G37*
D11*
G04 #@! TD*
G04 #@! TO.P,R11,1*
G04 #@! TO.N,Net-(R11-Pad1)*
X68825000Y-105410000D03*
D10*
G04 #@! TO.N,Net-(LED2-Pad4)*
G04 #@! TO.C,R10*
G36*
X71224505Y-102171204D02*
X71248773Y-102174804D01*
X71272572Y-102180765D01*
X71295671Y-102189030D01*
X71317850Y-102199520D01*
X71338893Y-102212132D01*
X71358599Y-102226747D01*
X71376777Y-102243223D01*
X71393253Y-102261401D01*
X71407868Y-102281107D01*
X71420480Y-102302150D01*
X71430970Y-102324329D01*
X71439235Y-102347428D01*
X71445196Y-102371227D01*
X71448796Y-102395495D01*
X71450000Y-102419999D01*
X71450000Y-103320001D01*
X71448796Y-103344505D01*
X71445196Y-103368773D01*
X71439235Y-103392572D01*
X71430970Y-103415671D01*
X71420480Y-103437850D01*
X71407868Y-103458893D01*
X71393253Y-103478599D01*
X71376777Y-103496777D01*
X71358599Y-103513253D01*
X71338893Y-103527868D01*
X71317850Y-103540480D01*
X71295671Y-103550970D01*
X71272572Y-103559235D01*
X71248773Y-103565196D01*
X71224505Y-103568796D01*
X71200001Y-103570000D01*
X70549999Y-103570000D01*
X70525495Y-103568796D01*
X70501227Y-103565196D01*
X70477428Y-103559235D01*
X70454329Y-103550970D01*
X70432150Y-103540480D01*
X70411107Y-103527868D01*
X70391401Y-103513253D01*
X70373223Y-103496777D01*
X70356747Y-103478599D01*
X70342132Y-103458893D01*
X70329520Y-103437850D01*
X70319030Y-103415671D01*
X70310765Y-103392572D01*
X70304804Y-103368773D01*
X70301204Y-103344505D01*
X70300000Y-103320001D01*
X70300000Y-102419999D01*
X70301204Y-102395495D01*
X70304804Y-102371227D01*
X70310765Y-102347428D01*
X70319030Y-102324329D01*
X70329520Y-102302150D01*
X70342132Y-102281107D01*
X70356747Y-102261401D01*
X70373223Y-102243223D01*
X70391401Y-102226747D01*
X70411107Y-102212132D01*
X70432150Y-102199520D01*
X70454329Y-102189030D01*
X70477428Y-102180765D01*
X70501227Y-102174804D01*
X70525495Y-102171204D01*
X70549999Y-102170000D01*
X71200001Y-102170000D01*
X71224505Y-102171204D01*
X71224505Y-102171204D01*
G37*
D11*
G04 #@! TD*
G04 #@! TO.P,R10,2*
G04 #@! TO.N,Net-(LED2-Pad4)*
X70875000Y-102870000D03*
D10*
G04 #@! TO.N,Net-(R10-Pad1)*
G04 #@! TO.C,R10*
G36*
X69174505Y-102171204D02*
X69198773Y-102174804D01*
X69222572Y-102180765D01*
X69245671Y-102189030D01*
X69267850Y-102199520D01*
X69288893Y-102212132D01*
X69308599Y-102226747D01*
X69326777Y-102243223D01*
X69343253Y-102261401D01*
X69357868Y-102281107D01*
X69370480Y-102302150D01*
X69380970Y-102324329D01*
X69389235Y-102347428D01*
X69395196Y-102371227D01*
X69398796Y-102395495D01*
X69400000Y-102419999D01*
X69400000Y-103320001D01*
X69398796Y-103344505D01*
X69395196Y-103368773D01*
X69389235Y-103392572D01*
X69380970Y-103415671D01*
X69370480Y-103437850D01*
X69357868Y-103458893D01*
X69343253Y-103478599D01*
X69326777Y-103496777D01*
X69308599Y-103513253D01*
X69288893Y-103527868D01*
X69267850Y-103540480D01*
X69245671Y-103550970D01*
X69222572Y-103559235D01*
X69198773Y-103565196D01*
X69174505Y-103568796D01*
X69150001Y-103570000D01*
X68499999Y-103570000D01*
X68475495Y-103568796D01*
X68451227Y-103565196D01*
X68427428Y-103559235D01*
X68404329Y-103550970D01*
X68382150Y-103540480D01*
X68361107Y-103527868D01*
X68341401Y-103513253D01*
X68323223Y-103496777D01*
X68306747Y-103478599D01*
X68292132Y-103458893D01*
X68279520Y-103437850D01*
X68269030Y-103415671D01*
X68260765Y-103392572D01*
X68254804Y-103368773D01*
X68251204Y-103344505D01*
X68250000Y-103320001D01*
X68250000Y-102419999D01*
X68251204Y-102395495D01*
X68254804Y-102371227D01*
X68260765Y-102347428D01*
X68269030Y-102324329D01*
X68279520Y-102302150D01*
X68292132Y-102281107D01*
X68306747Y-102261401D01*
X68323223Y-102243223D01*
X68341401Y-102226747D01*
X68361107Y-102212132D01*
X68382150Y-102199520D01*
X68404329Y-102189030D01*
X68427428Y-102180765D01*
X68451227Y-102174804D01*
X68475495Y-102171204D01*
X68499999Y-102170000D01*
X69150001Y-102170000D01*
X69174505Y-102171204D01*
X69174505Y-102171204D01*
G37*
D11*
G04 #@! TD*
G04 #@! TO.P,R10,1*
G04 #@! TO.N,Net-(R10-Pad1)*
X68825000Y-102870000D03*
D10*
G04 #@! TO.N,Net-(LED2-Pad3)*
G04 #@! TO.C,R9*
G36*
X71224505Y-99631204D02*
X71248773Y-99634804D01*
X71272572Y-99640765D01*
X71295671Y-99649030D01*
X71317850Y-99659520D01*
X71338893Y-99672132D01*
X71358599Y-99686747D01*
X71376777Y-99703223D01*
X71393253Y-99721401D01*
X71407868Y-99741107D01*
X71420480Y-99762150D01*
X71430970Y-99784329D01*
X71439235Y-99807428D01*
X71445196Y-99831227D01*
X71448796Y-99855495D01*
X71450000Y-99879999D01*
X71450000Y-100780001D01*
X71448796Y-100804505D01*
X71445196Y-100828773D01*
X71439235Y-100852572D01*
X71430970Y-100875671D01*
X71420480Y-100897850D01*
X71407868Y-100918893D01*
X71393253Y-100938599D01*
X71376777Y-100956777D01*
X71358599Y-100973253D01*
X71338893Y-100987868D01*
X71317850Y-101000480D01*
X71295671Y-101010970D01*
X71272572Y-101019235D01*
X71248773Y-101025196D01*
X71224505Y-101028796D01*
X71200001Y-101030000D01*
X70549999Y-101030000D01*
X70525495Y-101028796D01*
X70501227Y-101025196D01*
X70477428Y-101019235D01*
X70454329Y-101010970D01*
X70432150Y-101000480D01*
X70411107Y-100987868D01*
X70391401Y-100973253D01*
X70373223Y-100956777D01*
X70356747Y-100938599D01*
X70342132Y-100918893D01*
X70329520Y-100897850D01*
X70319030Y-100875671D01*
X70310765Y-100852572D01*
X70304804Y-100828773D01*
X70301204Y-100804505D01*
X70300000Y-100780001D01*
X70300000Y-99879999D01*
X70301204Y-99855495D01*
X70304804Y-99831227D01*
X70310765Y-99807428D01*
X70319030Y-99784329D01*
X70329520Y-99762150D01*
X70342132Y-99741107D01*
X70356747Y-99721401D01*
X70373223Y-99703223D01*
X70391401Y-99686747D01*
X70411107Y-99672132D01*
X70432150Y-99659520D01*
X70454329Y-99649030D01*
X70477428Y-99640765D01*
X70501227Y-99634804D01*
X70525495Y-99631204D01*
X70549999Y-99630000D01*
X71200001Y-99630000D01*
X71224505Y-99631204D01*
X71224505Y-99631204D01*
G37*
D11*
G04 #@! TD*
G04 #@! TO.P,R9,2*
G04 #@! TO.N,Net-(LED2-Pad3)*
X70875000Y-100330000D03*
D10*
G04 #@! TO.N,Net-(R9-Pad1)*
G04 #@! TO.C,R9*
G36*
X69174505Y-99631204D02*
X69198773Y-99634804D01*
X69222572Y-99640765D01*
X69245671Y-99649030D01*
X69267850Y-99659520D01*
X69288893Y-99672132D01*
X69308599Y-99686747D01*
X69326777Y-99703223D01*
X69343253Y-99721401D01*
X69357868Y-99741107D01*
X69370480Y-99762150D01*
X69380970Y-99784329D01*
X69389235Y-99807428D01*
X69395196Y-99831227D01*
X69398796Y-99855495D01*
X69400000Y-99879999D01*
X69400000Y-100780001D01*
X69398796Y-100804505D01*
X69395196Y-100828773D01*
X69389235Y-100852572D01*
X69380970Y-100875671D01*
X69370480Y-100897850D01*
X69357868Y-100918893D01*
X69343253Y-100938599D01*
X69326777Y-100956777D01*
X69308599Y-100973253D01*
X69288893Y-100987868D01*
X69267850Y-101000480D01*
X69245671Y-101010970D01*
X69222572Y-101019235D01*
X69198773Y-101025196D01*
X69174505Y-101028796D01*
X69150001Y-101030000D01*
X68499999Y-101030000D01*
X68475495Y-101028796D01*
X68451227Y-101025196D01*
X68427428Y-101019235D01*
X68404329Y-101010970D01*
X68382150Y-101000480D01*
X68361107Y-100987868D01*
X68341401Y-100973253D01*
X68323223Y-100956777D01*
X68306747Y-100938599D01*
X68292132Y-100918893D01*
X68279520Y-100897850D01*
X68269030Y-100875671D01*
X68260765Y-100852572D01*
X68254804Y-100828773D01*
X68251204Y-100804505D01*
X68250000Y-100780001D01*
X68250000Y-99879999D01*
X68251204Y-99855495D01*
X68254804Y-99831227D01*
X68260765Y-99807428D01*
X68269030Y-99784329D01*
X68279520Y-99762150D01*
X68292132Y-99741107D01*
X68306747Y-99721401D01*
X68323223Y-99703223D01*
X68341401Y-99686747D01*
X68361107Y-99672132D01*
X68382150Y-99659520D01*
X68404329Y-99649030D01*
X68427428Y-99640765D01*
X68451227Y-99634804D01*
X68475495Y-99631204D01*
X68499999Y-99630000D01*
X69150001Y-99630000D01*
X69174505Y-99631204D01*
X69174505Y-99631204D01*
G37*
D11*
G04 #@! TD*
G04 #@! TO.P,R9,1*
G04 #@! TO.N,Net-(R9-Pad1)*
X68825000Y-100330000D03*
D10*
G04 #@! TO.N,Net-(LED1-Pad14)*
G04 #@! TO.C,R8*
G36*
X71224505Y-95821204D02*
X71248773Y-95824804D01*
X71272572Y-95830765D01*
X71295671Y-95839030D01*
X71317850Y-95849520D01*
X71338893Y-95862132D01*
X71358599Y-95876747D01*
X71376777Y-95893223D01*
X71393253Y-95911401D01*
X71407868Y-95931107D01*
X71420480Y-95952150D01*
X71430970Y-95974329D01*
X71439235Y-95997428D01*
X71445196Y-96021227D01*
X71448796Y-96045495D01*
X71450000Y-96069999D01*
X71450000Y-96970001D01*
X71448796Y-96994505D01*
X71445196Y-97018773D01*
X71439235Y-97042572D01*
X71430970Y-97065671D01*
X71420480Y-97087850D01*
X71407868Y-97108893D01*
X71393253Y-97128599D01*
X71376777Y-97146777D01*
X71358599Y-97163253D01*
X71338893Y-97177868D01*
X71317850Y-97190480D01*
X71295671Y-97200970D01*
X71272572Y-97209235D01*
X71248773Y-97215196D01*
X71224505Y-97218796D01*
X71200001Y-97220000D01*
X70549999Y-97220000D01*
X70525495Y-97218796D01*
X70501227Y-97215196D01*
X70477428Y-97209235D01*
X70454329Y-97200970D01*
X70432150Y-97190480D01*
X70411107Y-97177868D01*
X70391401Y-97163253D01*
X70373223Y-97146777D01*
X70356747Y-97128599D01*
X70342132Y-97108893D01*
X70329520Y-97087850D01*
X70319030Y-97065671D01*
X70310765Y-97042572D01*
X70304804Y-97018773D01*
X70301204Y-96994505D01*
X70300000Y-96970001D01*
X70300000Y-96069999D01*
X70301204Y-96045495D01*
X70304804Y-96021227D01*
X70310765Y-95997428D01*
X70319030Y-95974329D01*
X70329520Y-95952150D01*
X70342132Y-95931107D01*
X70356747Y-95911401D01*
X70373223Y-95893223D01*
X70391401Y-95876747D01*
X70411107Y-95862132D01*
X70432150Y-95849520D01*
X70454329Y-95839030D01*
X70477428Y-95830765D01*
X70501227Y-95824804D01*
X70525495Y-95821204D01*
X70549999Y-95820000D01*
X71200001Y-95820000D01*
X71224505Y-95821204D01*
X71224505Y-95821204D01*
G37*
D11*
G04 #@! TD*
G04 #@! TO.P,R8,2*
G04 #@! TO.N,Net-(LED1-Pad14)*
X70875000Y-96520000D03*
D10*
G04 #@! TO.N,Net-(R8-Pad1)*
G04 #@! TO.C,R8*
G36*
X69174505Y-95821204D02*
X69198773Y-95824804D01*
X69222572Y-95830765D01*
X69245671Y-95839030D01*
X69267850Y-95849520D01*
X69288893Y-95862132D01*
X69308599Y-95876747D01*
X69326777Y-95893223D01*
X69343253Y-95911401D01*
X69357868Y-95931107D01*
X69370480Y-95952150D01*
X69380970Y-95974329D01*
X69389235Y-95997428D01*
X69395196Y-96021227D01*
X69398796Y-96045495D01*
X69400000Y-96069999D01*
X69400000Y-96970001D01*
X69398796Y-96994505D01*
X69395196Y-97018773D01*
X69389235Y-97042572D01*
X69380970Y-97065671D01*
X69370480Y-97087850D01*
X69357868Y-97108893D01*
X69343253Y-97128599D01*
X69326777Y-97146777D01*
X69308599Y-97163253D01*
X69288893Y-97177868D01*
X69267850Y-97190480D01*
X69245671Y-97200970D01*
X69222572Y-97209235D01*
X69198773Y-97215196D01*
X69174505Y-97218796D01*
X69150001Y-97220000D01*
X68499999Y-97220000D01*
X68475495Y-97218796D01*
X68451227Y-97215196D01*
X68427428Y-97209235D01*
X68404329Y-97200970D01*
X68382150Y-97190480D01*
X68361107Y-97177868D01*
X68341401Y-97163253D01*
X68323223Y-97146777D01*
X68306747Y-97128599D01*
X68292132Y-97108893D01*
X68279520Y-97087850D01*
X68269030Y-97065671D01*
X68260765Y-97042572D01*
X68254804Y-97018773D01*
X68251204Y-96994505D01*
X68250000Y-96970001D01*
X68250000Y-96069999D01*
X68251204Y-96045495D01*
X68254804Y-96021227D01*
X68260765Y-95997428D01*
X68269030Y-95974329D01*
X68279520Y-95952150D01*
X68292132Y-95931107D01*
X68306747Y-95911401D01*
X68323223Y-95893223D01*
X68341401Y-95876747D01*
X68361107Y-95862132D01*
X68382150Y-95849520D01*
X68404329Y-95839030D01*
X68427428Y-95830765D01*
X68451227Y-95824804D01*
X68475495Y-95821204D01*
X68499999Y-95820000D01*
X69150001Y-95820000D01*
X69174505Y-95821204D01*
X69174505Y-95821204D01*
G37*
D11*
G04 #@! TD*
G04 #@! TO.P,R8,1*
G04 #@! TO.N,Net-(R8-Pad1)*
X68825000Y-96520000D03*
D10*
G04 #@! TO.N,Net-(LED1-Pad13)*
G04 #@! TO.C,R7*
G36*
X71224505Y-93281204D02*
X71248773Y-93284804D01*
X71272572Y-93290765D01*
X71295671Y-93299030D01*
X71317850Y-93309520D01*
X71338893Y-93322132D01*
X71358599Y-93336747D01*
X71376777Y-93353223D01*
X71393253Y-93371401D01*
X71407868Y-93391107D01*
X71420480Y-93412150D01*
X71430970Y-93434329D01*
X71439235Y-93457428D01*
X71445196Y-93481227D01*
X71448796Y-93505495D01*
X71450000Y-93529999D01*
X71450000Y-94430001D01*
X71448796Y-94454505D01*
X71445196Y-94478773D01*
X71439235Y-94502572D01*
X71430970Y-94525671D01*
X71420480Y-94547850D01*
X71407868Y-94568893D01*
X71393253Y-94588599D01*
X71376777Y-94606777D01*
X71358599Y-94623253D01*
X71338893Y-94637868D01*
X71317850Y-94650480D01*
X71295671Y-94660970D01*
X71272572Y-94669235D01*
X71248773Y-94675196D01*
X71224505Y-94678796D01*
X71200001Y-94680000D01*
X70549999Y-94680000D01*
X70525495Y-94678796D01*
X70501227Y-94675196D01*
X70477428Y-94669235D01*
X70454329Y-94660970D01*
X70432150Y-94650480D01*
X70411107Y-94637868D01*
X70391401Y-94623253D01*
X70373223Y-94606777D01*
X70356747Y-94588599D01*
X70342132Y-94568893D01*
X70329520Y-94547850D01*
X70319030Y-94525671D01*
X70310765Y-94502572D01*
X70304804Y-94478773D01*
X70301204Y-94454505D01*
X70300000Y-94430001D01*
X70300000Y-93529999D01*
X70301204Y-93505495D01*
X70304804Y-93481227D01*
X70310765Y-93457428D01*
X70319030Y-93434329D01*
X70329520Y-93412150D01*
X70342132Y-93391107D01*
X70356747Y-93371401D01*
X70373223Y-93353223D01*
X70391401Y-93336747D01*
X70411107Y-93322132D01*
X70432150Y-93309520D01*
X70454329Y-93299030D01*
X70477428Y-93290765D01*
X70501227Y-93284804D01*
X70525495Y-93281204D01*
X70549999Y-93280000D01*
X71200001Y-93280000D01*
X71224505Y-93281204D01*
X71224505Y-93281204D01*
G37*
D11*
G04 #@! TD*
G04 #@! TO.P,R7,2*
G04 #@! TO.N,Net-(LED1-Pad13)*
X70875000Y-93980000D03*
D10*
G04 #@! TO.N,Net-(R7-Pad1)*
G04 #@! TO.C,R7*
G36*
X69174505Y-93281204D02*
X69198773Y-93284804D01*
X69222572Y-93290765D01*
X69245671Y-93299030D01*
X69267850Y-93309520D01*
X69288893Y-93322132D01*
X69308599Y-93336747D01*
X69326777Y-93353223D01*
X69343253Y-93371401D01*
X69357868Y-93391107D01*
X69370480Y-93412150D01*
X69380970Y-93434329D01*
X69389235Y-93457428D01*
X69395196Y-93481227D01*
X69398796Y-93505495D01*
X69400000Y-93529999D01*
X69400000Y-94430001D01*
X69398796Y-94454505D01*
X69395196Y-94478773D01*
X69389235Y-94502572D01*
X69380970Y-94525671D01*
X69370480Y-94547850D01*
X69357868Y-94568893D01*
X69343253Y-94588599D01*
X69326777Y-94606777D01*
X69308599Y-94623253D01*
X69288893Y-94637868D01*
X69267850Y-94650480D01*
X69245671Y-94660970D01*
X69222572Y-94669235D01*
X69198773Y-94675196D01*
X69174505Y-94678796D01*
X69150001Y-94680000D01*
X68499999Y-94680000D01*
X68475495Y-94678796D01*
X68451227Y-94675196D01*
X68427428Y-94669235D01*
X68404329Y-94660970D01*
X68382150Y-94650480D01*
X68361107Y-94637868D01*
X68341401Y-94623253D01*
X68323223Y-94606777D01*
X68306747Y-94588599D01*
X68292132Y-94568893D01*
X68279520Y-94547850D01*
X68269030Y-94525671D01*
X68260765Y-94502572D01*
X68254804Y-94478773D01*
X68251204Y-94454505D01*
X68250000Y-94430001D01*
X68250000Y-93529999D01*
X68251204Y-93505495D01*
X68254804Y-93481227D01*
X68260765Y-93457428D01*
X68269030Y-93434329D01*
X68279520Y-93412150D01*
X68292132Y-93391107D01*
X68306747Y-93371401D01*
X68323223Y-93353223D01*
X68341401Y-93336747D01*
X68361107Y-93322132D01*
X68382150Y-93309520D01*
X68404329Y-93299030D01*
X68427428Y-93290765D01*
X68451227Y-93284804D01*
X68475495Y-93281204D01*
X68499999Y-93280000D01*
X69150001Y-93280000D01*
X69174505Y-93281204D01*
X69174505Y-93281204D01*
G37*
D11*
G04 #@! TD*
G04 #@! TO.P,R7,1*
G04 #@! TO.N,Net-(R7-Pad1)*
X68825000Y-93980000D03*
D10*
G04 #@! TO.N,Net-(LED1-Pad12)*
G04 #@! TO.C,R6*
G36*
X71224505Y-90741204D02*
X71248773Y-90744804D01*
X71272572Y-90750765D01*
X71295671Y-90759030D01*
X71317850Y-90769520D01*
X71338893Y-90782132D01*
X71358599Y-90796747D01*
X71376777Y-90813223D01*
X71393253Y-90831401D01*
X71407868Y-90851107D01*
X71420480Y-90872150D01*
X71430970Y-90894329D01*
X71439235Y-90917428D01*
X71445196Y-90941227D01*
X71448796Y-90965495D01*
X71450000Y-90989999D01*
X71450000Y-91890001D01*
X71448796Y-91914505D01*
X71445196Y-91938773D01*
X71439235Y-91962572D01*
X71430970Y-91985671D01*
X71420480Y-92007850D01*
X71407868Y-92028893D01*
X71393253Y-92048599D01*
X71376777Y-92066777D01*
X71358599Y-92083253D01*
X71338893Y-92097868D01*
X71317850Y-92110480D01*
X71295671Y-92120970D01*
X71272572Y-92129235D01*
X71248773Y-92135196D01*
X71224505Y-92138796D01*
X71200001Y-92140000D01*
X70549999Y-92140000D01*
X70525495Y-92138796D01*
X70501227Y-92135196D01*
X70477428Y-92129235D01*
X70454329Y-92120970D01*
X70432150Y-92110480D01*
X70411107Y-92097868D01*
X70391401Y-92083253D01*
X70373223Y-92066777D01*
X70356747Y-92048599D01*
X70342132Y-92028893D01*
X70329520Y-92007850D01*
X70319030Y-91985671D01*
X70310765Y-91962572D01*
X70304804Y-91938773D01*
X70301204Y-91914505D01*
X70300000Y-91890001D01*
X70300000Y-90989999D01*
X70301204Y-90965495D01*
X70304804Y-90941227D01*
X70310765Y-90917428D01*
X70319030Y-90894329D01*
X70329520Y-90872150D01*
X70342132Y-90851107D01*
X70356747Y-90831401D01*
X70373223Y-90813223D01*
X70391401Y-90796747D01*
X70411107Y-90782132D01*
X70432150Y-90769520D01*
X70454329Y-90759030D01*
X70477428Y-90750765D01*
X70501227Y-90744804D01*
X70525495Y-90741204D01*
X70549999Y-90740000D01*
X71200001Y-90740000D01*
X71224505Y-90741204D01*
X71224505Y-90741204D01*
G37*
D11*
G04 #@! TD*
G04 #@! TO.P,R6,2*
G04 #@! TO.N,Net-(LED1-Pad12)*
X70875000Y-91440000D03*
D10*
G04 #@! TO.N,Net-(R6-Pad1)*
G04 #@! TO.C,R6*
G36*
X69174505Y-90741204D02*
X69198773Y-90744804D01*
X69222572Y-90750765D01*
X69245671Y-90759030D01*
X69267850Y-90769520D01*
X69288893Y-90782132D01*
X69308599Y-90796747D01*
X69326777Y-90813223D01*
X69343253Y-90831401D01*
X69357868Y-90851107D01*
X69370480Y-90872150D01*
X69380970Y-90894329D01*
X69389235Y-90917428D01*
X69395196Y-90941227D01*
X69398796Y-90965495D01*
X69400000Y-90989999D01*
X69400000Y-91890001D01*
X69398796Y-91914505D01*
X69395196Y-91938773D01*
X69389235Y-91962572D01*
X69380970Y-91985671D01*
X69370480Y-92007850D01*
X69357868Y-92028893D01*
X69343253Y-92048599D01*
X69326777Y-92066777D01*
X69308599Y-92083253D01*
X69288893Y-92097868D01*
X69267850Y-92110480D01*
X69245671Y-92120970D01*
X69222572Y-92129235D01*
X69198773Y-92135196D01*
X69174505Y-92138796D01*
X69150001Y-92140000D01*
X68499999Y-92140000D01*
X68475495Y-92138796D01*
X68451227Y-92135196D01*
X68427428Y-92129235D01*
X68404329Y-92120970D01*
X68382150Y-92110480D01*
X68361107Y-92097868D01*
X68341401Y-92083253D01*
X68323223Y-92066777D01*
X68306747Y-92048599D01*
X68292132Y-92028893D01*
X68279520Y-92007850D01*
X68269030Y-91985671D01*
X68260765Y-91962572D01*
X68254804Y-91938773D01*
X68251204Y-91914505D01*
X68250000Y-91890001D01*
X68250000Y-90989999D01*
X68251204Y-90965495D01*
X68254804Y-90941227D01*
X68260765Y-90917428D01*
X68269030Y-90894329D01*
X68279520Y-90872150D01*
X68292132Y-90851107D01*
X68306747Y-90831401D01*
X68323223Y-90813223D01*
X68341401Y-90796747D01*
X68361107Y-90782132D01*
X68382150Y-90769520D01*
X68404329Y-90759030D01*
X68427428Y-90750765D01*
X68451227Y-90744804D01*
X68475495Y-90741204D01*
X68499999Y-90740000D01*
X69150001Y-90740000D01*
X69174505Y-90741204D01*
X69174505Y-90741204D01*
G37*
D11*
G04 #@! TD*
G04 #@! TO.P,R6,1*
G04 #@! TO.N,Net-(R6-Pad1)*
X68825000Y-91440000D03*
D10*
G04 #@! TO.N,Net-(LED1-Pad11)*
G04 #@! TO.C,R5*
G36*
X71224505Y-88201204D02*
X71248773Y-88204804D01*
X71272572Y-88210765D01*
X71295671Y-88219030D01*
X71317850Y-88229520D01*
X71338893Y-88242132D01*
X71358599Y-88256747D01*
X71376777Y-88273223D01*
X71393253Y-88291401D01*
X71407868Y-88311107D01*
X71420480Y-88332150D01*
X71430970Y-88354329D01*
X71439235Y-88377428D01*
X71445196Y-88401227D01*
X71448796Y-88425495D01*
X71450000Y-88449999D01*
X71450000Y-89350001D01*
X71448796Y-89374505D01*
X71445196Y-89398773D01*
X71439235Y-89422572D01*
X71430970Y-89445671D01*
X71420480Y-89467850D01*
X71407868Y-89488893D01*
X71393253Y-89508599D01*
X71376777Y-89526777D01*
X71358599Y-89543253D01*
X71338893Y-89557868D01*
X71317850Y-89570480D01*
X71295671Y-89580970D01*
X71272572Y-89589235D01*
X71248773Y-89595196D01*
X71224505Y-89598796D01*
X71200001Y-89600000D01*
X70549999Y-89600000D01*
X70525495Y-89598796D01*
X70501227Y-89595196D01*
X70477428Y-89589235D01*
X70454329Y-89580970D01*
X70432150Y-89570480D01*
X70411107Y-89557868D01*
X70391401Y-89543253D01*
X70373223Y-89526777D01*
X70356747Y-89508599D01*
X70342132Y-89488893D01*
X70329520Y-89467850D01*
X70319030Y-89445671D01*
X70310765Y-89422572D01*
X70304804Y-89398773D01*
X70301204Y-89374505D01*
X70300000Y-89350001D01*
X70300000Y-88449999D01*
X70301204Y-88425495D01*
X70304804Y-88401227D01*
X70310765Y-88377428D01*
X70319030Y-88354329D01*
X70329520Y-88332150D01*
X70342132Y-88311107D01*
X70356747Y-88291401D01*
X70373223Y-88273223D01*
X70391401Y-88256747D01*
X70411107Y-88242132D01*
X70432150Y-88229520D01*
X70454329Y-88219030D01*
X70477428Y-88210765D01*
X70501227Y-88204804D01*
X70525495Y-88201204D01*
X70549999Y-88200000D01*
X71200001Y-88200000D01*
X71224505Y-88201204D01*
X71224505Y-88201204D01*
G37*
D11*
G04 #@! TD*
G04 #@! TO.P,R5,2*
G04 #@! TO.N,Net-(LED1-Pad11)*
X70875000Y-88900000D03*
D10*
G04 #@! TO.N,Net-(R5-Pad1)*
G04 #@! TO.C,R5*
G36*
X69174505Y-88201204D02*
X69198773Y-88204804D01*
X69222572Y-88210765D01*
X69245671Y-88219030D01*
X69267850Y-88229520D01*
X69288893Y-88242132D01*
X69308599Y-88256747D01*
X69326777Y-88273223D01*
X69343253Y-88291401D01*
X69357868Y-88311107D01*
X69370480Y-88332150D01*
X69380970Y-88354329D01*
X69389235Y-88377428D01*
X69395196Y-88401227D01*
X69398796Y-88425495D01*
X69400000Y-88449999D01*
X69400000Y-89350001D01*
X69398796Y-89374505D01*
X69395196Y-89398773D01*
X69389235Y-89422572D01*
X69380970Y-89445671D01*
X69370480Y-89467850D01*
X69357868Y-89488893D01*
X69343253Y-89508599D01*
X69326777Y-89526777D01*
X69308599Y-89543253D01*
X69288893Y-89557868D01*
X69267850Y-89570480D01*
X69245671Y-89580970D01*
X69222572Y-89589235D01*
X69198773Y-89595196D01*
X69174505Y-89598796D01*
X69150001Y-89600000D01*
X68499999Y-89600000D01*
X68475495Y-89598796D01*
X68451227Y-89595196D01*
X68427428Y-89589235D01*
X68404329Y-89580970D01*
X68382150Y-89570480D01*
X68361107Y-89557868D01*
X68341401Y-89543253D01*
X68323223Y-89526777D01*
X68306747Y-89508599D01*
X68292132Y-89488893D01*
X68279520Y-89467850D01*
X68269030Y-89445671D01*
X68260765Y-89422572D01*
X68254804Y-89398773D01*
X68251204Y-89374505D01*
X68250000Y-89350001D01*
X68250000Y-88449999D01*
X68251204Y-88425495D01*
X68254804Y-88401227D01*
X68260765Y-88377428D01*
X68269030Y-88354329D01*
X68279520Y-88332150D01*
X68292132Y-88311107D01*
X68306747Y-88291401D01*
X68323223Y-88273223D01*
X68341401Y-88256747D01*
X68361107Y-88242132D01*
X68382150Y-88229520D01*
X68404329Y-88219030D01*
X68427428Y-88210765D01*
X68451227Y-88204804D01*
X68475495Y-88201204D01*
X68499999Y-88200000D01*
X69150001Y-88200000D01*
X69174505Y-88201204D01*
X69174505Y-88201204D01*
G37*
D11*
G04 #@! TD*
G04 #@! TO.P,R5,1*
G04 #@! TO.N,Net-(R5-Pad1)*
X68825000Y-88900000D03*
D10*
G04 #@! TO.N,Net-(LED1-Pad6)*
G04 #@! TO.C,R4*
G36*
X71224505Y-85661204D02*
X71248773Y-85664804D01*
X71272572Y-85670765D01*
X71295671Y-85679030D01*
X71317850Y-85689520D01*
X71338893Y-85702132D01*
X71358599Y-85716747D01*
X71376777Y-85733223D01*
X71393253Y-85751401D01*
X71407868Y-85771107D01*
X71420480Y-85792150D01*
X71430970Y-85814329D01*
X71439235Y-85837428D01*
X71445196Y-85861227D01*
X71448796Y-85885495D01*
X71450000Y-85909999D01*
X71450000Y-86810001D01*
X71448796Y-86834505D01*
X71445196Y-86858773D01*
X71439235Y-86882572D01*
X71430970Y-86905671D01*
X71420480Y-86927850D01*
X71407868Y-86948893D01*
X71393253Y-86968599D01*
X71376777Y-86986777D01*
X71358599Y-87003253D01*
X71338893Y-87017868D01*
X71317850Y-87030480D01*
X71295671Y-87040970D01*
X71272572Y-87049235D01*
X71248773Y-87055196D01*
X71224505Y-87058796D01*
X71200001Y-87060000D01*
X70549999Y-87060000D01*
X70525495Y-87058796D01*
X70501227Y-87055196D01*
X70477428Y-87049235D01*
X70454329Y-87040970D01*
X70432150Y-87030480D01*
X70411107Y-87017868D01*
X70391401Y-87003253D01*
X70373223Y-86986777D01*
X70356747Y-86968599D01*
X70342132Y-86948893D01*
X70329520Y-86927850D01*
X70319030Y-86905671D01*
X70310765Y-86882572D01*
X70304804Y-86858773D01*
X70301204Y-86834505D01*
X70300000Y-86810001D01*
X70300000Y-85909999D01*
X70301204Y-85885495D01*
X70304804Y-85861227D01*
X70310765Y-85837428D01*
X70319030Y-85814329D01*
X70329520Y-85792150D01*
X70342132Y-85771107D01*
X70356747Y-85751401D01*
X70373223Y-85733223D01*
X70391401Y-85716747D01*
X70411107Y-85702132D01*
X70432150Y-85689520D01*
X70454329Y-85679030D01*
X70477428Y-85670765D01*
X70501227Y-85664804D01*
X70525495Y-85661204D01*
X70549999Y-85660000D01*
X71200001Y-85660000D01*
X71224505Y-85661204D01*
X71224505Y-85661204D01*
G37*
D11*
G04 #@! TD*
G04 #@! TO.P,R4,2*
G04 #@! TO.N,Net-(LED1-Pad6)*
X70875000Y-86360000D03*
D10*
G04 #@! TO.N,Net-(R4-Pad1)*
G04 #@! TO.C,R4*
G36*
X69174505Y-85661204D02*
X69198773Y-85664804D01*
X69222572Y-85670765D01*
X69245671Y-85679030D01*
X69267850Y-85689520D01*
X69288893Y-85702132D01*
X69308599Y-85716747D01*
X69326777Y-85733223D01*
X69343253Y-85751401D01*
X69357868Y-85771107D01*
X69370480Y-85792150D01*
X69380970Y-85814329D01*
X69389235Y-85837428D01*
X69395196Y-85861227D01*
X69398796Y-85885495D01*
X69400000Y-85909999D01*
X69400000Y-86810001D01*
X69398796Y-86834505D01*
X69395196Y-86858773D01*
X69389235Y-86882572D01*
X69380970Y-86905671D01*
X69370480Y-86927850D01*
X69357868Y-86948893D01*
X69343253Y-86968599D01*
X69326777Y-86986777D01*
X69308599Y-87003253D01*
X69288893Y-87017868D01*
X69267850Y-87030480D01*
X69245671Y-87040970D01*
X69222572Y-87049235D01*
X69198773Y-87055196D01*
X69174505Y-87058796D01*
X69150001Y-87060000D01*
X68499999Y-87060000D01*
X68475495Y-87058796D01*
X68451227Y-87055196D01*
X68427428Y-87049235D01*
X68404329Y-87040970D01*
X68382150Y-87030480D01*
X68361107Y-87017868D01*
X68341401Y-87003253D01*
X68323223Y-86986777D01*
X68306747Y-86968599D01*
X68292132Y-86948893D01*
X68279520Y-86927850D01*
X68269030Y-86905671D01*
X68260765Y-86882572D01*
X68254804Y-86858773D01*
X68251204Y-86834505D01*
X68250000Y-86810001D01*
X68250000Y-85909999D01*
X68251204Y-85885495D01*
X68254804Y-85861227D01*
X68260765Y-85837428D01*
X68269030Y-85814329D01*
X68279520Y-85792150D01*
X68292132Y-85771107D01*
X68306747Y-85751401D01*
X68323223Y-85733223D01*
X68341401Y-85716747D01*
X68361107Y-85702132D01*
X68382150Y-85689520D01*
X68404329Y-85679030D01*
X68427428Y-85670765D01*
X68451227Y-85664804D01*
X68475495Y-85661204D01*
X68499999Y-85660000D01*
X69150001Y-85660000D01*
X69174505Y-85661204D01*
X69174505Y-85661204D01*
G37*
D11*
G04 #@! TD*
G04 #@! TO.P,R4,1*
G04 #@! TO.N,Net-(R4-Pad1)*
X68825000Y-86360000D03*
D10*
G04 #@! TO.N,Net-(LED1-Pad5)*
G04 #@! TO.C,R3*
G36*
X71224505Y-83121204D02*
X71248773Y-83124804D01*
X71272572Y-83130765D01*
X71295671Y-83139030D01*
X71317850Y-83149520D01*
X71338893Y-83162132D01*
X71358599Y-83176747D01*
X71376777Y-83193223D01*
X71393253Y-83211401D01*
X71407868Y-83231107D01*
X71420480Y-83252150D01*
X71430970Y-83274329D01*
X71439235Y-83297428D01*
X71445196Y-83321227D01*
X71448796Y-83345495D01*
X71450000Y-83369999D01*
X71450000Y-84270001D01*
X71448796Y-84294505D01*
X71445196Y-84318773D01*
X71439235Y-84342572D01*
X71430970Y-84365671D01*
X71420480Y-84387850D01*
X71407868Y-84408893D01*
X71393253Y-84428599D01*
X71376777Y-84446777D01*
X71358599Y-84463253D01*
X71338893Y-84477868D01*
X71317850Y-84490480D01*
X71295671Y-84500970D01*
X71272572Y-84509235D01*
X71248773Y-84515196D01*
X71224505Y-84518796D01*
X71200001Y-84520000D01*
X70549999Y-84520000D01*
X70525495Y-84518796D01*
X70501227Y-84515196D01*
X70477428Y-84509235D01*
X70454329Y-84500970D01*
X70432150Y-84490480D01*
X70411107Y-84477868D01*
X70391401Y-84463253D01*
X70373223Y-84446777D01*
X70356747Y-84428599D01*
X70342132Y-84408893D01*
X70329520Y-84387850D01*
X70319030Y-84365671D01*
X70310765Y-84342572D01*
X70304804Y-84318773D01*
X70301204Y-84294505D01*
X70300000Y-84270001D01*
X70300000Y-83369999D01*
X70301204Y-83345495D01*
X70304804Y-83321227D01*
X70310765Y-83297428D01*
X70319030Y-83274329D01*
X70329520Y-83252150D01*
X70342132Y-83231107D01*
X70356747Y-83211401D01*
X70373223Y-83193223D01*
X70391401Y-83176747D01*
X70411107Y-83162132D01*
X70432150Y-83149520D01*
X70454329Y-83139030D01*
X70477428Y-83130765D01*
X70501227Y-83124804D01*
X70525495Y-83121204D01*
X70549999Y-83120000D01*
X71200001Y-83120000D01*
X71224505Y-83121204D01*
X71224505Y-83121204D01*
G37*
D11*
G04 #@! TD*
G04 #@! TO.P,R3,2*
G04 #@! TO.N,Net-(LED1-Pad5)*
X70875000Y-83820000D03*
D10*
G04 #@! TO.N,Net-(R3-Pad1)*
G04 #@! TO.C,R3*
G36*
X69174505Y-83121204D02*
X69198773Y-83124804D01*
X69222572Y-83130765D01*
X69245671Y-83139030D01*
X69267850Y-83149520D01*
X69288893Y-83162132D01*
X69308599Y-83176747D01*
X69326777Y-83193223D01*
X69343253Y-83211401D01*
X69357868Y-83231107D01*
X69370480Y-83252150D01*
X69380970Y-83274329D01*
X69389235Y-83297428D01*
X69395196Y-83321227D01*
X69398796Y-83345495D01*
X69400000Y-83369999D01*
X69400000Y-84270001D01*
X69398796Y-84294505D01*
X69395196Y-84318773D01*
X69389235Y-84342572D01*
X69380970Y-84365671D01*
X69370480Y-84387850D01*
X69357868Y-84408893D01*
X69343253Y-84428599D01*
X69326777Y-84446777D01*
X69308599Y-84463253D01*
X69288893Y-84477868D01*
X69267850Y-84490480D01*
X69245671Y-84500970D01*
X69222572Y-84509235D01*
X69198773Y-84515196D01*
X69174505Y-84518796D01*
X69150001Y-84520000D01*
X68499999Y-84520000D01*
X68475495Y-84518796D01*
X68451227Y-84515196D01*
X68427428Y-84509235D01*
X68404329Y-84500970D01*
X68382150Y-84490480D01*
X68361107Y-84477868D01*
X68341401Y-84463253D01*
X68323223Y-84446777D01*
X68306747Y-84428599D01*
X68292132Y-84408893D01*
X68279520Y-84387850D01*
X68269030Y-84365671D01*
X68260765Y-84342572D01*
X68254804Y-84318773D01*
X68251204Y-84294505D01*
X68250000Y-84270001D01*
X68250000Y-83369999D01*
X68251204Y-83345495D01*
X68254804Y-83321227D01*
X68260765Y-83297428D01*
X68269030Y-83274329D01*
X68279520Y-83252150D01*
X68292132Y-83231107D01*
X68306747Y-83211401D01*
X68323223Y-83193223D01*
X68341401Y-83176747D01*
X68361107Y-83162132D01*
X68382150Y-83149520D01*
X68404329Y-83139030D01*
X68427428Y-83130765D01*
X68451227Y-83124804D01*
X68475495Y-83121204D01*
X68499999Y-83120000D01*
X69150001Y-83120000D01*
X69174505Y-83121204D01*
X69174505Y-83121204D01*
G37*
D11*
G04 #@! TD*
G04 #@! TO.P,R3,1*
G04 #@! TO.N,Net-(R3-Pad1)*
X68825000Y-83820000D03*
D10*
G04 #@! TO.N,Net-(LED2-Pad12)*
G04 #@! TO.C,R14*
G36*
X71224505Y-112331204D02*
X71248773Y-112334804D01*
X71272572Y-112340765D01*
X71295671Y-112349030D01*
X71317850Y-112359520D01*
X71338893Y-112372132D01*
X71358599Y-112386747D01*
X71376777Y-112403223D01*
X71393253Y-112421401D01*
X71407868Y-112441107D01*
X71420480Y-112462150D01*
X71430970Y-112484329D01*
X71439235Y-112507428D01*
X71445196Y-112531227D01*
X71448796Y-112555495D01*
X71450000Y-112579999D01*
X71450000Y-113480001D01*
X71448796Y-113504505D01*
X71445196Y-113528773D01*
X71439235Y-113552572D01*
X71430970Y-113575671D01*
X71420480Y-113597850D01*
X71407868Y-113618893D01*
X71393253Y-113638599D01*
X71376777Y-113656777D01*
X71358599Y-113673253D01*
X71338893Y-113687868D01*
X71317850Y-113700480D01*
X71295671Y-113710970D01*
X71272572Y-113719235D01*
X71248773Y-113725196D01*
X71224505Y-113728796D01*
X71200001Y-113730000D01*
X70549999Y-113730000D01*
X70525495Y-113728796D01*
X70501227Y-113725196D01*
X70477428Y-113719235D01*
X70454329Y-113710970D01*
X70432150Y-113700480D01*
X70411107Y-113687868D01*
X70391401Y-113673253D01*
X70373223Y-113656777D01*
X70356747Y-113638599D01*
X70342132Y-113618893D01*
X70329520Y-113597850D01*
X70319030Y-113575671D01*
X70310765Y-113552572D01*
X70304804Y-113528773D01*
X70301204Y-113504505D01*
X70300000Y-113480001D01*
X70300000Y-112579999D01*
X70301204Y-112555495D01*
X70304804Y-112531227D01*
X70310765Y-112507428D01*
X70319030Y-112484329D01*
X70329520Y-112462150D01*
X70342132Y-112441107D01*
X70356747Y-112421401D01*
X70373223Y-112403223D01*
X70391401Y-112386747D01*
X70411107Y-112372132D01*
X70432150Y-112359520D01*
X70454329Y-112349030D01*
X70477428Y-112340765D01*
X70501227Y-112334804D01*
X70525495Y-112331204D01*
X70549999Y-112330000D01*
X71200001Y-112330000D01*
X71224505Y-112331204D01*
X71224505Y-112331204D01*
G37*
D11*
G04 #@! TD*
G04 #@! TO.P,R14,2*
G04 #@! TO.N,Net-(LED2-Pad12)*
X70875000Y-113030000D03*
D10*
G04 #@! TO.N,Net-(R14-Pad1)*
G04 #@! TO.C,R14*
G36*
X69174505Y-112331204D02*
X69198773Y-112334804D01*
X69222572Y-112340765D01*
X69245671Y-112349030D01*
X69267850Y-112359520D01*
X69288893Y-112372132D01*
X69308599Y-112386747D01*
X69326777Y-112403223D01*
X69343253Y-112421401D01*
X69357868Y-112441107D01*
X69370480Y-112462150D01*
X69380970Y-112484329D01*
X69389235Y-112507428D01*
X69395196Y-112531227D01*
X69398796Y-112555495D01*
X69400000Y-112579999D01*
X69400000Y-113480001D01*
X69398796Y-113504505D01*
X69395196Y-113528773D01*
X69389235Y-113552572D01*
X69380970Y-113575671D01*
X69370480Y-113597850D01*
X69357868Y-113618893D01*
X69343253Y-113638599D01*
X69326777Y-113656777D01*
X69308599Y-113673253D01*
X69288893Y-113687868D01*
X69267850Y-113700480D01*
X69245671Y-113710970D01*
X69222572Y-113719235D01*
X69198773Y-113725196D01*
X69174505Y-113728796D01*
X69150001Y-113730000D01*
X68499999Y-113730000D01*
X68475495Y-113728796D01*
X68451227Y-113725196D01*
X68427428Y-113719235D01*
X68404329Y-113710970D01*
X68382150Y-113700480D01*
X68361107Y-113687868D01*
X68341401Y-113673253D01*
X68323223Y-113656777D01*
X68306747Y-113638599D01*
X68292132Y-113618893D01*
X68279520Y-113597850D01*
X68269030Y-113575671D01*
X68260765Y-113552572D01*
X68254804Y-113528773D01*
X68251204Y-113504505D01*
X68250000Y-113480001D01*
X68250000Y-112579999D01*
X68251204Y-112555495D01*
X68254804Y-112531227D01*
X68260765Y-112507428D01*
X68269030Y-112484329D01*
X68279520Y-112462150D01*
X68292132Y-112441107D01*
X68306747Y-112421401D01*
X68323223Y-112403223D01*
X68341401Y-112386747D01*
X68361107Y-112372132D01*
X68382150Y-112359520D01*
X68404329Y-112349030D01*
X68427428Y-112340765D01*
X68451227Y-112334804D01*
X68475495Y-112331204D01*
X68499999Y-112330000D01*
X69150001Y-112330000D01*
X69174505Y-112331204D01*
X69174505Y-112331204D01*
G37*
D11*
G04 #@! TD*
G04 #@! TO.P,R14,1*
G04 #@! TO.N,Net-(R14-Pad1)*
X68825000Y-113030000D03*
D10*
G04 #@! TO.N,Net-(LED1-Pad3)*
G04 #@! TO.C,R1*
G36*
X71224505Y-78041204D02*
X71248773Y-78044804D01*
X71272572Y-78050765D01*
X71295671Y-78059030D01*
X71317850Y-78069520D01*
X71338893Y-78082132D01*
X71358599Y-78096747D01*
X71376777Y-78113223D01*
X71393253Y-78131401D01*
X71407868Y-78151107D01*
X71420480Y-78172150D01*
X71430970Y-78194329D01*
X71439235Y-78217428D01*
X71445196Y-78241227D01*
X71448796Y-78265495D01*
X71450000Y-78289999D01*
X71450000Y-79190001D01*
X71448796Y-79214505D01*
X71445196Y-79238773D01*
X71439235Y-79262572D01*
X71430970Y-79285671D01*
X71420480Y-79307850D01*
X71407868Y-79328893D01*
X71393253Y-79348599D01*
X71376777Y-79366777D01*
X71358599Y-79383253D01*
X71338893Y-79397868D01*
X71317850Y-79410480D01*
X71295671Y-79420970D01*
X71272572Y-79429235D01*
X71248773Y-79435196D01*
X71224505Y-79438796D01*
X71200001Y-79440000D01*
X70549999Y-79440000D01*
X70525495Y-79438796D01*
X70501227Y-79435196D01*
X70477428Y-79429235D01*
X70454329Y-79420970D01*
X70432150Y-79410480D01*
X70411107Y-79397868D01*
X70391401Y-79383253D01*
X70373223Y-79366777D01*
X70356747Y-79348599D01*
X70342132Y-79328893D01*
X70329520Y-79307850D01*
X70319030Y-79285671D01*
X70310765Y-79262572D01*
X70304804Y-79238773D01*
X70301204Y-79214505D01*
X70300000Y-79190001D01*
X70300000Y-78289999D01*
X70301204Y-78265495D01*
X70304804Y-78241227D01*
X70310765Y-78217428D01*
X70319030Y-78194329D01*
X70329520Y-78172150D01*
X70342132Y-78151107D01*
X70356747Y-78131401D01*
X70373223Y-78113223D01*
X70391401Y-78096747D01*
X70411107Y-78082132D01*
X70432150Y-78069520D01*
X70454329Y-78059030D01*
X70477428Y-78050765D01*
X70501227Y-78044804D01*
X70525495Y-78041204D01*
X70549999Y-78040000D01*
X71200001Y-78040000D01*
X71224505Y-78041204D01*
X71224505Y-78041204D01*
G37*
D11*
G04 #@! TD*
G04 #@! TO.P,R1,2*
G04 #@! TO.N,Net-(LED1-Pad3)*
X70875000Y-78740000D03*
D10*
G04 #@! TO.N,Net-(R1-Pad1)*
G04 #@! TO.C,R1*
G36*
X69174505Y-78041204D02*
X69198773Y-78044804D01*
X69222572Y-78050765D01*
X69245671Y-78059030D01*
X69267850Y-78069520D01*
X69288893Y-78082132D01*
X69308599Y-78096747D01*
X69326777Y-78113223D01*
X69343253Y-78131401D01*
X69357868Y-78151107D01*
X69370480Y-78172150D01*
X69380970Y-78194329D01*
X69389235Y-78217428D01*
X69395196Y-78241227D01*
X69398796Y-78265495D01*
X69400000Y-78289999D01*
X69400000Y-79190001D01*
X69398796Y-79214505D01*
X69395196Y-79238773D01*
X69389235Y-79262572D01*
X69380970Y-79285671D01*
X69370480Y-79307850D01*
X69357868Y-79328893D01*
X69343253Y-79348599D01*
X69326777Y-79366777D01*
X69308599Y-79383253D01*
X69288893Y-79397868D01*
X69267850Y-79410480D01*
X69245671Y-79420970D01*
X69222572Y-79429235D01*
X69198773Y-79435196D01*
X69174505Y-79438796D01*
X69150001Y-79440000D01*
X68499999Y-79440000D01*
X68475495Y-79438796D01*
X68451227Y-79435196D01*
X68427428Y-79429235D01*
X68404329Y-79420970D01*
X68382150Y-79410480D01*
X68361107Y-79397868D01*
X68341401Y-79383253D01*
X68323223Y-79366777D01*
X68306747Y-79348599D01*
X68292132Y-79328893D01*
X68279520Y-79307850D01*
X68269030Y-79285671D01*
X68260765Y-79262572D01*
X68254804Y-79238773D01*
X68251204Y-79214505D01*
X68250000Y-79190001D01*
X68250000Y-78289999D01*
X68251204Y-78265495D01*
X68254804Y-78241227D01*
X68260765Y-78217428D01*
X68269030Y-78194329D01*
X68279520Y-78172150D01*
X68292132Y-78151107D01*
X68306747Y-78131401D01*
X68323223Y-78113223D01*
X68341401Y-78096747D01*
X68361107Y-78082132D01*
X68382150Y-78069520D01*
X68404329Y-78059030D01*
X68427428Y-78050765D01*
X68451227Y-78044804D01*
X68475495Y-78041204D01*
X68499999Y-78040000D01*
X69150001Y-78040000D01*
X69174505Y-78041204D01*
X69174505Y-78041204D01*
G37*
D11*
G04 #@! TD*
G04 #@! TO.P,R1,1*
G04 #@! TO.N,Net-(R1-Pad1)*
X68825000Y-78740000D03*
D10*
G04 #@! TO.N,Net-(LED5-Pad6)*
G04 #@! TO.C,R36*
G36*
X96839399Y-150291833D02*
X96863667Y-150295433D01*
X96887466Y-150301394D01*
X96910565Y-150309659D01*
X96932744Y-150320149D01*
X96953787Y-150332761D01*
X96973493Y-150347376D01*
X96991671Y-150363852D01*
X97008147Y-150382030D01*
X97022762Y-150401736D01*
X97035374Y-150422779D01*
X97045864Y-150444958D01*
X97054129Y-150468057D01*
X97060090Y-150491856D01*
X97063690Y-150516124D01*
X97064894Y-150540628D01*
X97064894Y-151440630D01*
X97063690Y-151465134D01*
X97060090Y-151489402D01*
X97054129Y-151513201D01*
X97045864Y-151536300D01*
X97035374Y-151558479D01*
X97022762Y-151579522D01*
X97008147Y-151599228D01*
X96991671Y-151617406D01*
X96973493Y-151633882D01*
X96953787Y-151648497D01*
X96932744Y-151661109D01*
X96910565Y-151671599D01*
X96887466Y-151679864D01*
X96863667Y-151685825D01*
X96839399Y-151689425D01*
X96814895Y-151690629D01*
X96164893Y-151690629D01*
X96140389Y-151689425D01*
X96116121Y-151685825D01*
X96092322Y-151679864D01*
X96069223Y-151671599D01*
X96047044Y-151661109D01*
X96026001Y-151648497D01*
X96006295Y-151633882D01*
X95988117Y-151617406D01*
X95971641Y-151599228D01*
X95957026Y-151579522D01*
X95944414Y-151558479D01*
X95933924Y-151536300D01*
X95925659Y-151513201D01*
X95919698Y-151489402D01*
X95916098Y-151465134D01*
X95914894Y-151440630D01*
X95914894Y-150540628D01*
X95916098Y-150516124D01*
X95919698Y-150491856D01*
X95925659Y-150468057D01*
X95933924Y-150444958D01*
X95944414Y-150422779D01*
X95957026Y-150401736D01*
X95971641Y-150382030D01*
X95988117Y-150363852D01*
X96006295Y-150347376D01*
X96026001Y-150332761D01*
X96047044Y-150320149D01*
X96069223Y-150309659D01*
X96092322Y-150301394D01*
X96116121Y-150295433D01*
X96140389Y-150291833D01*
X96164893Y-150290629D01*
X96814895Y-150290629D01*
X96839399Y-150291833D01*
X96839399Y-150291833D01*
G37*
D11*
G04 #@! TD*
G04 #@! TO.P,R36,2*
G04 #@! TO.N,Net-(LED5-Pad6)*
X96489894Y-150990629D03*
D10*
G04 #@! TO.N,Net-(R36-Pad1)*
G04 #@! TO.C,R36*
G36*
X94789399Y-150291833D02*
X94813667Y-150295433D01*
X94837466Y-150301394D01*
X94860565Y-150309659D01*
X94882744Y-150320149D01*
X94903787Y-150332761D01*
X94923493Y-150347376D01*
X94941671Y-150363852D01*
X94958147Y-150382030D01*
X94972762Y-150401736D01*
X94985374Y-150422779D01*
X94995864Y-150444958D01*
X95004129Y-150468057D01*
X95010090Y-150491856D01*
X95013690Y-150516124D01*
X95014894Y-150540628D01*
X95014894Y-151440630D01*
X95013690Y-151465134D01*
X95010090Y-151489402D01*
X95004129Y-151513201D01*
X94995864Y-151536300D01*
X94985374Y-151558479D01*
X94972762Y-151579522D01*
X94958147Y-151599228D01*
X94941671Y-151617406D01*
X94923493Y-151633882D01*
X94903787Y-151648497D01*
X94882744Y-151661109D01*
X94860565Y-151671599D01*
X94837466Y-151679864D01*
X94813667Y-151685825D01*
X94789399Y-151689425D01*
X94764895Y-151690629D01*
X94114893Y-151690629D01*
X94090389Y-151689425D01*
X94066121Y-151685825D01*
X94042322Y-151679864D01*
X94019223Y-151671599D01*
X93997044Y-151661109D01*
X93976001Y-151648497D01*
X93956295Y-151633882D01*
X93938117Y-151617406D01*
X93921641Y-151599228D01*
X93907026Y-151579522D01*
X93894414Y-151558479D01*
X93883924Y-151536300D01*
X93875659Y-151513201D01*
X93869698Y-151489402D01*
X93866098Y-151465134D01*
X93864894Y-151440630D01*
X93864894Y-150540628D01*
X93866098Y-150516124D01*
X93869698Y-150491856D01*
X93875659Y-150468057D01*
X93883924Y-150444958D01*
X93894414Y-150422779D01*
X93907026Y-150401736D01*
X93921641Y-150382030D01*
X93938117Y-150363852D01*
X93956295Y-150347376D01*
X93976001Y-150332761D01*
X93997044Y-150320149D01*
X94019223Y-150309659D01*
X94042322Y-150301394D01*
X94066121Y-150295433D01*
X94090389Y-150291833D01*
X94114893Y-150290629D01*
X94764895Y-150290629D01*
X94789399Y-150291833D01*
X94789399Y-150291833D01*
G37*
D11*
G04 #@! TD*
G04 #@! TO.P,R36,1*
G04 #@! TO.N,Net-(R36-Pad1)*
X94439894Y-150990629D03*
D10*
G04 #@! TO.N,Net-(LED5-Pad11)*
G04 #@! TO.C,R37*
G36*
X96839399Y-152831833D02*
X96863667Y-152835433D01*
X96887466Y-152841394D01*
X96910565Y-152849659D01*
X96932744Y-152860149D01*
X96953787Y-152872761D01*
X96973493Y-152887376D01*
X96991671Y-152903852D01*
X97008147Y-152922030D01*
X97022762Y-152941736D01*
X97035374Y-152962779D01*
X97045864Y-152984958D01*
X97054129Y-153008057D01*
X97060090Y-153031856D01*
X97063690Y-153056124D01*
X97064894Y-153080628D01*
X97064894Y-153980630D01*
X97063690Y-154005134D01*
X97060090Y-154029402D01*
X97054129Y-154053201D01*
X97045864Y-154076300D01*
X97035374Y-154098479D01*
X97022762Y-154119522D01*
X97008147Y-154139228D01*
X96991671Y-154157406D01*
X96973493Y-154173882D01*
X96953787Y-154188497D01*
X96932744Y-154201109D01*
X96910565Y-154211599D01*
X96887466Y-154219864D01*
X96863667Y-154225825D01*
X96839399Y-154229425D01*
X96814895Y-154230629D01*
X96164893Y-154230629D01*
X96140389Y-154229425D01*
X96116121Y-154225825D01*
X96092322Y-154219864D01*
X96069223Y-154211599D01*
X96047044Y-154201109D01*
X96026001Y-154188497D01*
X96006295Y-154173882D01*
X95988117Y-154157406D01*
X95971641Y-154139228D01*
X95957026Y-154119522D01*
X95944414Y-154098479D01*
X95933924Y-154076300D01*
X95925659Y-154053201D01*
X95919698Y-154029402D01*
X95916098Y-154005134D01*
X95914894Y-153980630D01*
X95914894Y-153080628D01*
X95916098Y-153056124D01*
X95919698Y-153031856D01*
X95925659Y-153008057D01*
X95933924Y-152984958D01*
X95944414Y-152962779D01*
X95957026Y-152941736D01*
X95971641Y-152922030D01*
X95988117Y-152903852D01*
X96006295Y-152887376D01*
X96026001Y-152872761D01*
X96047044Y-152860149D01*
X96069223Y-152849659D01*
X96092322Y-152841394D01*
X96116121Y-152835433D01*
X96140389Y-152831833D01*
X96164893Y-152830629D01*
X96814895Y-152830629D01*
X96839399Y-152831833D01*
X96839399Y-152831833D01*
G37*
D11*
G04 #@! TD*
G04 #@! TO.P,R37,2*
G04 #@! TO.N,Net-(LED5-Pad11)*
X96489894Y-153530629D03*
D10*
G04 #@! TO.N,Net-(R37-Pad1)*
G04 #@! TO.C,R37*
G36*
X94789399Y-152831833D02*
X94813667Y-152835433D01*
X94837466Y-152841394D01*
X94860565Y-152849659D01*
X94882744Y-152860149D01*
X94903787Y-152872761D01*
X94923493Y-152887376D01*
X94941671Y-152903852D01*
X94958147Y-152922030D01*
X94972762Y-152941736D01*
X94985374Y-152962779D01*
X94995864Y-152984958D01*
X95004129Y-153008057D01*
X95010090Y-153031856D01*
X95013690Y-153056124D01*
X95014894Y-153080628D01*
X95014894Y-153980630D01*
X95013690Y-154005134D01*
X95010090Y-154029402D01*
X95004129Y-154053201D01*
X94995864Y-154076300D01*
X94985374Y-154098479D01*
X94972762Y-154119522D01*
X94958147Y-154139228D01*
X94941671Y-154157406D01*
X94923493Y-154173882D01*
X94903787Y-154188497D01*
X94882744Y-154201109D01*
X94860565Y-154211599D01*
X94837466Y-154219864D01*
X94813667Y-154225825D01*
X94789399Y-154229425D01*
X94764895Y-154230629D01*
X94114893Y-154230629D01*
X94090389Y-154229425D01*
X94066121Y-154225825D01*
X94042322Y-154219864D01*
X94019223Y-154211599D01*
X93997044Y-154201109D01*
X93976001Y-154188497D01*
X93956295Y-154173882D01*
X93938117Y-154157406D01*
X93921641Y-154139228D01*
X93907026Y-154119522D01*
X93894414Y-154098479D01*
X93883924Y-154076300D01*
X93875659Y-154053201D01*
X93869698Y-154029402D01*
X93866098Y-154005134D01*
X93864894Y-153980630D01*
X93864894Y-153080628D01*
X93866098Y-153056124D01*
X93869698Y-153031856D01*
X93875659Y-153008057D01*
X93883924Y-152984958D01*
X93894414Y-152962779D01*
X93907026Y-152941736D01*
X93921641Y-152922030D01*
X93938117Y-152903852D01*
X93956295Y-152887376D01*
X93976001Y-152872761D01*
X93997044Y-152860149D01*
X94019223Y-152849659D01*
X94042322Y-152841394D01*
X94066121Y-152835433D01*
X94090389Y-152831833D01*
X94114893Y-152830629D01*
X94764895Y-152830629D01*
X94789399Y-152831833D01*
X94789399Y-152831833D01*
G37*
D11*
G04 #@! TD*
G04 #@! TO.P,R37,1*
G04 #@! TO.N,Net-(R37-Pad1)*
X94439894Y-153530629D03*
D10*
G04 #@! TO.N,Net-(LED5-Pad12)*
G04 #@! TO.C,R38*
G36*
X96839399Y-155371833D02*
X96863667Y-155375433D01*
X96887466Y-155381394D01*
X96910565Y-155389659D01*
X96932744Y-155400149D01*
X96953787Y-155412761D01*
X96973493Y-155427376D01*
X96991671Y-155443852D01*
X97008147Y-155462030D01*
X97022762Y-155481736D01*
X97035374Y-155502779D01*
X97045864Y-155524958D01*
X97054129Y-155548057D01*
X97060090Y-155571856D01*
X97063690Y-155596124D01*
X97064894Y-155620628D01*
X97064894Y-156520630D01*
X97063690Y-156545134D01*
X97060090Y-156569402D01*
X97054129Y-156593201D01*
X97045864Y-156616300D01*
X97035374Y-156638479D01*
X97022762Y-156659522D01*
X97008147Y-156679228D01*
X96991671Y-156697406D01*
X96973493Y-156713882D01*
X96953787Y-156728497D01*
X96932744Y-156741109D01*
X96910565Y-156751599D01*
X96887466Y-156759864D01*
X96863667Y-156765825D01*
X96839399Y-156769425D01*
X96814895Y-156770629D01*
X96164893Y-156770629D01*
X96140389Y-156769425D01*
X96116121Y-156765825D01*
X96092322Y-156759864D01*
X96069223Y-156751599D01*
X96047044Y-156741109D01*
X96026001Y-156728497D01*
X96006295Y-156713882D01*
X95988117Y-156697406D01*
X95971641Y-156679228D01*
X95957026Y-156659522D01*
X95944414Y-156638479D01*
X95933924Y-156616300D01*
X95925659Y-156593201D01*
X95919698Y-156569402D01*
X95916098Y-156545134D01*
X95914894Y-156520630D01*
X95914894Y-155620628D01*
X95916098Y-155596124D01*
X95919698Y-155571856D01*
X95925659Y-155548057D01*
X95933924Y-155524958D01*
X95944414Y-155502779D01*
X95957026Y-155481736D01*
X95971641Y-155462030D01*
X95988117Y-155443852D01*
X96006295Y-155427376D01*
X96026001Y-155412761D01*
X96047044Y-155400149D01*
X96069223Y-155389659D01*
X96092322Y-155381394D01*
X96116121Y-155375433D01*
X96140389Y-155371833D01*
X96164893Y-155370629D01*
X96814895Y-155370629D01*
X96839399Y-155371833D01*
X96839399Y-155371833D01*
G37*
D11*
G04 #@! TD*
G04 #@! TO.P,R38,2*
G04 #@! TO.N,Net-(LED5-Pad12)*
X96489894Y-156070629D03*
D10*
G04 #@! TO.N,Net-(R38-Pad1)*
G04 #@! TO.C,R38*
G36*
X94789399Y-155371833D02*
X94813667Y-155375433D01*
X94837466Y-155381394D01*
X94860565Y-155389659D01*
X94882744Y-155400149D01*
X94903787Y-155412761D01*
X94923493Y-155427376D01*
X94941671Y-155443852D01*
X94958147Y-155462030D01*
X94972762Y-155481736D01*
X94985374Y-155502779D01*
X94995864Y-155524958D01*
X95004129Y-155548057D01*
X95010090Y-155571856D01*
X95013690Y-155596124D01*
X95014894Y-155620628D01*
X95014894Y-156520630D01*
X95013690Y-156545134D01*
X95010090Y-156569402D01*
X95004129Y-156593201D01*
X94995864Y-156616300D01*
X94985374Y-156638479D01*
X94972762Y-156659522D01*
X94958147Y-156679228D01*
X94941671Y-156697406D01*
X94923493Y-156713882D01*
X94903787Y-156728497D01*
X94882744Y-156741109D01*
X94860565Y-156751599D01*
X94837466Y-156759864D01*
X94813667Y-156765825D01*
X94789399Y-156769425D01*
X94764895Y-156770629D01*
X94114893Y-156770629D01*
X94090389Y-156769425D01*
X94066121Y-156765825D01*
X94042322Y-156759864D01*
X94019223Y-156751599D01*
X93997044Y-156741109D01*
X93976001Y-156728497D01*
X93956295Y-156713882D01*
X93938117Y-156697406D01*
X93921641Y-156679228D01*
X93907026Y-156659522D01*
X93894414Y-156638479D01*
X93883924Y-156616300D01*
X93875659Y-156593201D01*
X93869698Y-156569402D01*
X93866098Y-156545134D01*
X93864894Y-156520630D01*
X93864894Y-155620628D01*
X93866098Y-155596124D01*
X93869698Y-155571856D01*
X93875659Y-155548057D01*
X93883924Y-155524958D01*
X93894414Y-155502779D01*
X93907026Y-155481736D01*
X93921641Y-155462030D01*
X93938117Y-155443852D01*
X93956295Y-155427376D01*
X93976001Y-155412761D01*
X93997044Y-155400149D01*
X94019223Y-155389659D01*
X94042322Y-155381394D01*
X94066121Y-155375433D01*
X94090389Y-155371833D01*
X94114893Y-155370629D01*
X94764895Y-155370629D01*
X94789399Y-155371833D01*
X94789399Y-155371833D01*
G37*
D11*
G04 #@! TD*
G04 #@! TO.P,R38,1*
G04 #@! TO.N,Net-(R38-Pad1)*
X94439894Y-156070629D03*
D10*
G04 #@! TO.N,Net-(LED5-Pad13)*
G04 #@! TO.C,R39*
G36*
X96839399Y-157911833D02*
X96863667Y-157915433D01*
X96887466Y-157921394D01*
X96910565Y-157929659D01*
X96932744Y-157940149D01*
X96953787Y-157952761D01*
X96973493Y-157967376D01*
X96991671Y-157983852D01*
X97008147Y-158002030D01*
X97022762Y-158021736D01*
X97035374Y-158042779D01*
X97045864Y-158064958D01*
X97054129Y-158088057D01*
X97060090Y-158111856D01*
X97063690Y-158136124D01*
X97064894Y-158160628D01*
X97064894Y-159060630D01*
X97063690Y-159085134D01*
X97060090Y-159109402D01*
X97054129Y-159133201D01*
X97045864Y-159156300D01*
X97035374Y-159178479D01*
X97022762Y-159199522D01*
X97008147Y-159219228D01*
X96991671Y-159237406D01*
X96973493Y-159253882D01*
X96953787Y-159268497D01*
X96932744Y-159281109D01*
X96910565Y-159291599D01*
X96887466Y-159299864D01*
X96863667Y-159305825D01*
X96839399Y-159309425D01*
X96814895Y-159310629D01*
X96164893Y-159310629D01*
X96140389Y-159309425D01*
X96116121Y-159305825D01*
X96092322Y-159299864D01*
X96069223Y-159291599D01*
X96047044Y-159281109D01*
X96026001Y-159268497D01*
X96006295Y-159253882D01*
X95988117Y-159237406D01*
X95971641Y-159219228D01*
X95957026Y-159199522D01*
X95944414Y-159178479D01*
X95933924Y-159156300D01*
X95925659Y-159133201D01*
X95919698Y-159109402D01*
X95916098Y-159085134D01*
X95914894Y-159060630D01*
X95914894Y-158160628D01*
X95916098Y-158136124D01*
X95919698Y-158111856D01*
X95925659Y-158088057D01*
X95933924Y-158064958D01*
X95944414Y-158042779D01*
X95957026Y-158021736D01*
X95971641Y-158002030D01*
X95988117Y-157983852D01*
X96006295Y-157967376D01*
X96026001Y-157952761D01*
X96047044Y-157940149D01*
X96069223Y-157929659D01*
X96092322Y-157921394D01*
X96116121Y-157915433D01*
X96140389Y-157911833D01*
X96164893Y-157910629D01*
X96814895Y-157910629D01*
X96839399Y-157911833D01*
X96839399Y-157911833D01*
G37*
D11*
G04 #@! TD*
G04 #@! TO.P,R39,2*
G04 #@! TO.N,Net-(LED5-Pad13)*
X96489894Y-158610629D03*
D10*
G04 #@! TO.N,Net-(R39-Pad1)*
G04 #@! TO.C,R39*
G36*
X94789399Y-157911833D02*
X94813667Y-157915433D01*
X94837466Y-157921394D01*
X94860565Y-157929659D01*
X94882744Y-157940149D01*
X94903787Y-157952761D01*
X94923493Y-157967376D01*
X94941671Y-157983852D01*
X94958147Y-158002030D01*
X94972762Y-158021736D01*
X94985374Y-158042779D01*
X94995864Y-158064958D01*
X95004129Y-158088057D01*
X95010090Y-158111856D01*
X95013690Y-158136124D01*
X95014894Y-158160628D01*
X95014894Y-159060630D01*
X95013690Y-159085134D01*
X95010090Y-159109402D01*
X95004129Y-159133201D01*
X94995864Y-159156300D01*
X94985374Y-159178479D01*
X94972762Y-159199522D01*
X94958147Y-159219228D01*
X94941671Y-159237406D01*
X94923493Y-159253882D01*
X94903787Y-159268497D01*
X94882744Y-159281109D01*
X94860565Y-159291599D01*
X94837466Y-159299864D01*
X94813667Y-159305825D01*
X94789399Y-159309425D01*
X94764895Y-159310629D01*
X94114893Y-159310629D01*
X94090389Y-159309425D01*
X94066121Y-159305825D01*
X94042322Y-159299864D01*
X94019223Y-159291599D01*
X93997044Y-159281109D01*
X93976001Y-159268497D01*
X93956295Y-159253882D01*
X93938117Y-159237406D01*
X93921641Y-159219228D01*
X93907026Y-159199522D01*
X93894414Y-159178479D01*
X93883924Y-159156300D01*
X93875659Y-159133201D01*
X93869698Y-159109402D01*
X93866098Y-159085134D01*
X93864894Y-159060630D01*
X93864894Y-158160628D01*
X93866098Y-158136124D01*
X93869698Y-158111856D01*
X93875659Y-158088057D01*
X93883924Y-158064958D01*
X93894414Y-158042779D01*
X93907026Y-158021736D01*
X93921641Y-158002030D01*
X93938117Y-157983852D01*
X93956295Y-157967376D01*
X93976001Y-157952761D01*
X93997044Y-157940149D01*
X94019223Y-157929659D01*
X94042322Y-157921394D01*
X94066121Y-157915433D01*
X94090389Y-157911833D01*
X94114893Y-157910629D01*
X94764895Y-157910629D01*
X94789399Y-157911833D01*
X94789399Y-157911833D01*
G37*
D11*
G04 #@! TD*
G04 #@! TO.P,R39,1*
G04 #@! TO.N,Net-(R39-Pad1)*
X94439894Y-158610629D03*
D10*
G04 #@! TO.N,Net-(LED5-Pad14)*
G04 #@! TO.C,R40*
G36*
X96839399Y-160451833D02*
X96863667Y-160455433D01*
X96887466Y-160461394D01*
X96910565Y-160469659D01*
X96932744Y-160480149D01*
X96953787Y-160492761D01*
X96973493Y-160507376D01*
X96991671Y-160523852D01*
X97008147Y-160542030D01*
X97022762Y-160561736D01*
X97035374Y-160582779D01*
X97045864Y-160604958D01*
X97054129Y-160628057D01*
X97060090Y-160651856D01*
X97063690Y-160676124D01*
X97064894Y-160700628D01*
X97064894Y-161600630D01*
X97063690Y-161625134D01*
X97060090Y-161649402D01*
X97054129Y-161673201D01*
X97045864Y-161696300D01*
X97035374Y-161718479D01*
X97022762Y-161739522D01*
X97008147Y-161759228D01*
X96991671Y-161777406D01*
X96973493Y-161793882D01*
X96953787Y-161808497D01*
X96932744Y-161821109D01*
X96910565Y-161831599D01*
X96887466Y-161839864D01*
X96863667Y-161845825D01*
X96839399Y-161849425D01*
X96814895Y-161850629D01*
X96164893Y-161850629D01*
X96140389Y-161849425D01*
X96116121Y-161845825D01*
X96092322Y-161839864D01*
X96069223Y-161831599D01*
X96047044Y-161821109D01*
X96026001Y-161808497D01*
X96006295Y-161793882D01*
X95988117Y-161777406D01*
X95971641Y-161759228D01*
X95957026Y-161739522D01*
X95944414Y-161718479D01*
X95933924Y-161696300D01*
X95925659Y-161673201D01*
X95919698Y-161649402D01*
X95916098Y-161625134D01*
X95914894Y-161600630D01*
X95914894Y-160700628D01*
X95916098Y-160676124D01*
X95919698Y-160651856D01*
X95925659Y-160628057D01*
X95933924Y-160604958D01*
X95944414Y-160582779D01*
X95957026Y-160561736D01*
X95971641Y-160542030D01*
X95988117Y-160523852D01*
X96006295Y-160507376D01*
X96026001Y-160492761D01*
X96047044Y-160480149D01*
X96069223Y-160469659D01*
X96092322Y-160461394D01*
X96116121Y-160455433D01*
X96140389Y-160451833D01*
X96164893Y-160450629D01*
X96814895Y-160450629D01*
X96839399Y-160451833D01*
X96839399Y-160451833D01*
G37*
D11*
G04 #@! TD*
G04 #@! TO.P,R40,2*
G04 #@! TO.N,Net-(LED5-Pad14)*
X96489894Y-161150629D03*
D10*
G04 #@! TO.N,Net-(R40-Pad1)*
G04 #@! TO.C,R40*
G36*
X94789399Y-160451833D02*
X94813667Y-160455433D01*
X94837466Y-160461394D01*
X94860565Y-160469659D01*
X94882744Y-160480149D01*
X94903787Y-160492761D01*
X94923493Y-160507376D01*
X94941671Y-160523852D01*
X94958147Y-160542030D01*
X94972762Y-160561736D01*
X94985374Y-160582779D01*
X94995864Y-160604958D01*
X95004129Y-160628057D01*
X95010090Y-160651856D01*
X95013690Y-160676124D01*
X95014894Y-160700628D01*
X95014894Y-161600630D01*
X95013690Y-161625134D01*
X95010090Y-161649402D01*
X95004129Y-161673201D01*
X94995864Y-161696300D01*
X94985374Y-161718479D01*
X94972762Y-161739522D01*
X94958147Y-161759228D01*
X94941671Y-161777406D01*
X94923493Y-161793882D01*
X94903787Y-161808497D01*
X94882744Y-161821109D01*
X94860565Y-161831599D01*
X94837466Y-161839864D01*
X94813667Y-161845825D01*
X94789399Y-161849425D01*
X94764895Y-161850629D01*
X94114893Y-161850629D01*
X94090389Y-161849425D01*
X94066121Y-161845825D01*
X94042322Y-161839864D01*
X94019223Y-161831599D01*
X93997044Y-161821109D01*
X93976001Y-161808497D01*
X93956295Y-161793882D01*
X93938117Y-161777406D01*
X93921641Y-161759228D01*
X93907026Y-161739522D01*
X93894414Y-161718479D01*
X93883924Y-161696300D01*
X93875659Y-161673201D01*
X93869698Y-161649402D01*
X93866098Y-161625134D01*
X93864894Y-161600630D01*
X93864894Y-160700628D01*
X93866098Y-160676124D01*
X93869698Y-160651856D01*
X93875659Y-160628057D01*
X93883924Y-160604958D01*
X93894414Y-160582779D01*
X93907026Y-160561736D01*
X93921641Y-160542030D01*
X93938117Y-160523852D01*
X93956295Y-160507376D01*
X93976001Y-160492761D01*
X93997044Y-160480149D01*
X94019223Y-160469659D01*
X94042322Y-160461394D01*
X94066121Y-160455433D01*
X94090389Y-160451833D01*
X94114893Y-160450629D01*
X94764895Y-160450629D01*
X94789399Y-160451833D01*
X94789399Y-160451833D01*
G37*
D11*
G04 #@! TD*
G04 #@! TO.P,R40,1*
G04 #@! TO.N,Net-(R40-Pad1)*
X94439894Y-161150629D03*
D10*
G04 #@! TO.N,Net-(LED2-Pad6)*
G04 #@! TO.C,R12*
G36*
X71224505Y-107251204D02*
X71248773Y-107254804D01*
X71272572Y-107260765D01*
X71295671Y-107269030D01*
X71317850Y-107279520D01*
X71338893Y-107292132D01*
X71358599Y-107306747D01*
X71376777Y-107323223D01*
X71393253Y-107341401D01*
X71407868Y-107361107D01*
X71420480Y-107382150D01*
X71430970Y-107404329D01*
X71439235Y-107427428D01*
X71445196Y-107451227D01*
X71448796Y-107475495D01*
X71450000Y-107499999D01*
X71450000Y-108400001D01*
X71448796Y-108424505D01*
X71445196Y-108448773D01*
X71439235Y-108472572D01*
X71430970Y-108495671D01*
X71420480Y-108517850D01*
X71407868Y-108538893D01*
X71393253Y-108558599D01*
X71376777Y-108576777D01*
X71358599Y-108593253D01*
X71338893Y-108607868D01*
X71317850Y-108620480D01*
X71295671Y-108630970D01*
X71272572Y-108639235D01*
X71248773Y-108645196D01*
X71224505Y-108648796D01*
X71200001Y-108650000D01*
X70549999Y-108650000D01*
X70525495Y-108648796D01*
X70501227Y-108645196D01*
X70477428Y-108639235D01*
X70454329Y-108630970D01*
X70432150Y-108620480D01*
X70411107Y-108607868D01*
X70391401Y-108593253D01*
X70373223Y-108576777D01*
X70356747Y-108558599D01*
X70342132Y-108538893D01*
X70329520Y-108517850D01*
X70319030Y-108495671D01*
X70310765Y-108472572D01*
X70304804Y-108448773D01*
X70301204Y-108424505D01*
X70300000Y-108400001D01*
X70300000Y-107499999D01*
X70301204Y-107475495D01*
X70304804Y-107451227D01*
X70310765Y-107427428D01*
X70319030Y-107404329D01*
X70329520Y-107382150D01*
X70342132Y-107361107D01*
X70356747Y-107341401D01*
X70373223Y-107323223D01*
X70391401Y-107306747D01*
X70411107Y-107292132D01*
X70432150Y-107279520D01*
X70454329Y-107269030D01*
X70477428Y-107260765D01*
X70501227Y-107254804D01*
X70525495Y-107251204D01*
X70549999Y-107250000D01*
X71200001Y-107250000D01*
X71224505Y-107251204D01*
X71224505Y-107251204D01*
G37*
D11*
G04 #@! TD*
G04 #@! TO.P,R12,2*
G04 #@! TO.N,Net-(LED2-Pad6)*
X70875000Y-107950000D03*
D10*
G04 #@! TO.N,Net-(R12-Pad1)*
G04 #@! TO.C,R12*
G36*
X69174505Y-107251204D02*
X69198773Y-107254804D01*
X69222572Y-107260765D01*
X69245671Y-107269030D01*
X69267850Y-107279520D01*
X69288893Y-107292132D01*
X69308599Y-107306747D01*
X69326777Y-107323223D01*
X69343253Y-107341401D01*
X69357868Y-107361107D01*
X69370480Y-107382150D01*
X69380970Y-107404329D01*
X69389235Y-107427428D01*
X69395196Y-107451227D01*
X69398796Y-107475495D01*
X69400000Y-107499999D01*
X69400000Y-108400001D01*
X69398796Y-108424505D01*
X69395196Y-108448773D01*
X69389235Y-108472572D01*
X69380970Y-108495671D01*
X69370480Y-108517850D01*
X69357868Y-108538893D01*
X69343253Y-108558599D01*
X69326777Y-108576777D01*
X69308599Y-108593253D01*
X69288893Y-108607868D01*
X69267850Y-108620480D01*
X69245671Y-108630970D01*
X69222572Y-108639235D01*
X69198773Y-108645196D01*
X69174505Y-108648796D01*
X69150001Y-108650000D01*
X68499999Y-108650000D01*
X68475495Y-108648796D01*
X68451227Y-108645196D01*
X68427428Y-108639235D01*
X68404329Y-108630970D01*
X68382150Y-108620480D01*
X68361107Y-108607868D01*
X68341401Y-108593253D01*
X68323223Y-108576777D01*
X68306747Y-108558599D01*
X68292132Y-108538893D01*
X68279520Y-108517850D01*
X68269030Y-108495671D01*
X68260765Y-108472572D01*
X68254804Y-108448773D01*
X68251204Y-108424505D01*
X68250000Y-108400001D01*
X68250000Y-107499999D01*
X68251204Y-107475495D01*
X68254804Y-107451227D01*
X68260765Y-107427428D01*
X68269030Y-107404329D01*
X68279520Y-107382150D01*
X68292132Y-107361107D01*
X68306747Y-107341401D01*
X68323223Y-107323223D01*
X68341401Y-107306747D01*
X68361107Y-107292132D01*
X68382150Y-107279520D01*
X68404329Y-107269030D01*
X68427428Y-107260765D01*
X68451227Y-107254804D01*
X68475495Y-107251204D01*
X68499999Y-107250000D01*
X69150001Y-107250000D01*
X69174505Y-107251204D01*
X69174505Y-107251204D01*
G37*
D11*
G04 #@! TD*
G04 #@! TO.P,R12,1*
G04 #@! TO.N,Net-(R12-Pad1)*
X68825000Y-107950000D03*
D10*
G04 #@! TO.N,Net-(LED5-Pad5)*
G04 #@! TO.C,R35*
G36*
X96851066Y-147751833D02*
X96875334Y-147755433D01*
X96899133Y-147761394D01*
X96922232Y-147769659D01*
X96944411Y-147780149D01*
X96965454Y-147792761D01*
X96985160Y-147807376D01*
X97003338Y-147823852D01*
X97019814Y-147842030D01*
X97034429Y-147861736D01*
X97047041Y-147882779D01*
X97057531Y-147904958D01*
X97065796Y-147928057D01*
X97071757Y-147951856D01*
X97075357Y-147976124D01*
X97076561Y-148000628D01*
X97076561Y-148900630D01*
X97075357Y-148925134D01*
X97071757Y-148949402D01*
X97065796Y-148973201D01*
X97057531Y-148996300D01*
X97047041Y-149018479D01*
X97034429Y-149039522D01*
X97019814Y-149059228D01*
X97003338Y-149077406D01*
X96985160Y-149093882D01*
X96965454Y-149108497D01*
X96944411Y-149121109D01*
X96922232Y-149131599D01*
X96899133Y-149139864D01*
X96875334Y-149145825D01*
X96851066Y-149149425D01*
X96826562Y-149150629D01*
X96176560Y-149150629D01*
X96152056Y-149149425D01*
X96127788Y-149145825D01*
X96103989Y-149139864D01*
X96080890Y-149131599D01*
X96058711Y-149121109D01*
X96037668Y-149108497D01*
X96017962Y-149093882D01*
X95999784Y-149077406D01*
X95983308Y-149059228D01*
X95968693Y-149039522D01*
X95956081Y-149018479D01*
X95945591Y-148996300D01*
X95937326Y-148973201D01*
X95931365Y-148949402D01*
X95927765Y-148925134D01*
X95926561Y-148900630D01*
X95926561Y-148000628D01*
X95927765Y-147976124D01*
X95931365Y-147951856D01*
X95937326Y-147928057D01*
X95945591Y-147904958D01*
X95956081Y-147882779D01*
X95968693Y-147861736D01*
X95983308Y-147842030D01*
X95999784Y-147823852D01*
X96017962Y-147807376D01*
X96037668Y-147792761D01*
X96058711Y-147780149D01*
X96080890Y-147769659D01*
X96103989Y-147761394D01*
X96127788Y-147755433D01*
X96152056Y-147751833D01*
X96176560Y-147750629D01*
X96826562Y-147750629D01*
X96851066Y-147751833D01*
X96851066Y-147751833D01*
G37*
D11*
G04 #@! TD*
G04 #@! TO.P,R35,2*
G04 #@! TO.N,Net-(LED5-Pad5)*
X96501561Y-148450629D03*
D10*
G04 #@! TO.N,Net-(R35-Pad1)*
G04 #@! TO.C,R35*
G36*
X94801066Y-147751833D02*
X94825334Y-147755433D01*
X94849133Y-147761394D01*
X94872232Y-147769659D01*
X94894411Y-147780149D01*
X94915454Y-147792761D01*
X94935160Y-147807376D01*
X94953338Y-147823852D01*
X94969814Y-147842030D01*
X94984429Y-147861736D01*
X94997041Y-147882779D01*
X95007531Y-147904958D01*
X95015796Y-147928057D01*
X95021757Y-147951856D01*
X95025357Y-147976124D01*
X95026561Y-148000628D01*
X95026561Y-148900630D01*
X95025357Y-148925134D01*
X95021757Y-148949402D01*
X95015796Y-148973201D01*
X95007531Y-148996300D01*
X94997041Y-149018479D01*
X94984429Y-149039522D01*
X94969814Y-149059228D01*
X94953338Y-149077406D01*
X94935160Y-149093882D01*
X94915454Y-149108497D01*
X94894411Y-149121109D01*
X94872232Y-149131599D01*
X94849133Y-149139864D01*
X94825334Y-149145825D01*
X94801066Y-149149425D01*
X94776562Y-149150629D01*
X94126560Y-149150629D01*
X94102056Y-149149425D01*
X94077788Y-149145825D01*
X94053989Y-149139864D01*
X94030890Y-149131599D01*
X94008711Y-149121109D01*
X93987668Y-149108497D01*
X93967962Y-149093882D01*
X93949784Y-149077406D01*
X93933308Y-149059228D01*
X93918693Y-149039522D01*
X93906081Y-149018479D01*
X93895591Y-148996300D01*
X93887326Y-148973201D01*
X93881365Y-148949402D01*
X93877765Y-148925134D01*
X93876561Y-148900630D01*
X93876561Y-148000628D01*
X93877765Y-147976124D01*
X93881365Y-147951856D01*
X93887326Y-147928057D01*
X93895591Y-147904958D01*
X93906081Y-147882779D01*
X93918693Y-147861736D01*
X93933308Y-147842030D01*
X93949784Y-147823852D01*
X93967962Y-147807376D01*
X93987668Y-147792761D01*
X94008711Y-147780149D01*
X94030890Y-147769659D01*
X94053989Y-147761394D01*
X94077788Y-147755433D01*
X94102056Y-147751833D01*
X94126560Y-147750629D01*
X94776562Y-147750629D01*
X94801066Y-147751833D01*
X94801066Y-147751833D01*
G37*
D11*
G04 #@! TD*
G04 #@! TO.P,R35,1*
G04 #@! TO.N,Net-(R35-Pad1)*
X94451561Y-148450629D03*
D10*
G04 #@! TO.N,Net-(LED5-Pad4)*
G04 #@! TO.C,R34*
G36*
X96839399Y-145211833D02*
X96863667Y-145215433D01*
X96887466Y-145221394D01*
X96910565Y-145229659D01*
X96932744Y-145240149D01*
X96953787Y-145252761D01*
X96973493Y-145267376D01*
X96991671Y-145283852D01*
X97008147Y-145302030D01*
X97022762Y-145321736D01*
X97035374Y-145342779D01*
X97045864Y-145364958D01*
X97054129Y-145388057D01*
X97060090Y-145411856D01*
X97063690Y-145436124D01*
X97064894Y-145460628D01*
X97064894Y-146360630D01*
X97063690Y-146385134D01*
X97060090Y-146409402D01*
X97054129Y-146433201D01*
X97045864Y-146456300D01*
X97035374Y-146478479D01*
X97022762Y-146499522D01*
X97008147Y-146519228D01*
X96991671Y-146537406D01*
X96973493Y-146553882D01*
X96953787Y-146568497D01*
X96932744Y-146581109D01*
X96910565Y-146591599D01*
X96887466Y-146599864D01*
X96863667Y-146605825D01*
X96839399Y-146609425D01*
X96814895Y-146610629D01*
X96164893Y-146610629D01*
X96140389Y-146609425D01*
X96116121Y-146605825D01*
X96092322Y-146599864D01*
X96069223Y-146591599D01*
X96047044Y-146581109D01*
X96026001Y-146568497D01*
X96006295Y-146553882D01*
X95988117Y-146537406D01*
X95971641Y-146519228D01*
X95957026Y-146499522D01*
X95944414Y-146478479D01*
X95933924Y-146456300D01*
X95925659Y-146433201D01*
X95919698Y-146409402D01*
X95916098Y-146385134D01*
X95914894Y-146360630D01*
X95914894Y-145460628D01*
X95916098Y-145436124D01*
X95919698Y-145411856D01*
X95925659Y-145388057D01*
X95933924Y-145364958D01*
X95944414Y-145342779D01*
X95957026Y-145321736D01*
X95971641Y-145302030D01*
X95988117Y-145283852D01*
X96006295Y-145267376D01*
X96026001Y-145252761D01*
X96047044Y-145240149D01*
X96069223Y-145229659D01*
X96092322Y-145221394D01*
X96116121Y-145215433D01*
X96140389Y-145211833D01*
X96164893Y-145210629D01*
X96814895Y-145210629D01*
X96839399Y-145211833D01*
X96839399Y-145211833D01*
G37*
D11*
G04 #@! TD*
G04 #@! TO.P,R34,2*
G04 #@! TO.N,Net-(LED5-Pad4)*
X96489894Y-145910629D03*
D10*
G04 #@! TO.N,Net-(R34-Pad1)*
G04 #@! TO.C,R34*
G36*
X94789399Y-145211833D02*
X94813667Y-145215433D01*
X94837466Y-145221394D01*
X94860565Y-145229659D01*
X94882744Y-145240149D01*
X94903787Y-145252761D01*
X94923493Y-145267376D01*
X94941671Y-145283852D01*
X94958147Y-145302030D01*
X94972762Y-145321736D01*
X94985374Y-145342779D01*
X94995864Y-145364958D01*
X95004129Y-145388057D01*
X95010090Y-145411856D01*
X95013690Y-145436124D01*
X95014894Y-145460628D01*
X95014894Y-146360630D01*
X95013690Y-146385134D01*
X95010090Y-146409402D01*
X95004129Y-146433201D01*
X94995864Y-146456300D01*
X94985374Y-146478479D01*
X94972762Y-146499522D01*
X94958147Y-146519228D01*
X94941671Y-146537406D01*
X94923493Y-146553882D01*
X94903787Y-146568497D01*
X94882744Y-146581109D01*
X94860565Y-146591599D01*
X94837466Y-146599864D01*
X94813667Y-146605825D01*
X94789399Y-146609425D01*
X94764895Y-146610629D01*
X94114893Y-146610629D01*
X94090389Y-146609425D01*
X94066121Y-146605825D01*
X94042322Y-146599864D01*
X94019223Y-146591599D01*
X93997044Y-146581109D01*
X93976001Y-146568497D01*
X93956295Y-146553882D01*
X93938117Y-146537406D01*
X93921641Y-146519228D01*
X93907026Y-146499522D01*
X93894414Y-146478479D01*
X93883924Y-146456300D01*
X93875659Y-146433201D01*
X93869698Y-146409402D01*
X93866098Y-146385134D01*
X93864894Y-146360630D01*
X93864894Y-145460628D01*
X93866098Y-145436124D01*
X93869698Y-145411856D01*
X93875659Y-145388057D01*
X93883924Y-145364958D01*
X93894414Y-145342779D01*
X93907026Y-145321736D01*
X93921641Y-145302030D01*
X93938117Y-145283852D01*
X93956295Y-145267376D01*
X93976001Y-145252761D01*
X93997044Y-145240149D01*
X94019223Y-145229659D01*
X94042322Y-145221394D01*
X94066121Y-145215433D01*
X94090389Y-145211833D01*
X94114893Y-145210629D01*
X94764895Y-145210629D01*
X94789399Y-145211833D01*
X94789399Y-145211833D01*
G37*
D11*
G04 #@! TD*
G04 #@! TO.P,R34,1*
G04 #@! TO.N,Net-(R34-Pad1)*
X94439894Y-145910629D03*
D10*
G04 #@! TO.N,Net-(LED1-Pad4)*
G04 #@! TO.C,R2*
G36*
X71224505Y-80581204D02*
X71248773Y-80584804D01*
X71272572Y-80590765D01*
X71295671Y-80599030D01*
X71317850Y-80609520D01*
X71338893Y-80622132D01*
X71358599Y-80636747D01*
X71376777Y-80653223D01*
X71393253Y-80671401D01*
X71407868Y-80691107D01*
X71420480Y-80712150D01*
X71430970Y-80734329D01*
X71439235Y-80757428D01*
X71445196Y-80781227D01*
X71448796Y-80805495D01*
X71450000Y-80829999D01*
X71450000Y-81730001D01*
X71448796Y-81754505D01*
X71445196Y-81778773D01*
X71439235Y-81802572D01*
X71430970Y-81825671D01*
X71420480Y-81847850D01*
X71407868Y-81868893D01*
X71393253Y-81888599D01*
X71376777Y-81906777D01*
X71358599Y-81923253D01*
X71338893Y-81937868D01*
X71317850Y-81950480D01*
X71295671Y-81960970D01*
X71272572Y-81969235D01*
X71248773Y-81975196D01*
X71224505Y-81978796D01*
X71200001Y-81980000D01*
X70549999Y-81980000D01*
X70525495Y-81978796D01*
X70501227Y-81975196D01*
X70477428Y-81969235D01*
X70454329Y-81960970D01*
X70432150Y-81950480D01*
X70411107Y-81937868D01*
X70391401Y-81923253D01*
X70373223Y-81906777D01*
X70356747Y-81888599D01*
X70342132Y-81868893D01*
X70329520Y-81847850D01*
X70319030Y-81825671D01*
X70310765Y-81802572D01*
X70304804Y-81778773D01*
X70301204Y-81754505D01*
X70300000Y-81730001D01*
X70300000Y-80829999D01*
X70301204Y-80805495D01*
X70304804Y-80781227D01*
X70310765Y-80757428D01*
X70319030Y-80734329D01*
X70329520Y-80712150D01*
X70342132Y-80691107D01*
X70356747Y-80671401D01*
X70373223Y-80653223D01*
X70391401Y-80636747D01*
X70411107Y-80622132D01*
X70432150Y-80609520D01*
X70454329Y-80599030D01*
X70477428Y-80590765D01*
X70501227Y-80584804D01*
X70525495Y-80581204D01*
X70549999Y-80580000D01*
X71200001Y-80580000D01*
X71224505Y-80581204D01*
X71224505Y-80581204D01*
G37*
D11*
G04 #@! TD*
G04 #@! TO.P,R2,2*
G04 #@! TO.N,Net-(LED1-Pad4)*
X70875000Y-81280000D03*
D10*
G04 #@! TO.N,Net-(R2-Pad1)*
G04 #@! TO.C,R2*
G36*
X69174505Y-80581204D02*
X69198773Y-80584804D01*
X69222572Y-80590765D01*
X69245671Y-80599030D01*
X69267850Y-80609520D01*
X69288893Y-80622132D01*
X69308599Y-80636747D01*
X69326777Y-80653223D01*
X69343253Y-80671401D01*
X69357868Y-80691107D01*
X69370480Y-80712150D01*
X69380970Y-80734329D01*
X69389235Y-80757428D01*
X69395196Y-80781227D01*
X69398796Y-80805495D01*
X69400000Y-80829999D01*
X69400000Y-81730001D01*
X69398796Y-81754505D01*
X69395196Y-81778773D01*
X69389235Y-81802572D01*
X69380970Y-81825671D01*
X69370480Y-81847850D01*
X69357868Y-81868893D01*
X69343253Y-81888599D01*
X69326777Y-81906777D01*
X69308599Y-81923253D01*
X69288893Y-81937868D01*
X69267850Y-81950480D01*
X69245671Y-81960970D01*
X69222572Y-81969235D01*
X69198773Y-81975196D01*
X69174505Y-81978796D01*
X69150001Y-81980000D01*
X68499999Y-81980000D01*
X68475495Y-81978796D01*
X68451227Y-81975196D01*
X68427428Y-81969235D01*
X68404329Y-81960970D01*
X68382150Y-81950480D01*
X68361107Y-81937868D01*
X68341401Y-81923253D01*
X68323223Y-81906777D01*
X68306747Y-81888599D01*
X68292132Y-81868893D01*
X68279520Y-81847850D01*
X68269030Y-81825671D01*
X68260765Y-81802572D01*
X68254804Y-81778773D01*
X68251204Y-81754505D01*
X68250000Y-81730001D01*
X68250000Y-80829999D01*
X68251204Y-80805495D01*
X68254804Y-80781227D01*
X68260765Y-80757428D01*
X68269030Y-80734329D01*
X68279520Y-80712150D01*
X68292132Y-80691107D01*
X68306747Y-80671401D01*
X68323223Y-80653223D01*
X68341401Y-80636747D01*
X68361107Y-80622132D01*
X68382150Y-80609520D01*
X68404329Y-80599030D01*
X68427428Y-80590765D01*
X68451227Y-80584804D01*
X68475495Y-80581204D01*
X68499999Y-80580000D01*
X69150001Y-80580000D01*
X69174505Y-80581204D01*
X69174505Y-80581204D01*
G37*
D11*
G04 #@! TD*
G04 #@! TO.P,R2,1*
G04 #@! TO.N,Net-(R2-Pad1)*
X68825000Y-81280000D03*
D12*
G04 #@! TO.P,LED1,1*
G04 #@! TO.N,Net-(IC1-Pad3)*
X82285000Y-84692000D03*
G04 #@! TO.P,LED1,2*
G04 #@! TO.N,Net-(J3-Pad2)*
X81635000Y-84692000D03*
G04 #@! TO.P,LED1,3*
G04 #@! TO.N,Net-(LED1-Pad3)*
X80985000Y-84692000D03*
G04 #@! TO.P,LED1,4*
G04 #@! TO.N,Net-(LED1-Pad4)*
X80335000Y-84692000D03*
G04 #@! TO.P,LED1,5*
G04 #@! TO.N,Net-(LED1-Pad5)*
X79685000Y-84692000D03*
G04 #@! TO.P,LED1,6*
G04 #@! TO.N,Net-(LED1-Pad6)*
X79035000Y-84692000D03*
G04 #@! TO.P,LED1,7*
G04 #@! TO.N,Net-(IC1-Pad3)*
X78385000Y-84692000D03*
G04 #@! TO.P,LED1,8*
G04 #@! TO.N,Net-(J3-Pad1)*
X77735000Y-84692000D03*
G04 #@! TO.P,LED1,9*
G04 #@! TO.N,Net-(LED1-Pad9)*
X77735000Y-90568000D03*
G04 #@! TO.P,LED1,10*
G04 #@! TO.N,Net-(J3-Pad4)*
X78385000Y-90568000D03*
G04 #@! TO.P,LED1,11*
G04 #@! TO.N,Net-(LED1-Pad11)*
X79035000Y-90568000D03*
G04 #@! TO.P,LED1,12*
G04 #@! TO.N,Net-(LED1-Pad12)*
X79685000Y-90568000D03*
G04 #@! TO.P,LED1,13*
G04 #@! TO.N,Net-(LED1-Pad13)*
X80335000Y-90568000D03*
G04 #@! TO.P,LED1,14*
G04 #@! TO.N,Net-(LED1-Pad14)*
X80985000Y-90568000D03*
G04 #@! TO.P,LED1,15*
G04 #@! TO.N,Net-(J3-Pad3)*
X81635000Y-90568000D03*
G04 #@! TO.P,LED1,16*
G04 #@! TO.N,Net-(C1-Pad1)*
X82285000Y-90568000D03*
G04 #@! TD*
G04 #@! TO.P,LED2,16*
G04 #@! TO.N,Net-(C1-Pad1)*
X82285000Y-112158000D03*
G04 #@! TO.P,LED2,15*
G04 #@! TO.N,Net-(J3-Pad3)*
X81635000Y-112158000D03*
G04 #@! TO.P,LED2,14*
G04 #@! TO.N,Net-(LED2-Pad14)*
X80985000Y-112158000D03*
G04 #@! TO.P,LED2,13*
G04 #@! TO.N,Net-(LED2-Pad13)*
X80335000Y-112158000D03*
G04 #@! TO.P,LED2,12*
G04 #@! TO.N,Net-(LED2-Pad12)*
X79685000Y-112158000D03*
G04 #@! TO.P,LED2,11*
G04 #@! TO.N,Net-(LED2-Pad11)*
X79035000Y-112158000D03*
G04 #@! TO.P,LED2,10*
G04 #@! TO.N,Net-(J3-Pad4)*
X78385000Y-112158000D03*
G04 #@! TO.P,LED2,9*
G04 #@! TO.N,Net-(LED2-Pad9)*
X77735000Y-112158000D03*
G04 #@! TO.P,LED2,8*
G04 #@! TO.N,Net-(J3-Pad1)*
X77735000Y-106282000D03*
G04 #@! TO.P,LED2,7*
G04 #@! TO.N,Net-(IC1-Pad3)*
X78385000Y-106282000D03*
G04 #@! TO.P,LED2,6*
G04 #@! TO.N,Net-(LED2-Pad6)*
X79035000Y-106282000D03*
G04 #@! TO.P,LED2,5*
G04 #@! TO.N,Net-(LED2-Pad5)*
X79685000Y-106282000D03*
G04 #@! TO.P,LED2,4*
G04 #@! TO.N,Net-(LED2-Pad4)*
X80335000Y-106282000D03*
G04 #@! TO.P,LED2,3*
G04 #@! TO.N,Net-(LED2-Pad3)*
X80985000Y-106282000D03*
G04 #@! TO.P,LED2,2*
G04 #@! TO.N,Net-(LED1-Pad9)*
X81635000Y-106282000D03*
G04 #@! TO.P,LED2,1*
G04 #@! TO.N,Net-(IC1-Pad3)*
X82285000Y-106282000D03*
G04 #@! TD*
G04 #@! TO.P,LED3,1*
G04 #@! TO.N,Net-(IC1-Pad3)*
X82285000Y-127872000D03*
G04 #@! TO.P,LED3,2*
G04 #@! TO.N,Net-(LED2-Pad9)*
X81635000Y-127872000D03*
G04 #@! TO.P,LED3,3*
G04 #@! TO.N,Net-(LED3-Pad3)*
X80985000Y-127872000D03*
G04 #@! TO.P,LED3,4*
G04 #@! TO.N,Net-(LED3-Pad4)*
X80335000Y-127872000D03*
G04 #@! TO.P,LED3,5*
G04 #@! TO.N,Net-(LED3-Pad5)*
X79685000Y-127872000D03*
G04 #@! TO.P,LED3,6*
G04 #@! TO.N,Net-(LED3-Pad6)*
X79035000Y-127872000D03*
G04 #@! TO.P,LED3,7*
G04 #@! TO.N,Net-(IC1-Pad3)*
X78385000Y-127872000D03*
G04 #@! TO.P,LED3,8*
G04 #@! TO.N,Net-(J3-Pad1)*
X77735000Y-127872000D03*
G04 #@! TO.P,LED3,9*
G04 #@! TO.N,Net-(LED3-Pad9)*
X77735000Y-133748000D03*
G04 #@! TO.P,LED3,10*
G04 #@! TO.N,Net-(J3-Pad4)*
X78385000Y-133748000D03*
G04 #@! TO.P,LED3,11*
G04 #@! TO.N,Net-(LED3-Pad11)*
X79035000Y-133748000D03*
G04 #@! TO.P,LED3,12*
G04 #@! TO.N,Net-(LED3-Pad12)*
X79685000Y-133748000D03*
G04 #@! TO.P,LED3,13*
G04 #@! TO.N,Net-(LED3-Pad13)*
X80335000Y-133748000D03*
G04 #@! TO.P,LED3,14*
G04 #@! TO.N,Net-(LED3-Pad14)*
X80985000Y-133748000D03*
G04 #@! TO.P,LED3,15*
G04 #@! TO.N,Net-(J3-Pad3)*
X81635000Y-133748000D03*
G04 #@! TO.P,LED3,16*
G04 #@! TO.N,Net-(C1-Pad1)*
X82285000Y-133748000D03*
G04 #@! TD*
G04 #@! TO.P,LED4,16*
G04 #@! TO.N,Net-(C1-Pad1)*
X82285000Y-155338000D03*
G04 #@! TO.P,LED4,15*
G04 #@! TO.N,Net-(J3-Pad3)*
X81635000Y-155338000D03*
G04 #@! TO.P,LED4,14*
G04 #@! TO.N,Net-(LED4-Pad14)*
X80985000Y-155338000D03*
G04 #@! TO.P,LED4,13*
G04 #@! TO.N,Net-(LED4-Pad13)*
X80335000Y-155338000D03*
G04 #@! TO.P,LED4,12*
G04 #@! TO.N,Net-(LED4-Pad12)*
X79685000Y-155338000D03*
G04 #@! TO.P,LED4,11*
G04 #@! TO.N,Net-(LED4-Pad11)*
X79035000Y-155338000D03*
G04 #@! TO.P,LED4,10*
G04 #@! TO.N,Net-(J3-Pad4)*
X78385000Y-155338000D03*
G04 #@! TO.P,LED4,9*
G04 #@! TO.N,Net-(LED4-Pad9)*
X77735000Y-155338000D03*
G04 #@! TO.P,LED4,8*
G04 #@! TO.N,Net-(J3-Pad1)*
X77735000Y-149462000D03*
G04 #@! TO.P,LED4,7*
G04 #@! TO.N,Net-(IC1-Pad3)*
X78385000Y-149462000D03*
G04 #@! TO.P,LED4,6*
G04 #@! TO.N,Net-(LED4-Pad6)*
X79035000Y-149462000D03*
G04 #@! TO.P,LED4,5*
G04 #@! TO.N,Net-(LED4-Pad5)*
X79685000Y-149462000D03*
G04 #@! TO.P,LED4,4*
G04 #@! TO.N,Net-(LED4-Pad4)*
X80335000Y-149462000D03*
G04 #@! TO.P,LED4,3*
G04 #@! TO.N,Net-(LED4-Pad3)*
X80985000Y-149462000D03*
G04 #@! TO.P,LED4,2*
G04 #@! TO.N,Net-(LED3-Pad9)*
X81635000Y-149462000D03*
G04 #@! TO.P,LED4,1*
G04 #@! TO.N,Net-(IC1-Pad3)*
X82285000Y-149462000D03*
G04 #@! TD*
G04 #@! TO.P,LED5,1*
G04 #@! TO.N,Net-(IC1-Pad3)*
X107911561Y-149322629D03*
G04 #@! TO.P,LED5,2*
G04 #@! TO.N,Net-(LED4-Pad9)*
X107261561Y-149322629D03*
G04 #@! TO.P,LED5,3*
G04 #@! TO.N,Net-(LED5-Pad3)*
X106611561Y-149322629D03*
G04 #@! TO.P,LED5,4*
G04 #@! TO.N,Net-(LED5-Pad4)*
X105961561Y-149322629D03*
G04 #@! TO.P,LED5,5*
G04 #@! TO.N,Net-(LED5-Pad5)*
X105311561Y-149322629D03*
G04 #@! TO.P,LED5,6*
G04 #@! TO.N,Net-(LED5-Pad6)*
X104661561Y-149322629D03*
G04 #@! TO.P,LED5,7*
G04 #@! TO.N,Net-(IC1-Pad3)*
X104011561Y-149322629D03*
G04 #@! TO.P,LED5,8*
G04 #@! TO.N,Net-(J3-Pad1)*
X103361561Y-149322629D03*
G04 #@! TO.P,LED5,9*
G04 #@! TO.N,Net-(LED5-Pad9)*
X103361561Y-155198629D03*
G04 #@! TO.P,LED5,10*
G04 #@! TO.N,Net-(J3-Pad4)*
X104011561Y-155198629D03*
G04 #@! TO.P,LED5,11*
G04 #@! TO.N,Net-(LED5-Pad11)*
X104661561Y-155198629D03*
G04 #@! TO.P,LED5,12*
G04 #@! TO.N,Net-(LED5-Pad12)*
X105311561Y-155198629D03*
G04 #@! TO.P,LED5,13*
G04 #@! TO.N,Net-(LED5-Pad13)*
X105961561Y-155198629D03*
G04 #@! TO.P,LED5,14*
G04 #@! TO.N,Net-(LED5-Pad14)*
X106611561Y-155198629D03*
G04 #@! TO.P,LED5,15*
G04 #@! TO.N,Net-(J3-Pad3)*
X107261561Y-155198629D03*
G04 #@! TO.P,LED5,16*
G04 #@! TO.N,Net-(C1-Pad1)*
X107911561Y-155198629D03*
G04 #@! TD*
D13*
G04 #@! TO.P,IC1,1*
G04 #@! TO.N,Net-(C1-Pad2)*
X95672000Y-80260000D03*
G04 #@! TO.P,IC1,2*
G04 #@! TO.N,Net-(C1-Pad1)*
X95672000Y-82550000D03*
G04 #@! TO.P,IC1,3*
G04 #@! TO.N,Net-(IC1-Pad3)*
X95672000Y-84840000D03*
D14*
G04 #@! TO.P,IC1,4*
G04 #@! TO.N,Net-(C1-Pad1)*
X102422000Y-82550000D03*
G04 #@! TD*
D10*
G04 #@! TO.N,Net-(C1-Pad1)*
G04 #@! TO.C,C1*
G36*
X92716779Y-81631144D02*
X92739834Y-81634563D01*
X92762443Y-81640227D01*
X92784387Y-81648079D01*
X92805457Y-81658044D01*
X92825448Y-81670026D01*
X92844168Y-81683910D01*
X92861438Y-81699562D01*
X92877090Y-81716832D01*
X92890974Y-81735552D01*
X92902956Y-81755543D01*
X92912921Y-81776613D01*
X92920773Y-81798557D01*
X92926437Y-81821166D01*
X92929856Y-81844221D01*
X92931000Y-81867500D01*
X92931000Y-82442500D01*
X92929856Y-82465779D01*
X92926437Y-82488834D01*
X92920773Y-82511443D01*
X92912921Y-82533387D01*
X92902956Y-82554457D01*
X92890974Y-82574448D01*
X92877090Y-82593168D01*
X92861438Y-82610438D01*
X92844168Y-82626090D01*
X92825448Y-82639974D01*
X92805457Y-82651956D01*
X92784387Y-82661921D01*
X92762443Y-82669773D01*
X92739834Y-82675437D01*
X92716779Y-82678856D01*
X92693500Y-82680000D01*
X92218500Y-82680000D01*
X92195221Y-82678856D01*
X92172166Y-82675437D01*
X92149557Y-82669773D01*
X92127613Y-82661921D01*
X92106543Y-82651956D01*
X92086552Y-82639974D01*
X92067832Y-82626090D01*
X92050562Y-82610438D01*
X92034910Y-82593168D01*
X92021026Y-82574448D01*
X92009044Y-82554457D01*
X91999079Y-82533387D01*
X91991227Y-82511443D01*
X91985563Y-82488834D01*
X91982144Y-82465779D01*
X91981000Y-82442500D01*
X91981000Y-81867500D01*
X91982144Y-81844221D01*
X91985563Y-81821166D01*
X91991227Y-81798557D01*
X91999079Y-81776613D01*
X92009044Y-81755543D01*
X92021026Y-81735552D01*
X92034910Y-81716832D01*
X92050562Y-81699562D01*
X92067832Y-81683910D01*
X92086552Y-81670026D01*
X92106543Y-81658044D01*
X92127613Y-81648079D01*
X92149557Y-81640227D01*
X92172166Y-81634563D01*
X92195221Y-81631144D01*
X92218500Y-81630000D01*
X92693500Y-81630000D01*
X92716779Y-81631144D01*
X92716779Y-81631144D01*
G37*
D15*
G04 #@! TD*
G04 #@! TO.P,C1,1*
G04 #@! TO.N,Net-(C1-Pad1)*
X92456000Y-82155000D03*
D10*
G04 #@! TO.N,Net-(C1-Pad2)*
G04 #@! TO.C,C1*
G36*
X92716779Y-79881144D02*
X92739834Y-79884563D01*
X92762443Y-79890227D01*
X92784387Y-79898079D01*
X92805457Y-79908044D01*
X92825448Y-79920026D01*
X92844168Y-79933910D01*
X92861438Y-79949562D01*
X92877090Y-79966832D01*
X92890974Y-79985552D01*
X92902956Y-80005543D01*
X92912921Y-80026613D01*
X92920773Y-80048557D01*
X92926437Y-80071166D01*
X92929856Y-80094221D01*
X92931000Y-80117500D01*
X92931000Y-80692500D01*
X92929856Y-80715779D01*
X92926437Y-80738834D01*
X92920773Y-80761443D01*
X92912921Y-80783387D01*
X92902956Y-80804457D01*
X92890974Y-80824448D01*
X92877090Y-80843168D01*
X92861438Y-80860438D01*
X92844168Y-80876090D01*
X92825448Y-80889974D01*
X92805457Y-80901956D01*
X92784387Y-80911921D01*
X92762443Y-80919773D01*
X92739834Y-80925437D01*
X92716779Y-80928856D01*
X92693500Y-80930000D01*
X92218500Y-80930000D01*
X92195221Y-80928856D01*
X92172166Y-80925437D01*
X92149557Y-80919773D01*
X92127613Y-80911921D01*
X92106543Y-80901956D01*
X92086552Y-80889974D01*
X92067832Y-80876090D01*
X92050562Y-80860438D01*
X92034910Y-80843168D01*
X92021026Y-80824448D01*
X92009044Y-80804457D01*
X91999079Y-80783387D01*
X91991227Y-80761443D01*
X91985563Y-80738834D01*
X91982144Y-80715779D01*
X91981000Y-80692500D01*
X91981000Y-80117500D01*
X91982144Y-80094221D01*
X91985563Y-80071166D01*
X91991227Y-80048557D01*
X91999079Y-80026613D01*
X92009044Y-80005543D01*
X92021026Y-79985552D01*
X92034910Y-79966832D01*
X92050562Y-79949562D01*
X92067832Y-79933910D01*
X92086552Y-79920026D01*
X92106543Y-79908044D01*
X92127613Y-79898079D01*
X92149557Y-79890227D01*
X92172166Y-79884563D01*
X92195221Y-79881144D01*
X92218500Y-79880000D01*
X92693500Y-79880000D01*
X92716779Y-79881144D01*
X92716779Y-79881144D01*
G37*
D15*
G04 #@! TD*
G04 #@! TO.P,C1,2*
G04 #@! TO.N,Net-(C1-Pad2)*
X92456000Y-80405000D03*
D16*
G04 #@! TO.P,J2,1*
G04 #@! TO.N,Net-(IC1-Pad3)*
X104140000Y-107188000D03*
G04 #@! TD*
D17*
G04 #@! TO.P,J1,2*
G04 #@! TO.N,Net-(C1-Pad2)*
X89154000Y-80010000D03*
D16*
G04 #@! TO.P,J1,1*
G04 #@! TO.N,Net-(C1-Pad1)*
X89154000Y-82550000D03*
G04 #@! TD*
G04 #@! TO.P,J3,1*
G04 #@! TO.N,Net-(J3-Pad1)*
X104140000Y-89408000D03*
D17*
G04 #@! TO.P,J3,2*
G04 #@! TO.N,Net-(J3-Pad2)*
X104140000Y-91948000D03*
G04 #@! TO.P,J3,3*
G04 #@! TO.N,Net-(J3-Pad3)*
X104140000Y-94488000D03*
G04 #@! TO.P,J3,4*
G04 #@! TO.N,Net-(J3-Pad4)*
X104140000Y-97028000D03*
G04 #@! TO.P,J3,5*
G04 #@! TO.N,Net-(IC1-Pad3)*
X104140000Y-99568000D03*
G04 #@! TO.P,J3,6*
G04 #@! TO.N,Net-(C1-Pad1)*
X104140000Y-102108000D03*
G04 #@! TD*
D16*
G04 #@! TO.P,segment5,1*
G04 #@! TO.N,Net-(R40-Pad1)*
X91666561Y-161150629D03*
D17*
G04 #@! TO.P,segment5,2*
G04 #@! TO.N,Net-(R39-Pad1)*
X91666561Y-158610629D03*
G04 #@! TO.P,segment5,3*
G04 #@! TO.N,Net-(R38-Pad1)*
X91666561Y-156070629D03*
G04 #@! TO.P,segment5,4*
G04 #@! TO.N,Net-(R37-Pad1)*
X91666561Y-153530629D03*
G04 #@! TO.P,segment5,5*
G04 #@! TO.N,Net-(R36-Pad1)*
X91666561Y-150990629D03*
G04 #@! TO.P,segment5,6*
G04 #@! TO.N,Net-(R35-Pad1)*
X91666561Y-148450629D03*
G04 #@! TO.P,segment5,7*
G04 #@! TO.N,Net-(R34-Pad1)*
X91666561Y-145910629D03*
G04 #@! TO.P,segment5,8*
G04 #@! TO.N,Net-(R33-Pad1)*
X91666561Y-143370629D03*
G04 #@! TD*
G04 #@! TO.P,segment1,8*
G04 #@! TO.N,Net-(R1-Pad1)*
X66040000Y-78740000D03*
G04 #@! TO.P,segment1,7*
G04 #@! TO.N,Net-(R2-Pad1)*
X66040000Y-81280000D03*
G04 #@! TO.P,segment1,6*
G04 #@! TO.N,Net-(R3-Pad1)*
X66040000Y-83820000D03*
G04 #@! TO.P,segment1,5*
G04 #@! TO.N,Net-(R4-Pad1)*
X66040000Y-86360000D03*
G04 #@! TO.P,segment1,4*
G04 #@! TO.N,Net-(R5-Pad1)*
X66040000Y-88900000D03*
G04 #@! TO.P,segment1,3*
G04 #@! TO.N,Net-(R6-Pad1)*
X66040000Y-91440000D03*
G04 #@! TO.P,segment1,2*
G04 #@! TO.N,Net-(R7-Pad1)*
X66040000Y-93980000D03*
D16*
G04 #@! TO.P,segment1,1*
G04 #@! TO.N,Net-(R8-Pad1)*
X66040000Y-96520000D03*
G04 #@! TD*
G04 #@! TO.P,segment3,1*
G04 #@! TO.N,Net-(R24-Pad1)*
X66040000Y-139700000D03*
D17*
G04 #@! TO.P,segment3,2*
G04 #@! TO.N,Net-(R23-Pad1)*
X66040000Y-137160000D03*
G04 #@! TO.P,segment3,3*
G04 #@! TO.N,Net-(R22-Pad1)*
X66040000Y-134620000D03*
G04 #@! TO.P,segment3,4*
G04 #@! TO.N,Net-(R21-Pad1)*
X66040000Y-132080000D03*
G04 #@! TO.P,segment3,5*
G04 #@! TO.N,Net-(R20-Pad1)*
X66040000Y-129540000D03*
G04 #@! TO.P,segment3,6*
G04 #@! TO.N,Net-(R19-Pad1)*
X66040000Y-127000000D03*
G04 #@! TO.P,segment3,7*
G04 #@! TO.N,Net-(R18-Pad1)*
X66040000Y-124460000D03*
G04 #@! TO.P,segment3,8*
G04 #@! TO.N,Net-(R17-Pad1)*
X66040000Y-121920000D03*
G04 #@! TD*
G04 #@! TO.P,segment4,8*
G04 #@! TO.N,Net-(R25-Pad1)*
X66040000Y-143510000D03*
G04 #@! TO.P,segment4,7*
G04 #@! TO.N,Net-(R26-Pad1)*
X66040000Y-146050000D03*
G04 #@! TO.P,segment4,6*
G04 #@! TO.N,Net-(R27-Pad1)*
X66040000Y-148590000D03*
G04 #@! TO.P,segment4,5*
G04 #@! TO.N,Net-(R28-Pad1)*
X66040000Y-151130000D03*
G04 #@! TO.P,segment4,4*
G04 #@! TO.N,Net-(R29-Pad1)*
X66040000Y-153670000D03*
G04 #@! TO.P,segment4,3*
G04 #@! TO.N,Net-(R30-Pad1)*
X66040000Y-156210000D03*
G04 #@! TO.P,segment4,2*
G04 #@! TO.N,Net-(R31-Pad1)*
X66040000Y-158750000D03*
D16*
G04 #@! TO.P,segment4,1*
G04 #@! TO.N,Net-(R32-Pad1)*
X66040000Y-161290000D03*
G04 #@! TD*
G04 #@! TO.P,segment2,1*
G04 #@! TO.N,Net-(R16-Pad1)*
X66040000Y-118110000D03*
D17*
G04 #@! TO.P,segment2,2*
G04 #@! TO.N,Net-(R15-Pad1)*
X66040000Y-115570000D03*
G04 #@! TO.P,segment2,3*
G04 #@! TO.N,Net-(R14-Pad1)*
X66040000Y-113030000D03*
G04 #@! TO.P,segment2,4*
G04 #@! TO.N,Net-(R13-Pad1)*
X66040000Y-110490000D03*
G04 #@! TO.P,segment2,5*
G04 #@! TO.N,Net-(R12-Pad1)*
X66040000Y-107950000D03*
G04 #@! TO.P,segment2,6*
G04 #@! TO.N,Net-(R11-Pad1)*
X66040000Y-105410000D03*
G04 #@! TO.P,segment2,7*
G04 #@! TO.N,Net-(R10-Pad1)*
X66040000Y-102870000D03*
G04 #@! TO.P,segment2,8*
G04 #@! TO.N,Net-(R9-Pad1)*
X66040000Y-100330000D03*
G04 #@! TD*
D18*
G04 #@! TO.N,Net-(J3-Pad1)*
X73660000Y-85090000D03*
X73660000Y-106426000D03*
X73660000Y-149606000D03*
X73660000Y-128016000D03*
X101346000Y-149352000D03*
G04 #@! TO.N,Net-(J3-Pad2)*
X80700500Y-86614000D03*
G04 #@! TO.N,Net-(J3-Pad3)*
X83312000Y-93980000D03*
X81635000Y-114147000D03*
X87122000Y-111252000D03*
X87122000Y-93980000D03*
X81635000Y-131927000D03*
X81635000Y-153569000D03*
X83058000Y-158750000D03*
X81635000Y-158242000D03*
G04 #@! TO.N,Net-(J3-Pad4)*
X76454000Y-91948000D03*
X78486000Y-109982000D03*
X78385000Y-131927000D03*
X78385000Y-153517000D03*
X101092000Y-156210000D03*
X72136000Y-153162000D03*
G04 #@! TO.N,Net-(C1-Pad1)*
X86360000Y-85980500D03*
G04 #@! TO.N,Net-(IC1-Pad3)*
X82296000Y-104394000D03*
X100584000Y-105664000D03*
X80264000Y-109220000D03*
X80264000Y-130810000D03*
X80264000Y-152400000D03*
X105664000Y-152146000D03*
X83047000Y-152157000D03*
X98671372Y-152280628D03*
G04 #@! TO.N,Net-(LED4-Pad9)*
X76564000Y-155338000D03*
X87122000Y-153162000D03*
G04 #@! TO.N,Net-(LED2-Pad9)*
X77724000Y-119888000D03*
X76564000Y-112158000D03*
G04 #@! TO.N,Net-(LED1-Pad9)*
X77735000Y-88657000D03*
X81534000Y-97536000D03*
G04 #@! TO.N,Net-(LED3-Pad9)*
X77724000Y-141986000D03*
X75946000Y-133858000D03*
G04 #@! TD*
D19*
G04 #@! TO.N,Net-(R2-Pad1)*
X66040000Y-81280000D02*
X68825000Y-81280000D01*
G04 #@! TO.N,Net-(LED1-Pad4)*
X70875000Y-81280000D02*
X79502000Y-81280000D01*
X80335000Y-82113000D02*
X80335000Y-84692000D01*
X79502000Y-81280000D02*
X80335000Y-82113000D01*
G04 #@! TO.N,Net-(LED5-Pad4)*
X105961561Y-149322629D02*
X105961561Y-146997629D01*
X104874561Y-145910629D02*
X96489894Y-145910629D01*
X105961561Y-146997629D02*
X104874561Y-145910629D01*
G04 #@! TO.N,Net-(R34-Pad1)*
X94439894Y-145910629D02*
X91666561Y-145910629D01*
G04 #@! TO.N,Net-(R35-Pad1)*
X91666561Y-148450629D02*
X94451561Y-148450629D01*
G04 #@! TO.N,Net-(LED5-Pad5)*
X97124933Y-147818257D02*
X98432551Y-146510639D01*
X96501561Y-148450629D02*
X97124933Y-147827257D01*
X97124933Y-147827257D02*
X97124933Y-147818257D01*
X98432551Y-146510639D02*
X104620561Y-146510639D01*
X105311561Y-147201639D02*
X104620561Y-146510639D01*
X105311561Y-149322629D02*
X105311561Y-147201639D01*
G04 #@! TO.N,Net-(LED2-Pad6)*
X79035000Y-106282000D02*
X79035000Y-104435000D01*
X79035000Y-104435000D02*
X78740000Y-104140000D01*
X74685000Y-104140000D02*
X70875000Y-107950000D01*
X78740000Y-104140000D02*
X74685000Y-104140000D01*
G04 #@! TO.N,Net-(R12-Pad1)*
X66040000Y-107950000D02*
X68825000Y-107950000D01*
G04 #@! TO.N,Net-(R40-Pad1)*
X91666561Y-161150629D02*
X94439894Y-161150629D01*
G04 #@! TO.N,Net-(LED5-Pad14)*
X96489894Y-161150629D02*
X104620561Y-161150629D01*
X106611561Y-159159629D02*
X106611561Y-155198629D01*
X104620561Y-161150629D02*
X106611561Y-159159629D01*
G04 #@! TO.N,Net-(LED5-Pad13)*
X105961561Y-157523629D02*
X105961561Y-155198629D01*
X96489894Y-158610629D02*
X104874561Y-158610629D01*
X104874561Y-158610629D02*
X105961561Y-157523629D01*
G04 #@! TO.N,Net-(R39-Pad1)*
X94439894Y-158610629D02*
X91666561Y-158610629D01*
G04 #@! TO.N,Net-(R38-Pad1)*
X91666561Y-156070629D02*
X94439894Y-156070629D01*
G04 #@! TO.N,Net-(LED5-Pad12)*
X97113266Y-156694001D02*
X97115933Y-156694001D01*
X96489894Y-156070629D02*
X97113266Y-156694001D01*
X97115933Y-156694001D02*
X98270561Y-157848629D01*
X98270561Y-157848629D02*
X104620561Y-157848629D01*
X105311561Y-157157629D02*
X105311561Y-155198629D01*
X104620561Y-157848629D02*
X105311561Y-157157629D01*
G04 #@! TO.N,Net-(LED5-Pad11)*
X97113266Y-154154001D02*
X97115933Y-154154001D01*
X96489894Y-153530629D02*
X97113266Y-154154001D01*
X97115933Y-154154001D02*
X100048561Y-157086629D01*
X104661561Y-155198629D02*
X104661561Y-156791629D01*
X104366561Y-157086629D02*
X100048561Y-157086629D01*
X104661561Y-156791629D02*
X104366561Y-157086629D01*
G04 #@! TO.N,Net-(R37-Pad1)*
X91666561Y-153530629D02*
X94439894Y-153530629D01*
G04 #@! TO.N,Net-(R36-Pad1)*
X94439894Y-150990629D02*
X91666561Y-150990629D01*
G04 #@! TO.N,Net-(LED5-Pad6)*
X104661561Y-149322629D02*
X104661561Y-147659649D01*
X104661561Y-147659649D02*
X104112561Y-147110649D01*
X100369874Y-147110649D02*
X96489894Y-150990629D01*
X104112561Y-147110649D02*
X100369874Y-147110649D01*
G04 #@! TO.N,Net-(LED1-Pad3)*
X80985000Y-80731000D02*
X80985000Y-84692000D01*
X70875000Y-78740000D02*
X78994000Y-78740000D01*
X78994000Y-78740000D02*
X80985000Y-80731000D01*
G04 #@! TO.N,Net-(R1-Pad1)*
X68825000Y-78740000D02*
X66040000Y-78740000D01*
G04 #@! TO.N,Net-(R14-Pad1)*
X66040000Y-113030000D02*
X68580000Y-113030000D01*
G04 #@! TO.N,Net-(LED2-Pad12)*
X79685000Y-112158000D02*
X79685000Y-114371000D01*
X79685000Y-114371000D02*
X79248000Y-114808000D01*
X72653000Y-114808000D02*
X70875000Y-113030000D01*
X79248000Y-114808000D02*
X72653000Y-114808000D01*
G04 #@! TO.N,Net-(LED1-Pad5)*
X79086010Y-81880010D02*
X72814990Y-81880010D01*
X72814990Y-81880010D02*
X70875000Y-83820000D01*
X79685000Y-84692000D02*
X79685000Y-82479000D01*
X79685000Y-82479000D02*
X79086010Y-81880010D01*
G04 #@! TO.N,Net-(R3-Pad1)*
X68825000Y-83820000D02*
X66040000Y-83820000D01*
G04 #@! TO.N,Net-(R4-Pad1)*
X66040000Y-86360000D02*
X68825000Y-86360000D01*
G04 #@! TO.N,Net-(LED1-Pad6)*
X71498372Y-85727628D02*
X74745980Y-82480020D01*
X70875000Y-86360000D02*
X71498372Y-85736628D01*
X71498372Y-85736628D02*
X71498372Y-85727628D01*
X74745980Y-82480020D02*
X78670020Y-82480020D01*
X79035000Y-82845000D02*
X79035000Y-84692000D01*
X78670020Y-82480020D02*
X79035000Y-82845000D01*
G04 #@! TO.N,Net-(LED1-Pad11)*
X70875000Y-88900000D02*
X74592990Y-92617990D01*
X74592990Y-92617990D02*
X78578010Y-92617990D01*
X79035000Y-92161000D02*
X79035000Y-90568000D01*
X78578010Y-92617990D02*
X79035000Y-92161000D01*
G04 #@! TO.N,Net-(R5-Pad1)*
X68825000Y-88900000D02*
X66040000Y-88900000D01*
G04 #@! TO.N,Net-(R6-Pad1)*
X66040000Y-91440000D02*
X68825000Y-91440000D01*
G04 #@! TO.N,Net-(LED1-Pad12)*
X79248000Y-93218000D02*
X72653000Y-93218000D01*
X72653000Y-93218000D02*
X70875000Y-91440000D01*
X79685000Y-90568000D02*
X79685000Y-92781000D01*
X79685000Y-92781000D02*
X79248000Y-93218000D01*
G04 #@! TO.N,Net-(LED1-Pad13)*
X80335000Y-90568000D02*
X80335000Y-93147000D01*
X79502000Y-93980000D02*
X70875000Y-93980000D01*
X80335000Y-93147000D02*
X79502000Y-93980000D01*
G04 #@! TO.N,Net-(R7-Pad1)*
X68825000Y-93980000D02*
X66040000Y-93980000D01*
G04 #@! TO.N,Net-(R8-Pad1)*
X66040000Y-96520000D02*
X68825000Y-96520000D01*
G04 #@! TO.N,Net-(LED1-Pad14)*
X70875000Y-96520000D02*
X71550000Y-96520000D01*
X71550000Y-96520000D02*
X78994000Y-96520000D01*
X80985000Y-94529000D02*
X78994000Y-96520000D01*
X80985000Y-90568000D02*
X80985000Y-94529000D01*
G04 #@! TO.N,Net-(LED2-Pad3)*
X70875000Y-100330000D02*
X71550000Y-100330000D01*
X80985000Y-106282000D02*
X80985000Y-102321000D01*
X78994000Y-100330000D02*
X70875000Y-100330000D01*
X80985000Y-102321000D02*
X78994000Y-100330000D01*
G04 #@! TO.N,Net-(R9-Pad1)*
X68825000Y-100330000D02*
X66040000Y-100330000D01*
G04 #@! TO.N,Net-(R10-Pad1)*
X66040000Y-102870000D02*
X68825000Y-102870000D01*
G04 #@! TO.N,Net-(LED2-Pad4)*
X70875000Y-102870000D02*
X79502000Y-102870000D01*
X80335000Y-103703000D02*
X80335000Y-106282000D01*
X79502000Y-102870000D02*
X80335000Y-103703000D01*
G04 #@! TO.N,Net-(LED2-Pad5)*
X79685000Y-106282000D02*
X79685000Y-104161010D01*
X79685000Y-104161010D02*
X78994000Y-103470010D01*
X72814990Y-103470010D02*
X70875000Y-105410000D01*
X78994000Y-103470010D02*
X72814990Y-103470010D01*
G04 #@! TO.N,Net-(R11-Pad1)*
X68825000Y-105410000D02*
X66040000Y-105410000D01*
G04 #@! TO.N,Net-(R32-Pad1)*
X66040000Y-161290000D02*
X68825000Y-161290000D01*
G04 #@! TO.N,Net-(LED4-Pad14)*
X70875000Y-161290000D02*
X71550000Y-161290000D01*
X80985000Y-155338000D02*
X80985000Y-159553000D01*
X79248000Y-161290000D02*
X70875000Y-161290000D01*
X80985000Y-159553000D02*
X79248000Y-161290000D01*
G04 #@! TO.N,Net-(LED4-Pad3)*
X80985000Y-149462000D02*
X80985000Y-144739000D01*
X79756000Y-143510000D02*
X70875000Y-143510000D01*
X80985000Y-144739000D02*
X79756000Y-143510000D01*
G04 #@! TO.N,Net-(R25-Pad1)*
X68825000Y-143510000D02*
X66040000Y-143510000D01*
G04 #@! TO.N,Net-(R15-Pad1)*
X68825000Y-115570000D02*
X66040000Y-115570000D01*
G04 #@! TO.N,Net-(LED2-Pad13)*
X80335000Y-112158000D02*
X80335000Y-114737000D01*
X79502000Y-115570000D02*
X70875000Y-115570000D01*
X80335000Y-114737000D02*
X79502000Y-115570000D01*
G04 #@! TO.N,Net-(LED2-Pad14)*
X80985000Y-112158000D02*
X80985000Y-116119000D01*
X78994000Y-118110000D02*
X70875000Y-118110000D01*
X80985000Y-116119000D02*
X78994000Y-118110000D01*
G04 #@! TO.N,Net-(R16-Pad1)*
X66040000Y-118110000D02*
X68825000Y-118110000D01*
G04 #@! TO.N,Net-(R17-Pad1)*
X68825000Y-121920000D02*
X66040000Y-121920000D01*
G04 #@! TO.N,Net-(LED3-Pad3)*
X70875000Y-121920000D02*
X79248000Y-121920000D01*
X80985000Y-123657000D02*
X80985000Y-127872000D01*
X79248000Y-121920000D02*
X80985000Y-123657000D01*
G04 #@! TO.N,Net-(LED3-Pad4)*
X80335000Y-127872000D02*
X80335000Y-125293000D01*
X79502000Y-124460000D02*
X70875000Y-124460000D01*
X80335000Y-125293000D02*
X79502000Y-124460000D01*
G04 #@! TO.N,Net-(R18-Pad1)*
X66040000Y-124460000D02*
X68825000Y-124460000D01*
G04 #@! TO.N,Net-(R19-Pad1)*
X68825000Y-127000000D02*
X66040000Y-127000000D01*
G04 #@! TO.N,Net-(LED3-Pad5)*
X70875000Y-127000000D02*
X71498372Y-126376628D01*
X71498372Y-126367628D02*
X72805990Y-125060010D01*
X71498372Y-126376628D02*
X71498372Y-126367628D01*
X72805990Y-125060010D02*
X79086010Y-125060010D01*
X79685000Y-125659000D02*
X79685000Y-127872000D01*
X79086010Y-125060010D02*
X79685000Y-125659000D01*
G04 #@! TO.N,Net-(LED3-Pad6)*
X79035000Y-127872000D02*
X79035000Y-126209020D01*
X79035000Y-126209020D02*
X78486000Y-125660020D01*
X74754980Y-125660020D02*
X70875000Y-129540000D01*
X78486000Y-125660020D02*
X74754980Y-125660020D01*
G04 #@! TO.N,Net-(R20-Pad1)*
X66040000Y-129540000D02*
X67310000Y-129540000D01*
X67310000Y-129540000D02*
X68825000Y-129540000D01*
G04 #@! TO.N,Net-(R21-Pad1)*
X68825000Y-132080000D02*
X66040000Y-132080000D01*
G04 #@! TO.N,Net-(LED3-Pad11)*
X71498372Y-132703372D02*
X71498372Y-132712372D01*
X70875000Y-132080000D02*
X71498372Y-132703372D01*
X71498372Y-132712372D02*
X74422000Y-135636000D01*
X74422000Y-135636000D02*
X78740000Y-135636000D01*
X79035000Y-135341000D02*
X79035000Y-133748000D01*
X78740000Y-135636000D02*
X79035000Y-135341000D01*
G04 #@! TO.N,Net-(LED3-Pad12)*
X79685000Y-133748000D02*
X79685000Y-136215000D01*
X79685000Y-136215000D02*
X79502000Y-136398000D01*
X72653000Y-136398000D02*
X70875000Y-134620000D01*
X79502000Y-136398000D02*
X72653000Y-136398000D01*
G04 #@! TO.N,Net-(R22-Pad1)*
X66040000Y-134620000D02*
X68825000Y-134620000D01*
G04 #@! TO.N,Net-(R24-Pad1)*
X66040000Y-139700000D02*
X68825000Y-139700000D01*
G04 #@! TO.N,Net-(LED3-Pad14)*
X70875000Y-139700000D02*
X78994000Y-139700000D01*
X80985000Y-137709000D02*
X80985000Y-133748000D01*
X78994000Y-139700000D02*
X80985000Y-137709000D01*
G04 #@! TO.N,Net-(LED2-Pad11)*
X71850010Y-111474010D02*
X74422000Y-114046000D01*
X70875000Y-110490000D02*
X71850010Y-111465010D01*
X71850010Y-111465010D02*
X71850010Y-111474010D01*
X74422000Y-114046000D02*
X78740000Y-114046000D01*
X79035000Y-113751000D02*
X79035000Y-112158000D01*
X78740000Y-114046000D02*
X79035000Y-113751000D01*
G04 #@! TO.N,Net-(R13-Pad1)*
X68825000Y-110490000D02*
X66040000Y-110490000D01*
G04 #@! TO.N,Net-(R26-Pad1)*
X66040000Y-146050000D02*
X68825000Y-146050000D01*
G04 #@! TO.N,Net-(LED4-Pad4)*
X80335000Y-149462000D02*
X80335000Y-147137000D01*
X79248000Y-146050000D02*
X70875000Y-146050000D01*
X80335000Y-147137000D02*
X79248000Y-146050000D01*
G04 #@! TO.N,Net-(LED4-Pad5)*
X71498372Y-147966628D02*
X71498372Y-147957628D01*
X70875000Y-148590000D02*
X71498372Y-147966628D01*
X71498372Y-147957628D02*
X72644000Y-146812000D01*
X72644000Y-146812000D02*
X78994000Y-146812000D01*
X79685000Y-147503000D02*
X79685000Y-149462000D01*
X78994000Y-146812000D02*
X79685000Y-147503000D01*
G04 #@! TO.N,Net-(R27-Pad1)*
X68825000Y-148590000D02*
X66040000Y-148590000D01*
G04 #@! TO.N,Net-(R28-Pad1)*
X66040000Y-151130000D02*
X68825000Y-151130000D01*
G04 #@! TO.N,Net-(LED4-Pad6)*
X79035000Y-149462000D02*
X79035000Y-147961010D01*
X79035000Y-147961010D02*
X78486000Y-147412010D01*
X74592990Y-147412010D02*
X70875000Y-151130000D01*
X78486000Y-147412010D02*
X74592990Y-147412010D01*
G04 #@! TO.N,Net-(LED4-Pad11)*
X71498372Y-154293372D02*
X71498372Y-154302372D01*
X70875000Y-153670000D02*
X71498372Y-154293372D01*
X71498372Y-154302372D02*
X74422000Y-157226000D01*
X74422000Y-157226000D02*
X78740000Y-157226000D01*
X79035000Y-156931000D02*
X79035000Y-155338000D01*
X78740000Y-157226000D02*
X79035000Y-156931000D01*
G04 #@! TO.N,Net-(R29-Pad1)*
X68825000Y-153670000D02*
X66040000Y-153670000D01*
G04 #@! TO.N,Net-(R30-Pad1)*
X66040000Y-156210000D02*
X68825000Y-156210000D01*
G04 #@! TO.N,Net-(LED4-Pad12)*
X79685000Y-155338000D02*
X79685000Y-157551000D01*
X79685000Y-157551000D02*
X79248000Y-157988000D01*
X72653000Y-157988000D02*
X70875000Y-156210000D01*
X79248000Y-157988000D02*
X72653000Y-157988000D01*
G04 #@! TO.N,Net-(LED4-Pad13)*
X80335000Y-157917000D02*
X80335000Y-155338000D01*
X70875000Y-158750000D02*
X79502000Y-158750000D01*
X79502000Y-158750000D02*
X80335000Y-157917000D01*
G04 #@! TO.N,Net-(R31-Pad1)*
X68825000Y-158750000D02*
X66040000Y-158750000D01*
G04 #@! TO.N,Net-(R33-Pad1)*
X91666561Y-143370629D02*
X94451561Y-143370629D01*
G04 #@! TO.N,Net-(LED5-Pad3)*
X106611561Y-149322629D02*
X106611561Y-145107629D01*
X104874561Y-143370629D02*
X96501561Y-143370629D01*
X106611561Y-145107629D02*
X104874561Y-143370629D01*
G04 #@! TO.N,Net-(LED3-Pad13)*
X80335000Y-136581000D02*
X80335000Y-133748000D01*
X70875000Y-137160000D02*
X79756000Y-137160000D01*
X79756000Y-137160000D02*
X80335000Y-136581000D01*
G04 #@! TO.N,Net-(R23-Pad1)*
X68825000Y-137160000D02*
X66040000Y-137160000D01*
D20*
G04 #@! TO.N,Net-(J3-Pad1)*
X77260000Y-84692000D02*
X76862000Y-85090000D01*
X77735000Y-84692000D02*
X77260000Y-84692000D01*
X76862000Y-85090000D02*
X73660000Y-85090000D01*
X73660000Y-85090000D02*
X73660000Y-85090000D01*
X73804000Y-106282000D02*
X73660000Y-106426000D01*
X77591000Y-106426000D02*
X77735000Y-106282000D01*
X73660000Y-106426000D02*
X77591000Y-106426000D01*
X77591000Y-128016000D02*
X77735000Y-127872000D01*
X73660000Y-128016000D02*
X77591000Y-128016000D01*
X77591000Y-149606000D02*
X77735000Y-149462000D01*
X73660000Y-149606000D02*
X77591000Y-149606000D01*
X101375371Y-149322629D02*
X101346000Y-149352000D01*
X103361561Y-149322629D02*
X101375371Y-149322629D01*
G04 #@! TO.N,Net-(J3-Pad2)*
X81635000Y-85679500D02*
X80700500Y-86614000D01*
X81635000Y-84692000D02*
X81635000Y-85679500D01*
X80700500Y-86614000D02*
X80700500Y-86614000D01*
G04 #@! TO.N,Net-(J3-Pad3)*
X81635000Y-90568000D02*
X81635000Y-92303000D01*
X81635000Y-92303000D02*
X83312000Y-93980000D01*
X83312000Y-93980000D02*
X83312000Y-93980000D01*
X81635000Y-112158000D02*
X81635000Y-114147000D01*
X81635000Y-114147000D02*
X81635000Y-114147000D01*
X87122000Y-93980000D02*
X87122000Y-111252000D01*
X81635000Y-133748000D02*
X81635000Y-131927000D01*
X81635000Y-131927000D02*
X81635000Y-131927000D01*
X81635000Y-155338000D02*
X81635000Y-153569000D01*
X81635000Y-153569000D02*
X81635000Y-153569000D01*
X107161562Y-155220438D02*
X107161562Y-161316438D01*
X107261561Y-155198629D02*
X107183371Y-155198629D01*
X107183371Y-155198629D02*
X107161562Y-155220438D01*
X107161562Y-161316438D02*
X104140000Y-164338000D01*
X104140000Y-164338000D02*
X88646000Y-164338000D01*
X88646000Y-164338000D02*
X83058000Y-158750000D01*
X83058000Y-158750000D02*
X83058000Y-158750000D01*
X81635000Y-155338000D02*
X81635000Y-158242000D01*
X81635000Y-158242000D02*
X81635000Y-158395000D01*
G04 #@! TO.N,Net-(J3-Pad4)*
X78385000Y-91555500D02*
X77992500Y-91948000D01*
X78385000Y-90568000D02*
X78385000Y-91555500D01*
X77992500Y-91948000D02*
X76454000Y-91948000D01*
X76454000Y-91948000D02*
X76454000Y-91948000D01*
X78385000Y-110083000D02*
X78486000Y-109982000D01*
X78385000Y-112158000D02*
X78385000Y-110083000D01*
X78385000Y-133748000D02*
X78385000Y-131927000D01*
X78385000Y-131927000D02*
X78385000Y-131927000D01*
X78385000Y-155338000D02*
X78385000Y-153517000D01*
X78385000Y-153517000D02*
X78385000Y-153517000D01*
X103846562Y-156261130D02*
X101092000Y-156210000D01*
X104011561Y-155198629D02*
X104011561Y-156096131D01*
X104011561Y-156096131D02*
X103846562Y-156261130D01*
X101092000Y-156210000D02*
X101143130Y-156261130D01*
X78030000Y-153162000D02*
X78385000Y-153517000D01*
X72136000Y-153162000D02*
X78030000Y-153162000D01*
D19*
G04 #@! TO.N,Net-(C1-Pad1)*
X92061000Y-82550000D02*
X92456000Y-82155000D01*
X89154000Y-82550000D02*
X92061000Y-82550000D01*
X95277000Y-82155000D02*
X95672000Y-82550000D01*
X92456000Y-82155000D02*
X95277000Y-82155000D01*
X95672000Y-82550000D02*
X102422000Y-82550000D01*
X105918000Y-102108000D02*
X104140000Y-102108000D01*
X107188000Y-87116000D02*
X107188000Y-100838000D01*
X107188000Y-100838000D02*
X105918000Y-102108000D01*
X102422000Y-82550000D02*
X102622000Y-82550000D01*
X102622000Y-82550000D02*
X107188000Y-87116000D01*
X82285000Y-90055500D02*
X86360000Y-85980500D01*
X82285000Y-90568000D02*
X82285000Y-90055500D01*
X86360000Y-85980500D02*
X86360000Y-85980500D01*
X82285000Y-91705500D02*
X84074000Y-93494500D01*
X82285000Y-90568000D02*
X82285000Y-91705500D01*
X82285000Y-111020500D02*
X82285000Y-112158000D01*
X84074000Y-109231500D02*
X82285000Y-111020500D01*
X84074000Y-93494500D02*
X84074000Y-109231500D01*
X82285000Y-113295500D02*
X84328000Y-115338500D01*
X82285000Y-112158000D02*
X82285000Y-113295500D01*
X84328000Y-130567500D02*
X82285000Y-132610500D01*
X82285000Y-132610500D02*
X82285000Y-133748000D01*
X84328000Y-115338500D02*
X84328000Y-130567500D01*
X82910000Y-133748000D02*
X83820000Y-134658000D01*
X82285000Y-133748000D02*
X82910000Y-133748000D01*
X82285000Y-154200500D02*
X82285000Y-155338000D01*
X83820000Y-152665500D02*
X82285000Y-154200500D01*
X83820000Y-134658000D02*
X83820000Y-152665500D01*
X82285000Y-155338000D02*
X82285000Y-164581000D01*
X82285000Y-164581000D02*
X82804000Y-165100000D01*
X82804000Y-165100000D02*
X105918000Y-165100000D01*
X107911561Y-163106439D02*
X107911561Y-155198629D01*
X105918000Y-165100000D02*
X107911561Y-163106439D01*
G04 #@! TO.N,Net-(IC1-Pad3)*
X95672000Y-85740000D02*
X96800000Y-86868000D01*
X95672000Y-84840000D02*
X95672000Y-85740000D01*
X104140000Y-99568000D02*
X106172000Y-99568000D01*
X106172000Y-99568000D02*
X106426000Y-99314000D01*
X106426000Y-99314000D02*
X106426000Y-87630000D01*
X105664000Y-86868000D02*
X96800000Y-86868000D01*
X106426000Y-87630000D02*
X105664000Y-86868000D01*
X102108000Y-107188000D02*
X104140000Y-107188000D01*
X100584000Y-105664000D02*
X100584000Y-105664000D01*
X100584000Y-99822000D02*
X100584000Y-105664000D01*
X104140000Y-99568000D02*
X100838000Y-99568000D01*
X100838000Y-99568000D02*
X100584000Y-99822000D01*
X82285000Y-84692000D02*
X82285000Y-86879000D01*
X82285000Y-86879000D02*
X81788000Y-87376000D01*
X81788000Y-87376000D02*
X78994000Y-87376000D01*
X78385000Y-86767000D02*
X78385000Y-84692000D01*
X78994000Y-87376000D02*
X78385000Y-86767000D01*
X78385000Y-106282000D02*
X78385000Y-108611000D01*
X78385000Y-108611000D02*
X78994000Y-109220000D01*
X78994000Y-109220000D02*
X80264000Y-109220000D01*
X82285000Y-108723000D02*
X82285000Y-106282000D01*
X81788000Y-109220000D02*
X82285000Y-108723000D01*
X82285000Y-127872000D02*
X82285000Y-130313000D01*
X82285000Y-130313000D02*
X81788000Y-130810000D01*
X81788000Y-130810000D02*
X80264000Y-130810000D01*
X78385000Y-130201000D02*
X78385000Y-127872000D01*
X78994000Y-130810000D02*
X78385000Y-130201000D01*
X78385000Y-149462000D02*
X78385000Y-152045000D01*
X78385000Y-152045000D02*
X78740000Y-152400000D01*
X78740000Y-152400000D02*
X80264000Y-152400000D01*
X82285000Y-152157000D02*
X82285000Y-149462000D01*
X82042000Y-152400000D02*
X82285000Y-152157000D01*
X107911561Y-149322629D02*
X107911561Y-151422439D01*
X107911561Y-151422439D02*
X107188000Y-152146000D01*
X107188000Y-152146000D02*
X105664000Y-152146000D01*
X104011561Y-151509561D02*
X104011561Y-149322629D01*
X104648000Y-152146000D02*
X104011561Y-151509561D01*
X95524000Y-84692000D02*
X95672000Y-84840000D01*
X82285000Y-84692000D02*
X95524000Y-84692000D01*
X82285000Y-105769500D02*
X82296000Y-105758500D01*
X82285000Y-106282000D02*
X82285000Y-105769500D01*
X82296000Y-105758500D02*
X82296000Y-104394000D01*
X82296000Y-104394000D02*
X82296000Y-104394000D01*
X100584000Y-105664000D02*
X102108000Y-107188000D01*
X80264000Y-109220000D02*
X81788000Y-109220000D01*
X80264000Y-130810000D02*
X78994000Y-130810000D01*
X80264000Y-152400000D02*
X82042000Y-152400000D01*
X105664000Y-152146000D02*
X104648000Y-152146000D01*
X82285000Y-152157000D02*
X83047000Y-152157000D01*
X83047000Y-152157000D02*
X83047000Y-152157000D01*
X105529372Y-152280628D02*
X105664000Y-152146000D01*
X98671372Y-152280628D02*
X105529372Y-152280628D01*
G04 #@! TO.N,Net-(C1-Pad2)*
X95668000Y-80264000D02*
X95672000Y-80260000D01*
X95527000Y-80405000D02*
X95672000Y-80260000D01*
X92456000Y-80405000D02*
X95527000Y-80405000D01*
X92061000Y-80010000D02*
X92456000Y-80405000D01*
X89154000Y-80010000D02*
X92061000Y-80010000D01*
G04 #@! TO.N,Net-(LED4-Pad9)*
X77735000Y-155338000D02*
X76564000Y-155338000D01*
X76564000Y-155338000D02*
X76564000Y-155338000D01*
X87122000Y-152596315D02*
X87630000Y-152088315D01*
X87122000Y-153162000D02*
X87122000Y-152596315D01*
X87630000Y-145557188D02*
X88900000Y-144287188D01*
X87630000Y-152088315D02*
X87630000Y-145557188D01*
X88900000Y-144287188D02*
X88900000Y-141224000D01*
X88900000Y-141224000D02*
X89916000Y-140208000D01*
X107261561Y-144909087D02*
X107261561Y-148185129D01*
X102560474Y-140208000D02*
X107261561Y-144909087D01*
X107261561Y-148185129D02*
X107261561Y-149322629D01*
X89916000Y-140208000D02*
X102560474Y-140208000D01*
G04 #@! TO.N,Net-(LED2-Pad9)*
X81635000Y-127872000D02*
X81635000Y-122275000D01*
X81635000Y-122275000D02*
X79248000Y-119888000D01*
X79248000Y-119888000D02*
X77724000Y-119888000D01*
X77724000Y-119888000D02*
X77724000Y-119888000D01*
X77735000Y-112158000D02*
X76564000Y-112158000D01*
X76564000Y-112158000D02*
X76564000Y-112158000D01*
G04 #@! TO.N,Net-(LED1-Pad9)*
X77735000Y-89430500D02*
X77724000Y-89419500D01*
X77735000Y-90568000D02*
X77735000Y-89430500D01*
X77735000Y-89430500D02*
X77735000Y-88657000D01*
X77735000Y-88657000D02*
X77735000Y-88657000D01*
X81635000Y-105144500D02*
X81635000Y-106282000D01*
X81635000Y-102122458D02*
X81635000Y-105144500D01*
X81534000Y-102021458D02*
X81635000Y-102122458D01*
X81534000Y-97536000D02*
X81534000Y-102021458D01*
D20*
G04 #@! TO.N,Net-(LED3-Pad9)*
X81635000Y-149462000D02*
X81635000Y-143611000D01*
X81635000Y-143611000D02*
X80010000Y-141986000D01*
X80010000Y-141986000D02*
X79756000Y-141986000D01*
X79756000Y-141986000D02*
X77724000Y-141986000D01*
X77724000Y-141986000D02*
X77724000Y-141986000D01*
X77260000Y-133748000D02*
X77150000Y-133858000D01*
X77735000Y-133748000D02*
X77260000Y-133748000D01*
X77150000Y-133858000D02*
X75946000Y-133858000D01*
X75946000Y-133858000D02*
X75946000Y-133858000D01*
G04 #@! TD*
M02*
